<svg width="36" height="36" viewBox="0 0 36 36" fill="none" xmlns="http://www.w3.org/2000/svg">
<g clip-path="url(#clip0)">
<path fill-rule="evenodd" clip-rule="evenodd" d="M5.73459 9.25366C5.75161 8.94033 5.91473 8.65316 6.17513 8.47807L9.90946 5.96714C10.2073 5.7669 10.5895 5.74159 10.9111 5.9008L21.229 11.0089L25.7265 7.98476C26.6069 7.39281 27.6863 7.17483 28.7274 7.37877C29.7685 7.58271 30.6859 8.19186 31.2779 9.07222C31.8698 9.95258 32.0878 11.032 31.8838 12.0731C31.6799 13.1142 31.0708 14.0316 30.1904 14.6236L25.6929 17.6477L26.5304 29.1302C26.5565 29.4881 26.3888 29.8326 26.091 30.0328L22.3567 32.5438C22.0963 32.7188 21.7688 32.7616 21.4722 32.6591C21.1756 32.5567 20.9443 32.3209 20.8475 32.0224L17.8872 22.8961L14.352 25.2731L13.6161 29.0302C13.5651 29.2904 13.4128 29.5198 13.1927 29.6678L9.45836 32.1787C9.17075 32.3721 8.80352 32.4028 8.48781 32.2598C8.17211 32.1168 7.95294 31.8205 7.9086 31.4768L7.11422 25.3196L1.71186 22.2608C1.41027 22.0901 1.21859 21.7753 1.2053 21.429C1.192 21.0827 1.35897 20.7542 1.64657 20.5608L5.38091 18.0499C5.601 17.9019 5.87086 17.8474 6.13113 17.8984L9.88815 18.6343L13.4234 16.2573L6.08848 10.0724C5.84859 9.87014 5.71756 9.56698 5.73459 9.25366ZM8.39126 9.39804L15.7261 15.5829C15.966 15.7852 16.0971 16.0883 16.08 16.4017C16.063 16.715 15.8999 17.0022 15.6395 17.1773L10.6604 20.5252C10.4403 20.6732 10.1704 20.7276 9.91016 20.6767L6.15314 19.9407L4.10527 21.3177L8.53472 23.8256C8.80863 23.9807 8.99353 24.2557 9.0338 24.5678L9.68512 29.6162L11.733 28.2392L12.469 24.4822C12.5199 24.2219 12.6722 23.9926 12.8923 23.8446L17.8714 20.4967C18.1318 20.3216 18.4593 20.2789 18.7559 20.3813C19.0525 20.4838 19.2838 20.7195 19.3806 21.018L22.3409 30.1443L24.4935 28.6969L23.6559 17.2144C23.6298 16.8565 23.7975 16.512 24.0953 16.3118L29.0744 12.9639C29.5146 12.6679 29.8192 12.2092 29.9211 11.6886C30.0231 11.1681 29.9141 10.6284 29.6182 10.1882C29.3222 9.74801 28.8635 9.44343 28.3429 9.34146C27.8224 9.23949 27.2827 9.34848 26.8425 9.64446L21.8634 12.9924C21.5656 13.1926 21.1833 13.2179 20.8617 13.0587L10.5438 7.95065L8.39126 9.39804Z" fill="#3796F6"/>
</g>
<defs>
<clipPath id="clip0">
<rect width="36" height="36" fill="white"/>
</clipPath>
</defs>
</svg>
