<svg width="36" height="36" viewBox="0 0 36 36" fill="none" xmlns="http://www.w3.org/2000/svg">
<path fill-rule="evenodd" clip-rule="evenodd" d="M8.55859 3C8.55859 2.44772 9.00631 2 9.55859 2L26.1909 2C26.7432 2 27.1909 2.44772 27.1909 3C27.1909 3.55228 26.7432 4 26.1909 4L9.55859 4C9.00631 4 8.55859 3.55228 8.55859 3Z" fill="#3796F6"/>
<path fill-rule="evenodd" clip-rule="evenodd" d="M8.55859 32C8.55859 31.4477 9.00631 31 9.55859 31L25.7645 31C26.3168 31 26.7645 31.4477 26.7645 32C26.7645 32.5523 26.3168 33 25.7645 33L9.55859 33C9.00631 33 8.55859 32.5523 8.55859 32Z" fill="#3796F6"/>
<path fill-rule="evenodd" clip-rule="evenodd" d="M28.75 11.6765L7 11.6765C6.44772 11.6765 6 11.2288 6 10.6765C6 10.1242 6.44772 9.67652 7 9.67652L28.75 9.67652C29.3023 9.67652 29.75 10.1242 29.75 10.6765C29.75 11.2288 29.3023 11.6765 28.75 11.6765Z" fill="#3796F6"/>
<path fill-rule="evenodd" clip-rule="evenodd" d="M7.70605 20.0588C7.70605 19.5066 8.15377 19.0588 8.70605 19.0588L27.0443 19.0588C27.5966 19.0588 28.0443 19.5066 28.0443 20.0588C28.0443 20.6111 27.5966 21.0588 27.0443 21.0588L8.70605 21.0588C8.15377 21.0588 7.70605 20.6111 7.70605 20.0588Z" fill="#3796F6"/>
<path fill-rule="evenodd" clip-rule="evenodd" d="M12.1177 19.9117C12.67 19.9117 13.1177 20.3595 13.1177 20.9117V32C13.1177 32.5523 12.67 33 12.1177 33C11.5654 33 11.1177 32.5523 11.1177 32V20.9117C11.1177 20.3595 11.5654 19.9117 12.1177 19.9117Z" fill="#3796F6"/>
<path fill-rule="evenodd" clip-rule="evenodd" d="M24.0586 19.9117C24.6109 19.9117 25.0586 20.3595 25.0586 20.9117V32C25.0586 32.5523 24.6109 33 24.0586 33C23.5063 33 23.0586 32.5523 23.0586 32V20.9117C23.0586 20.3595 23.5063 19.9117 24.0586 19.9117Z" fill="#3796F6"/>
<path fill-rule="evenodd" clip-rule="evenodd" d="M10.1136 2.89845C10.6408 2.73372 11.2016 3.02751 11.3664 3.55465L13.4987 10.3782C13.6635 10.9053 13.3697 11.4662 12.8425 11.6309C12.3154 11.7957 11.7545 11.5019 11.5898 10.9747L9.45741 4.1512C9.29268 3.62406 9.58647 3.06318 10.1136 2.89845Z" fill="#3796F6"/>
<path fill-rule="evenodd" clip-rule="evenodd" d="M7.62115 10.1301C8.15841 10.0022 8.69765 10.334 8.82557 10.8713L10.9579 19.8272C11.0858 20.3644 10.754 20.9037 10.2167 21.0316C9.67947 21.1595 9.14023 20.8277 9.01231 20.2904L6.87996 11.3345C6.75204 10.7972 7.08388 10.258 7.62115 10.1301Z" fill="#3796F6"/>
<path fill-rule="evenodd" clip-rule="evenodd" d="M28.1289 9.70369C27.5916 9.57577 27.0523 9.90761 26.9244 10.4449L24.7921 19.4008C24.6642 19.938 24.996 20.4773 25.5333 20.6052C26.0705 20.7331 26.6098 20.4013 26.7377 19.864L28.87 10.9081C28.998 10.3709 28.6661 9.83161 28.1289 9.70369Z" fill="#3796F6"/>
<path fill-rule="evenodd" clip-rule="evenodd" d="M25.5958 2.88667C25.0622 2.74437 24.5142 3.06161 24.3719 3.59525L22.666 9.99231C22.5237 10.5259 22.8409 11.0739 23.3746 11.2162C23.9082 11.3585 24.4562 11.0413 24.5985 10.5076L26.3044 4.11057C26.4467 3.57693 26.1294 3.02898 25.5958 2.88667Z" fill="#3796F6"/>
</svg>
