<svg width="36" height="36" viewBox="0 0 36 36" fill="none" xmlns="http://www.w3.org/2000/svg">
<path fill-rule="evenodd" clip-rule="evenodd" d="M12.1889 3.50096C12.3976 3.18799 12.7489 3 13.125 3H22.125C22.5011 3 22.8524 3.18799 23.0611 3.50096L25.7271 7.5H31.125C32.219 7.5 33.2682 7.9346 34.0418 8.70818C34.8154 9.48177 35.25 10.531 35.25 11.625V28.125C35.25 29.219 34.8154 30.2682 34.0418 31.0418C33.2682 31.8154 32.219 32.25 31.125 32.25H4.125C3.03098 32.25 1.98177 31.8154 1.20818 31.0418C0.434597 30.2682 0 29.219 0 28.125V11.625C0 10.531 0.434597 9.48177 1.20818 8.70818C1.98177 7.9346 3.03098 7.5 4.125 7.5H9.52292L12.1889 3.50096ZM13.7271 5.25L11.0611 9.24904C10.8524 9.56201 10.5011 9.75 10.125 9.75H4.125C3.62772 9.75 3.15081 9.94754 2.79917 10.2992C2.44754 10.6508 2.25 11.1277 2.25 11.625V28.125C2.25 28.6223 2.44754 29.0992 2.79917 29.4508C3.15081 29.8025 3.62772 30 4.125 30H31.125C31.6223 30 32.0992 29.8025 32.4508 29.4508C32.8025 29.0992 33 28.6223 33 28.125V11.625C33 11.1277 32.8025 10.6508 32.4508 10.2992C32.0992 9.94754 31.6223 9.75 31.125 9.75H25.125C24.7489 9.75 24.3976 9.56201 24.1889 9.24904L21.5229 5.25H13.7271Z" fill="#3796F6"/>
<path fill-rule="evenodd" clip-rule="evenodd" d="M17.625 14.25C14.9326 14.25 12.75 16.4326 12.75 19.125C12.75 21.8174 14.9326 24 17.625 24C20.3174 24 22.5 21.8174 22.5 19.125C22.5 16.4326 20.3174 14.25 17.625 14.25ZM10.5 19.125C10.5 15.19 13.69 12 17.625 12C21.56 12 24.75 15.19 24.75 19.125C24.75 23.06 21.56 26.25 17.625 26.25C13.69 26.25 10.5 23.06 10.5 19.125Z" fill="#3796F6"/>
</svg>
