<svg width="20" height="20" viewBox="0 0 20 20" fill="none" xmlns="http://www.w3.org/2000/svg">
<path fill-rule="evenodd" clip-rule="evenodd" d="M4 0C1.79102 0 0 1.79089 0 4V16C0 18.2091 1.79102 20 4 20H16C18.209 20 20 18.2091 20 16V4C20 1.79089 18.209 0 16 0H4ZM14.2466 6.2345L14.2876 6.43091C14.4019 6.94727 14.2739 7.48938 13.9365 7.8877L12.5293 9.60986L13.0923 15.0616C13.1406 15.5298 13.0039 15.9886 12.7129 16.342L12.5132 16.5851C12.4585 16.6512 12.3804 16.6876 12.2993 16.6927L12.2627 16.6941C12.2485 16.6938 12.2344 16.6921 12.2168 16.6875C12.1118 16.6626 12.022 16.5845 11.981 16.4824L10.3838 12.2057L9.49121 13.2672L9.62012 15.1125C9.62158 15.3219 9.56738 15.4929 9.4585 15.6254L9.29492 15.8242C9.23242 15.9119 9.14404 15.9489 9.0415 15.9448C8.93896 15.9408 8.83984 15.8738 8.78857 15.7723L7.62451 13.4161L5.25732 12.675C5.16162 12.6392 5.08301 12.5708 5.04199 12.4686C5.0166 12.3856 5.02393 12.2937 5.06152 12.2206C5.07031 12.2032 5.08105 12.187 5.09326 12.1722L5.24756 11.9845C5.3125 11.899 5.39258 11.8352 5.48193 11.7935C5.55371 11.7599 5.63135 11.7405 5.71289 11.7354L7.49463 11.5603L8.37598 10.4891L4.0166 9.5697C3.91162 9.54492 3.83203 9.46619 3.79053 9.36401C3.75977 9.26123 3.77734 9.13452 3.84082 9.05713L4.04053 8.81421C4.33154 8.46082 4.74902 8.24609 5.19629 8.2179L10.5215 7.89319L11.9766 6.1366C12.2852 5.76111 12.7437 5.54382 13.2334 5.53394L13.397 5.53406C13.8066 5.53967 14.1641 5.8313 14.2466 6.2345Z" fill="white"/>
</svg>
