<svg width="20" height="20" viewBox="0 0 20 20" fill="none" xmlns="http://www.w3.org/2000/svg">
<path fill-rule="evenodd" clip-rule="evenodd" d="M11.6665 2.49996C11.6665 2.03972 12.0396 1.66663 12.4998 1.66663H15.8332C16.4962 1.66663 17.1321 1.93002 17.6009 2.39886C18.0698 2.8677 18.3332 3.50358 18.3332 4.16663V15.8333C18.3332 16.4963 18.0698 17.1322 17.6009 17.6011C17.1321 18.0699 16.4962 18.3333 15.8332 18.3333H12.4998C12.0396 18.3333 11.6665 17.9602 11.6665 17.5C11.6665 17.0397 12.0396 16.6666 12.4998 16.6666H15.8332C16.0542 16.6666 16.2661 16.5788 16.4224 16.4225C16.5787 16.2663 16.6665 16.0543 16.6665 15.8333V4.16663C16.6665 3.94561 16.5787 3.73365 16.4224 3.57737C16.2661 3.42109 16.0542 3.33329 15.8332 3.33329H12.4998C12.0396 3.33329 11.6665 2.9602 11.6665 2.49996Z" fill="#3796F6"/>
<path fill-rule="evenodd" clip-rule="evenodd" d="M7.74408 5.24408C8.06951 4.91864 8.59715 4.91864 8.92259 5.24408L13.0893 9.41074C13.4147 9.73618 13.4147 10.2638 13.0893 10.5893L8.92259 14.7559C8.59715 15.0814 8.06951 15.0814 7.74408 14.7559C7.41864 14.4305 7.41864 13.9028 7.74408 13.5774L11.3215 10L7.74408 6.42259C7.41864 6.09715 7.41864 5.56951 7.74408 5.24408Z" fill="#3796F6"/>
<path fill-rule="evenodd" clip-rule="evenodd" d="M1.6665 9.99996C1.6665 9.53972 2.0396 9.16663 2.49984 9.16663H12.4998C12.9601 9.16663 13.3332 9.53972 13.3332 9.99996C13.3332 10.4602 12.9601 10.8333 12.4998 10.8333H2.49984C2.0396 10.8333 1.6665 10.4602 1.6665 9.99996Z" fill="#3796F6"/>
</svg>
