<svg width="20" height="20" viewBox="0 0 20 20" fill="none" xmlns="http://www.w3.org/2000/svg">
<path fill-rule="evenodd" clip-rule="evenodd" d="M4 0C1.79086 0 0 1.79086 0 4V16C0 18.2091 1.79086 20 4 20H16C18.2091 20 20 18.2091 20 16V4C20 1.79086 18.2091 0 16 0H4ZM14.5 11.8333C14.8306 11.1788 15.0019 10.4555 15 9.72223V9.44445C14.9361 8.28648 14.4473 7.19277 13.6273 6.37271C12.8072 5.55266 11.7135 5.0639 10.5555 5.00002H10.2778C9.54451 4.9981 8.82117 5.16942 8.16666 5.50002C7.38236 5.892 6.72268 6.4946 6.26151 7.24032C5.80034 7.98604 5.55589 8.84543 5.55555 9.72223C5.55364 10.4555 5.72496 11.1788 6.05555 11.8333L5 15L8.16666 13.9444C8.82117 14.275 9.54451 14.4464 10.2778 14.4444C11.1546 14.4441 12.014 14.1997 12.7597 13.7385C13.5054 13.2773 14.108 12.6176 14.5 11.8333Z" fill="white"/>
</svg>
