<svg width="36" height="36" viewBox="0 0 36 36" fill="none" xmlns="http://www.w3.org/2000/svg">
<path fill-rule="evenodd" clip-rule="evenodd" d="M15.973 2.48675C16.5895 2.13132 17.2886 1.94421 18.0002 1.94421C18.7118 1.94421 19.4109 2.1313 20.0274 2.48669L20.0296 2.48799L30.5296 8.48798C31.0415 8.78352 31.4814 9.18652 31.8198 9.66758C31.8935 9.73678 31.9585 9.81778 32.0117 9.9098C32.0584 9.99044 32.0932 10.0747 32.1167 10.1605C32.4064 10.729 32.5584 11.3588 32.559 11.9989L32.5591 12V24L32.559 24.001C32.5583 24.7128 32.3704 25.4119 32.0142 26.0281C31.658 26.6443 31.146 27.156 30.5296 27.5119L30.5256 27.5143L20.0296 33.5119L20.0277 33.5131C19.5751 33.774 19.078 33.9443 18.5641 34.0164C18.4008 34.1193 18.2075 34.1788 18.0002 34.1788C17.793 34.1788 17.5997 34.1193 17.4364 34.0164C16.9224 33.9443 16.4253 33.774 15.9727 33.513L15.9708 33.5119L5.47491 27.5143L5.47082 27.5119C4.85441 27.156 4.34242 26.6443 3.98623 26.0281C3.63003 25.4119 3.44214 24.7128 3.44141 24.001V11.9989C3.44206 11.3589 3.59401 10.7292 3.88356 10.1608C3.90711 10.0749 3.94196 9.99054 3.98867 9.9098C4.04195 9.81769 4.10699 9.73661 4.18079 9.66736C4.51921 9.1864 4.95902 8.78348 5.47082 8.48799L5.4749 8.48564L15.9708 2.48799L15.973 2.48675ZM19.0591 31.6276L29.4708 25.678L29.4728 25.6769C29.7667 25.5067 30.0109 25.2624 30.1808 24.9683C30.3512 24.6736 30.4411 24.3393 30.4414 23.9989V12.0414L19.0591 18.6257V31.6276ZM16.9414 18.6257V31.6276L6.52964 25.678L6.52771 25.6769C6.23377 25.5067 5.9896 25.2624 5.81962 24.9683C5.64934 24.6738 5.55949 24.3396 5.55905 23.9994V12.0414L16.9414 18.6257ZM18.9708 4.32194L29.3269 10.2397L24.7582 12.8825L13.4552 6.36446L17.0256 4.32429L17.0296 4.32193C17.3247 4.15156 17.6595 4.06186 18.0002 4.06186C18.341 4.06186 18.6757 4.15156 18.9708 4.32194ZM11.326 7.58114L22.642 14.1067L18.0002 16.7918L6.67355 10.2397L11.326 7.58114Z" fill="#3796F6"/>
</svg>
