<svg width="20" height="20" viewBox="0 0 20 20" fill="none" xmlns="http://www.w3.org/2000/svg">
<rect width="20" height="20" rx="4" fill="white"/>
<path d="M15 9.72223C15.0019 10.4555 14.8306 11.1788 14.5 11.8333C14.108 12.6176 13.5054 13.2773 12.7597 13.7385C12.014 14.1997 11.1546 14.4441 10.2778 14.4444C9.54451 14.4464 8.82117 14.275 8.16666 13.9444L5 15L6.05555 11.8333C5.72496 11.1788 5.55364 10.4555 5.55555 9.72223C5.55589 8.84543 5.80034 7.98604 6.26151 7.24032C6.72268 6.4946 7.38236 5.892 8.16666 5.50002C8.82117 5.16942 9.54451 4.9981 10.2778 5.00002H10.5555C11.7135 5.0639 12.8072 5.55266 13.6273 6.37271C14.4473 7.19277 14.9361 8.28648 15 9.44445V9.72223Z" fill="#3796F6"/>
</svg>
