<svg width="20" height="20" viewBox="0 0 20 20" fill="none" xmlns="http://www.w3.org/2000/svg">
<rect width="20" height="20" rx="4" fill="white"/>
<path d="M14.2874 6.43094L14.2467 6.23454C14.1641 5.83134 13.8068 5.53968 13.3971 5.53405L13.2335 5.53388C12.7436 5.54377 12.2854 5.7611 11.9764 6.13659L10.5215 7.89318L5.1962 8.21791C4.74913 8.24605 4.33155 8.46082 4.04078 8.81422L3.84087 9.05718C3.77726 9.13449 3.75967 9.26126 3.79073 9.36402C3.83196 9.46614 3.91167 9.5449 4.0165 9.56971L8.37597 10.4891L7.49456 11.5603L5.71272 11.7353C5.52982 11.7468 5.36461 11.8305 5.24756 11.9845L5.09308 12.1722C5.02948 12.2495 5.01081 12.3659 5.04187 12.4687C5.08309 12.5708 5.16174 12.6391 5.25748 12.675L7.62478 13.4161L8.78842 15.7723C8.83981 15.8738 8.93877 15.9409 9.04145 15.9449C9.14413 15.9489 9.23236 15.9119 9.29489 15.8242L9.45845 15.6254C9.56749 15.4929 9.62143 15.3219 9.62027 15.1126L9.49113 13.2672L10.3838 12.2057L11.9809 16.4824C12.0221 16.5845 12.112 16.6626 12.2168 16.6874C12.2484 16.6959 12.2687 16.6946 12.2992 16.6927C12.3805 16.6876 12.4585 16.6513 12.513 16.585L12.713 16.3421C13.0037 15.9887 13.1404 15.5298 13.0921 15.0616L12.5293 9.60982L13.9367 7.88765C14.2739 7.48943 14.402 6.94731 14.2874 6.43094Z" fill="#3796F6"/>
</svg>
