<svg width="743" height="176" viewBox="0 0 743 176" fill="none" xmlns="http://www.w3.org/2000/svg">
<path fill-rule="evenodd" clip-rule="evenodd" d="M566.63 111.11C556.632 143.419 526.216 167 490.11 167C472.266 167 455.812 161.24 442.525 151.514C437.789 151.754 433.179 151.82 428.72 151.714C444.69 166.762 466.309 176 490.11 176C533.994 176 570.459 144.597 577.774 103.278C574.266 105.943 570.546 108.559 566.63 111.11ZM569.546 97.4295C569.919 94.3369 570.11 91.1901 570.11 88C570.11 44.4651 534.389 9 490.11 9C445.831 9 410.11 44.4651 410.11 88C410.11 108.931 418.368 127.997 431.863 142.153C427.587 142.127 423.463 141.939 419.514 141.593C407.972 126.752 401.11 108.169 401.11 88C401.11 39.3989 440.957 0 490.11 0C539.264 0 579.11 39.3989 579.11 88C579.11 88.6271 579.104 89.2526 579.091 89.8765C576.125 92.4241 572.938 94.9471 569.546 97.4295Z" fill="#353541"/>
<path d="M167.581 90.7991C167.557 87.8714 166.949 85.557 165.756 83.8557C164.601 82.1542 162.769 81.3138 160.259 81.3345C159.119 81.3439 158.037 81.524 157.013 81.8746C156.027 82.225 155.232 82.6118 154.627 83.0351L154.769 100.202C155.264 100.312 155.892 100.421 156.654 100.529C157.453 100.598 158.404 100.628 159.506 100.619C162.054 100.598 164.043 99.726 165.473 98.0031C166.904 96.2422 167.606 93.8408 167.581 90.7991ZM174.654 90.8547C174.674 93.2501 174.331 95.4203 173.624 97.3654C172.956 99.2721 171.962 100.915 170.642 102.295C169.361 103.675 167.791 104.733 165.934 105.471C164.077 106.209 161.97 106.588 159.613 106.607C157.331 106.626 155.144 106.473 153.05 106.148C150.994 105.823 149.28 105.457 147.907 105.05L147.559 62.8456L154.45 61.6479L154.578 77.1037C155.373 76.6789 156.339 76.2906 157.477 75.939C158.653 75.5871 159.944 75.4053 161.351 75.3937C163.442 75.3764 165.308 75.7412 166.95 76.4881C168.629 77.1967 170.025 78.2309 171.139 79.5905C172.253 80.9502 173.103 82.5972 173.689 84.5316C174.313 86.4277 174.635 88.5354 174.654 90.8547Z" fill="#3796F6"/>
<path d="M209.17 90.5125C209.19 92.8698 208.865 95.0209 208.197 96.9656C207.528 98.9104 206.572 100.572 205.329 101.951C204.086 103.331 202.574 104.408 200.793 105.183C199.05 105.958 197.114 106.354 194.985 106.372C192.856 106.389 190.913 106.025 189.158 105.279C187.403 104.533 185.892 103.481 184.626 102.123C183.36 100.764 182.358 99.1184 181.62 97.1852C180.919 95.2518 180.559 93.1064 180.54 90.749C180.52 88.3917 180.845 86.2596 181.513 84.3529C182.22 82.4078 183.195 80.7457 184.438 79.3666C185.72 77.9871 187.232 76.9289 188.975 76.1921C190.718 75.4172 192.635 75.0211 194.726 75.0038C196.817 74.9865 198.74 75.3509 200.495 76.0969C202.288 76.8045 203.818 77.8375 205.084 79.196C206.35 80.5544 207.333 82.2003 208.034 84.1338C208.772 86.0289 209.151 88.1551 209.17 90.5125ZM202.098 90.5709C202.073 87.6052 201.408 85.2722 200.101 83.5719C198.832 81.8333 197.057 80.9734 194.775 80.9922C192.494 81.0111 190.714 81.9004 189.436 83.66C188.195 85.3814 187.587 87.7249 187.612 90.6906C187.637 93.6943 188.284 96.0655 189.553 97.8041C190.86 99.5424 192.654 100.402 194.935 100.383C197.217 100.364 198.978 99.4754 200.218 97.716C201.496 95.9563 202.123 93.5746 202.098 90.5709Z" fill="#3796F6"/>
<path d="M243.684 90.2273C243.703 92.5846 243.379 94.7357 242.71 96.6804C242.042 98.6252 241.086 100.287 239.843 101.666C238.599 103.045 237.087 104.123 235.306 104.898C233.564 105.673 231.628 106.069 229.499 106.087C227.369 106.104 225.427 105.74 223.672 104.994C221.917 104.248 220.406 103.196 219.14 101.837C217.874 100.479 216.872 98.8332 216.133 96.9C215.433 94.9666 215.073 92.8212 215.053 90.4638C215.034 88.1065 215.358 85.9745 216.027 84.0677C216.733 82.1226 217.708 80.4605 218.952 79.0814C220.233 77.7019 221.745 76.6437 223.488 75.9069C225.231 75.132 227.148 74.7359 229.239 74.7186C231.331 74.7013 233.254 75.0657 235.009 75.8117C236.802 76.5193 238.332 77.5524 239.598 78.9108C240.864 80.2692 241.847 81.9151 242.547 83.8486C243.285 85.7437 243.664 87.8699 243.684 90.2273ZM236.612 90.2857C236.587 87.32 235.921 84.987 234.615 83.2867C233.345 81.5481 231.57 80.6882 229.289 80.707C227.008 80.7259 225.228 81.6152 223.949 83.3748C222.709 85.0962 222.101 87.4397 222.125 90.4054C222.15 93.4091 222.797 95.7803 224.066 97.5189C225.374 99.2572 227.168 100.117 229.449 100.098C231.73 100.079 233.491 99.1902 234.731 97.4308C236.01 95.6711 236.636 93.2894 236.612 90.2857Z" fill="#3796F6"/>
<path d="M258.095 86.8571C258.962 85.9374 259.885 84.9601 260.866 83.9253C261.845 82.8526 262.806 81.799 263.748 80.7645C264.69 79.6921 265.575 78.6771 266.404 77.7196C267.27 76.7239 268.004 75.8622 268.607 75.1348L276.763 75.0674C274.879 77.2123 272.882 79.4342 270.772 81.7331C268.699 84.0317 266.608 86.2734 264.496 88.4583C265.645 89.3994 266.852 90.5491 268.118 91.9076C269.384 93.228 270.612 94.6437 271.803 96.1548C272.995 97.666 274.11 99.1777 275.149 100.69C276.188 102.202 277.055 103.602 277.75 104.889L269.766 104.955C269.072 103.782 268.263 102.553 267.34 101.268C266.455 99.9825 265.494 98.7356 264.457 97.5274C263.42 96.3192 262.365 95.1872 261.292 94.1313C260.218 93.0375 259.165 92.1146 258.132 91.3627L258.245 105.05L251.344 105.108L250.988 61.9909L257.88 60.7932L258.095 86.8571Z" fill="#3796F6"/>
<path d="M290.143 104.787L283.242 104.844L282.995 75.0159L289.896 74.9589L290.143 104.787ZM290.565 66.2268C290.576 67.5195 290.166 68.5495 289.336 69.3169C288.506 70.0842 287.52 70.4726 286.38 70.4821C285.201 70.4918 284.19 70.1199 283.348 69.3664C282.505 68.6129 282.078 67.5897 282.068 66.297C282.057 64.9662 282.466 63.9172 283.296 63.1498C284.126 62.3825 285.131 61.9939 286.31 61.9842C287.45 61.9748 288.442 62.3468 289.285 63.1003C290.127 63.8539 290.554 64.896 290.565 66.2268Z" fill="#3796F6"/>
<path d="M299.136 75.8521C300.463 75.4609 302.19 75.0854 304.317 74.7256C306.443 74.3659 308.799 74.1753 311.385 74.1539C313.818 74.1338 315.855 74.4592 317.496 75.1301C319.136 75.7629 320.436 76.6838 321.397 77.8926C322.395 79.0631 323.091 80.5023 323.486 82.2101C323.918 83.8796 324.142 85.722 324.159 87.7371L324.297 104.505L317.397 104.562L317.267 88.8778C317.254 87.2808 317.128 85.932 316.891 84.8313C316.692 83.6922 316.342 82.7825 315.842 82.1022C315.38 81.3835 314.729 80.8756 313.89 80.5783C313.089 80.2427 312.099 80.0798 310.92 80.0895C310.046 80.0968 309.134 80.1613 308.184 80.2833C307.235 80.4052 306.532 80.506 306.076 80.5859L306.275 104.654L299.374 104.711L299.136 75.8521Z" fill="#3796F6"/>
<path d="M338.452 88.7027C338.476 91.6304 339.122 93.7734 340.388 95.1318C341.691 96.4519 343.351 97.1036 345.366 97.087C346.469 97.0778 347.494 96.9173 348.442 96.6052C349.428 96.2929 350.223 95.9251 350.828 95.5018L350.701 80.046C350.205 79.936 349.596 79.846 348.873 79.7759C348.15 79.6678 347.237 79.6183 346.134 79.6274C343.625 79.6482 341.712 80.5005 340.395 82.1845C339.077 83.8304 338.43 86.0031 338.452 88.7027ZM357.777 101.205C357.816 105.958 356.628 109.447 354.213 111.672C351.836 113.897 348.157 115.03 343.176 115.072C341.351 115.087 339.563 114.949 337.811 114.66C336.098 114.37 334.536 113.983 333.125 113.501L334.331 107.616C335.514 108.1 336.848 108.489 338.333 108.781C339.856 109.072 341.493 109.211 343.242 109.196C346.017 109.173 347.99 108.587 349.159 107.436C350.328 106.286 350.903 104.589 350.885 102.346L350.875 101.205C350.194 101.553 349.284 101.903 348.146 102.254C347.047 102.606 345.774 102.787 344.329 102.799C342.428 102.815 340.677 102.525 339.075 101.93C337.511 101.335 336.154 100.452 335.003 99.2829C333.891 98.1134 333.004 96.6568 332.344 94.9131C331.721 93.1311 331.399 91.0805 331.38 88.7611C331.362 86.5939 331.669 84.5951 332.3 82.7647C332.97 80.934 333.926 79.3671 335.17 78.064C336.452 76.7606 338.003 75.7401 339.822 75.0026C341.641 74.2651 343.71 73.8868 346.03 73.8676C348.273 73.8491 350.404 74.0026 352.422 74.3281C354.439 74.6537 356.153 75.0008 357.563 75.3693L357.777 101.205Z" fill="#3796F6"/>
<path d="M0.129631 90.2392C0.11141 88.0341 0.436614 85.9783 1.10524 84.0717C1.77356 82.1271 2.72921 80.4463 3.9722 79.0292C5.25322 77.6118 6.80287 76.4964 8.62117 75.6829C10.4395 74.8695 12.4892 74.4533 14.7703 74.4345C17.5837 74.4112 20.2492 74.9025 22.767 75.9082L21.3309 81.5663C20.5297 81.2307 19.6149 80.9531 18.5865 80.7335C17.5961 80.5135 16.5306 80.4083 15.3901 80.4177C12.6907 80.44 10.6448 81.3124 9.25224 83.0348C7.85937 84.7193 7.17566 87.1013 7.20111 90.1808C7.22561 93.1462 7.91042 95.4979 9.25553 97.2358C10.6003 98.9356 12.8505 99.7725 16.006 99.7464C17.1846 99.7367 18.3432 99.613 19.4819 99.3755C20.6206 99.138 21.6067 98.8447 22.4403 98.4956L23.4569 104.19C22.6997 104.577 21.5429 104.929 19.9867 105.246C18.4685 105.562 16.8919 105.727 15.2571 105.741C12.7099 105.762 10.4826 105.4 8.57542 104.656C6.70591 103.873 5.13819 102.802 3.87226 101.444C2.64404 100.047 1.71792 98.4007 1.09392 96.5048C0.469595 94.5708 0.148167 92.4823 0.129631 90.2392Z" fill="#353541"/>
<path d="M39.5437 99.9512C41.6727 99.9336 43.2876 99.8062 44.3882 99.5689L44.3251 91.9272C43.9439 91.8163 43.3917 91.7068 42.6684 91.5987C41.9451 91.4906 41.1463 91.4401 40.2718 91.4474C39.5115 91.4537 38.7326 91.5171 37.9351 91.6378C37.1757 91.7581 36.4741 91.973 35.8302 92.2825C35.2245 92.5917 34.7338 93.033 34.3584 93.6064C33.9826 94.1418 33.7981 94.8277 33.805 95.6641C33.8186 97.2989 34.3412 98.4353 35.3731 99.0731C36.4046 99.6729 37.7948 99.9656 39.5437 99.9512ZM38.7609 74.2362C41.042 74.2174 42.9643 74.4866 44.5278 75.044C46.0912 75.6014 47.3334 76.3896 48.2544 77.4086C49.2133 78.4272 49.889 79.6764 50.2815 81.1559C50.7116 82.5972 50.9339 84.1923 50.9483 85.9411L51.0977 104.019C50.0351 104.256 48.4215 104.535 46.2569 104.857C44.1307 105.217 41.7179 105.408 39.0186 105.431C37.2317 105.445 35.5955 105.288 34.11 104.958C32.6244 104.628 31.3462 104.087 30.2754 103.336C29.2426 102.584 28.4171 101.602 27.7987 100.39C27.2184 99.1785 26.9208 97.6791 26.9061 95.8923C26.8919 94.1814 27.2031 92.734 27.8397 91.5501C28.5143 90.3659 29.4189 89.4079 30.5535 88.6761C31.6878 87.9063 32.995 87.3632 34.4753 87.0468C35.9932 86.692 37.5695 86.5079 39.2043 86.4944C39.9647 86.4881 40.7636 86.5386 41.6009 86.6457C42.438 86.7148 43.3327 86.8595 44.285 87.0798L44.2756 85.9392C44.269 85.1408 44.1677 84.3812 43.9716 83.6605C43.7755 82.9397 43.4282 82.3152 42.9295 81.787C42.4686 81.2205 41.8377 80.7885 41.0368 80.4909C40.2739 80.1931 39.3032 80.049 38.1246 80.0587C36.5278 80.0719 35.065 80.1981 33.7363 80.4372C32.4075 80.6763 31.3261 80.9514 30.4922 81.2624L29.5906 75.6808C30.4626 75.3694 31.7337 75.0547 33.404 74.7367C35.0743 74.4188 36.8599 74.2519 38.7609 74.2362Z" fill="#353541"/>
<path d="M76.6382 80.8811C76.0663 80.6957 75.2664 80.5122 74.2383 80.3306C73.2479 80.1107 72.0874 80.0062 70.7568 80.0172C69.9964 80.0235 69.1796 80.1063 68.3064 80.2656C67.4713 80.4246 66.8831 80.5625 66.5419 80.6794L66.7393 104.574L59.8389 104.631L59.6042 76.2312C60.9308 75.726 62.5809 75.2561 64.5544 74.8215C66.5656 74.3486 68.7878 74.1022 71.221 74.082C71.6772 74.0783 72.2098 74.1119 72.8187 74.1829C73.4273 74.2159 74.0363 74.2869 74.6455 74.3959C75.2544 74.467 75.8447 74.5761 76.4162 74.7235C76.9874 74.8328 77.4446 74.9431 77.7877 75.0544L76.6382 80.8811Z" fill="#353541"/>
<path d="M88.4127 88.7113C88.4369 91.6387 89.082 93.7816 90.3479 95.1399C91.6515 96.4599 93.3108 97.1115 95.3258 97.0949C96.4284 97.0858 97.4536 96.9252 98.4016 96.6132C99.3875 96.3009 100.183 95.9331 100.788 95.5099L100.66 80.0553C100.165 79.9453 99.5558 79.8553 98.8328 79.7852C98.1095 79.6771 97.1966 79.6276 96.0941 79.6367C93.5848 79.6575 91.6718 80.5098 90.355 82.1936C89.0378 83.8394 88.3904 86.0119 88.4127 88.7113ZM107.736 101.213C107.775 105.965 106.587 109.454 104.172 111.679C101.795 113.904 98.1166 115.037 93.1361 115.078C91.3112 115.093 89.5231 114.956 87.7717 114.666C86.0583 114.376 84.4963 113.99 83.0855 113.507L84.2916 107.623C85.4743 108.107 86.8082 108.496 88.2934 108.787C89.8167 109.079 91.4528 109.218 93.2016 109.203C95.977 109.18 97.9493 108.594 99.1184 107.443C100.288 106.293 100.863 104.596 100.844 102.353L100.835 101.213C100.153 101.561 99.2438 101.91 98.106 102.262C97.0063 102.613 95.7341 102.795 94.2894 102.807C92.3885 102.822 90.6371 102.533 89.0353 101.938C87.4715 101.342 86.1144 100.46 84.9641 99.2907C83.8519 98.1212 82.9653 96.6647 82.3046 94.9212C81.6815 93.1393 81.3604 91.0888 81.3412 88.7697C81.3233 86.6026 81.63 84.604 82.2612 82.7737C82.9305 80.9432 83.8871 79.3764 85.131 78.0734C86.413 76.7701 87.9634 75.7497 89.7823 75.0123C91.6013 74.2748 93.6703 73.8965 95.9894 73.8774C98.2325 73.8588 100.363 74.0123 102.381 74.3379C104.399 74.6634 106.112 75.0104 107.522 75.379L107.736 101.213Z" fill="#353541"/>
<path d="M143.675 88.996C143.695 91.3532 143.371 93.5041 142.702 95.4487C142.034 97.3933 141.078 99.0551 139.835 100.434C138.591 101.813 137.079 102.89 135.299 103.665C133.556 104.44 131.621 104.836 129.491 104.854C127.362 104.872 125.42 104.507 123.665 103.762C121.91 103.016 120.4 101.964 119.134 100.605C117.868 99.2469 116.865 97.6013 116.127 95.6683C115.427 93.735 115.067 91.5898 115.047 89.2326C115.028 86.8754 115.352 84.7436 116.021 82.837C116.727 80.892 117.702 79.2301 118.946 77.851C120.227 76.4717 121.739 75.4136 123.482 74.6768C125.224 73.902 127.141 73.5059 129.232 73.4886C131.323 73.4713 133.246 73.8357 135.002 74.5816C136.794 75.2892 138.324 76.3221 139.59 77.6804C140.856 79.0387 141.839 80.6845 142.539 82.6178C143.277 84.5128 143.656 86.6389 143.675 88.996ZM136.604 89.0545C136.579 86.089 135.914 83.7562 134.607 82.056C133.338 80.3175 131.563 79.4577 129.282 79.4766C127.001 79.4954 125.221 80.3846 123.943 82.1442C122.702 83.8654 122.094 86.2087 122.119 89.1742C122.144 92.1776 122.791 94.5486 124.06 96.2871C125.367 98.0253 127.161 98.885 129.442 98.8661C131.723 98.8473 133.484 97.9582 134.724 96.199C136.002 94.4395 136.629 92.0579 136.604 89.0545Z" fill="#353541"/>
<path d="M631.639 101.134C631.65 102.465 631.203 103.552 630.298 104.396C629.43 105.24 628.369 105.667 627.114 105.677C625.822 105.688 624.735 105.278 623.853 104.449C622.972 103.62 622.526 102.54 622.515 101.21C622.504 99.8789 622.932 98.7917 623.8 97.9481C624.667 97.0664 625.747 96.6202 627.039 96.6096C628.294 96.5992 629.362 97.0276 630.244 97.8948C631.163 98.7237 631.628 99.8035 631.639 101.134Z" fill="#353541"/>
<path d="M638.141 89.9592C638.123 87.7541 638.448 85.6982 639.117 83.7916C639.785 81.847 640.741 80.1662 641.984 78.7491C643.265 77.3318 644.815 76.2163 646.633 75.4029C648.451 74.5894 650.501 74.1732 652.782 74.1544C655.595 74.1311 658.261 74.6224 660.779 75.6282L659.343 81.2862C658.541 80.9506 657.627 80.673 656.598 80.4534C655.608 80.2335 654.542 80.1282 653.402 80.1376C650.702 80.1599 648.656 81.0323 647.264 82.7548C645.871 84.4392 645.187 86.8212 645.213 89.9007C645.237 92.8662 645.922 95.2178 647.267 96.9557C648.612 98.6556 650.862 99.4924 654.018 99.4664C655.196 99.4566 656.355 99.333 657.494 99.0955C658.632 98.8579 659.618 98.5646 660.452 98.2155L661.469 103.91C660.711 104.297 659.555 104.649 657.998 104.966C656.48 105.282 654.904 105.447 653.269 105.461C650.722 105.482 648.494 105.12 646.587 104.375C644.718 103.592 643.15 102.522 641.884 101.164C640.656 99.7669 639.73 98.1206 639.106 96.2247C638.481 94.2908 638.16 92.2023 638.141 89.9592Z" fill="#353541"/>
<path d="M693.911 89.4413C693.93 91.7984 693.606 93.9493 692.937 95.8939C692.269 97.8385 691.313 99.5004 690.07 100.879C688.827 102.258 687.315 103.336 685.534 104.111C683.792 104.886 681.856 105.282 679.727 105.299C677.598 105.317 675.656 104.953 673.9 104.207C672.145 103.461 670.635 102.409 669.369 101.05C668.103 99.6922 667.101 98.0465 666.362 96.1135C665.662 94.1802 665.302 92.035 665.283 89.6778C665.263 87.3207 665.588 85.1888 666.256 83.2822C666.963 81.3373 667.938 79.6753 669.181 78.2963C670.462 76.9169 671.974 75.8588 673.717 75.122C675.46 74.3472 677.377 73.9512 679.468 73.9339C681.559 73.9166 683.482 74.2809 685.237 75.0268C687.03 75.7344 688.559 76.7674 689.825 78.1257C691.091 79.484 692.074 81.1298 692.774 83.0631C693.512 84.9581 693.891 87.0841 693.911 89.4413ZM686.839 89.4997C686.815 86.5343 686.149 84.2015 684.842 82.5013C683.573 80.7628 681.798 79.903 679.517 79.9218C677.236 79.9407 675.456 80.8299 674.178 82.5894C672.938 84.3106 672.33 86.654 672.354 89.6194C672.379 92.6229 673.026 94.9939 674.295 96.7324C675.602 98.4705 677.396 99.3302 679.677 99.3114C681.958 99.2925 683.719 98.4035 684.959 96.6442C686.237 94.8847 686.864 92.5032 686.839 89.4997Z" fill="#353541"/>
<path d="M718.863 88.4937C718.838 85.3761 718.42 83.1363 717.61 81.7743C716.838 80.3739 715.388 79.6825 713.259 79.7C712.498 79.7063 711.662 79.7703 710.751 79.8919C709.839 80.0135 709.156 80.1142 708.7 80.194L708.899 104.26L701.999 104.317L701.76 75.4606C703.088 75.0694 704.814 74.694 706.941 74.3342C709.105 73.9741 711.385 73.7842 713.78 73.7644C715.833 73.7474 717.508 73.9998 718.805 74.5213C720.14 75.0426 721.248 75.7368 722.13 76.604C722.546 76.2964 723.075 75.9689 723.719 75.6214C724.362 75.2739 725.082 74.9637 725.878 74.691C726.674 74.3803 727.508 74.1262 728.381 73.9289C729.292 73.7313 730.204 73.6287 731.116 73.6212C733.435 73.602 735.339 73.9285 736.828 74.6005C738.354 75.2343 739.54 76.156 740.386 77.3657C741.271 78.5371 741.872 79.9769 742.19 81.6852C742.546 83.3552 742.732 85.1977 742.749 87.2127L742.888 103.979L735.987 104.036L735.858 88.3533C735.832 85.2357 735.433 82.9958 734.661 81.6334C733.889 80.233 732.42 79.5417 730.253 79.5596C729.15 79.5687 728.106 79.7675 727.121 80.1558C726.135 80.5062 725.397 80.8544 724.905 81.2007C725.217 82.1487 725.435 83.1544 725.558 84.218C725.681 85.2816 725.747 86.4217 725.757 87.6383L725.893 104.119L718.993 104.176L718.863 88.4937Z" fill="#353541"/>
<path d="M455.217 113.684C454.099 113.694 452.939 113.62 451.738 113.465C450.578 113.35 449.459 113.173 448.38 112.934C447.344 112.735 446.39 112.515 445.519 112.274C444.647 111.992 443.983 111.728 443.525 111.484L444.963 105.076C445.835 105.483 447.102 105.949 448.762 106.473C450.421 106.956 452.472 107.187 454.914 107.167C458.184 107.14 460.539 106.5 461.977 105.246C463.415 103.951 464.125 102.248 464.108 100.137C464.097 98.7711 463.798 97.6352 463.211 96.7294C462.665 95.8232 461.893 95.1052 460.895 94.5753C459.939 94.0037 458.818 93.6197 457.533 93.4233C456.289 93.1852 454.964 93.072 453.556 93.0836L451.011 93.1047L450.96 87.0201L454.065 86.9945C455.017 86.9866 455.968 86.896 456.919 86.7225C457.91 86.5074 458.798 86.1689 459.58 85.7071C460.363 85.2039 460.999 84.557 461.489 83.7665C461.979 82.9759 462.219 81.9598 462.209 80.718C462.201 79.7246 462.008 78.8777 461.629 78.1771C461.251 77.4765 460.749 76.9011 460.125 76.4509C459.541 76.0004 458.856 75.6749 458.068 75.4745C457.279 75.274 456.451 75.1774 455.582 75.1846C453.719 75.2 452.066 75.5034 450.622 76.0948C449.178 76.6449 447.9 77.2764 446.788 77.9893L444.01 72.424C444.586 72.0467 445.287 71.6476 446.111 71.2269C446.935 70.8061 447.843 70.4054 448.833 70.0247C449.865 69.6436 450.959 69.3448 452.116 69.1282C453.273 68.8703 454.493 68.736 455.777 68.7254C458.177 68.7056 460.249 68.9782 461.992 69.5434C463.736 70.1085 465.171 70.9245 466.297 71.9915C467.465 73.0167 468.323 74.2514 468.873 75.6956C469.464 77.0982 469.767 78.648 469.781 80.345C469.797 82.3318 469.253 84.1163 468.149 85.6984C467.086 87.2801 465.688 88.4921 463.957 89.3343C466.198 90.1023 468.051 91.3909 469.515 93.2001C471.02 95.0091 471.784 97.3415 471.808 100.198C471.824 102.102 471.507 103.884 470.859 105.545C470.21 107.165 469.207 108.581 467.851 109.792C466.495 110.963 464.764 111.908 462.659 112.629C460.595 113.309 458.114 113.66 455.217 113.684Z" fill="#353541"/>
<path d="M493.18 91.5144C491.98 91.5243 490.822 91.6374 489.706 91.8536C488.59 92.0698 487.578 92.3886 486.671 92.81C486.632 93.1415 486.594 93.5144 486.556 93.9286C486.559 94.3011 486.562 94.6737 486.565 95.0462C486.579 96.7018 486.696 98.2739 486.915 99.7622C487.175 101.209 487.579 102.489 488.126 103.602C488.715 104.673 489.488 105.536 490.445 106.191C491.444 106.803 492.667 107.104 494.116 107.092C495.316 107.082 496.328 106.825 497.152 106.321C498.017 105.818 498.715 105.17 499.247 104.379C499.779 103.588 500.165 102.737 500.406 101.824C500.646 100.87 500.763 99.9583 500.756 99.089C500.735 96.6056 500.119 94.7272 498.908 93.454C497.697 92.1394 495.788 91.4929 493.18 91.5144ZM494.062 85.5463C496.628 85.5251 498.804 85.8797 500.59 86.61C502.417 87.2986 503.895 88.2592 505.023 89.4917C506.151 90.7242 506.97 92.1662 507.48 93.8178C508.031 95.4276 508.315 97.1225 508.329 98.9023C508.343 100.517 508.067 102.175 507.501 103.876C506.977 105.578 506.121 107.137 504.932 108.555C503.784 109.93 502.324 111.08 500.552 112.006C498.779 112.89 496.672 113.342 494.23 113.362C489.304 113.403 485.524 111.819 482.89 108.612C480.297 105.364 478.976 100.883 478.929 95.1714C478.895 91.0322 479.465 87.3641 480.639 84.1671C481.854 80.9283 483.57 78.2027 485.787 75.9905C488.045 73.778 490.764 72.0997 493.941 70.9558C497.16 69.7702 500.777 69.1401 504.792 69.0655L505.278 75.2707C503.043 75.3305 500.955 75.5961 499.013 76.0675C497.071 76.4975 495.338 77.1741 493.814 78.0974C492.29 79.0207 490.975 80.2113 489.87 81.6692C488.806 83.1268 487.993 84.9135 487.43 87.0292C489.451 86.0605 491.661 85.5662 494.062 85.5463Z" fill="#353541"/>
<path d="M534.81 99.8011C534.799 98.4352 534.52 97.2164 533.973 96.1446C533.426 95.0729 532.466 94.1702 531.094 93.4364C529.763 92.7023 527.958 92.1584 525.679 91.8047C523.44 91.4506 520.603 91.2878 517.168 91.3162C517.59 87.3388 517.911 83.5693 518.13 80.0076C518.349 76.4045 518.526 72.8017 518.662 69.1993L540.641 69.0177L540.693 75.3506L525.109 75.4793C525.073 76.1833 525.018 76.991 524.943 77.9023C524.909 78.7718 524.854 79.6623 524.779 80.5736C524.745 81.4845 524.69 82.3542 524.614 83.1828C524.538 84.0113 524.461 84.7156 524.383 85.2958C530.512 85.5763 535.035 86.9463 537.953 89.4059C540.912 91.8237 542.409 95.1642 542.444 99.4276C542.46 101.373 542.144 103.176 541.495 104.837C540.847 106.499 539.844 107.935 538.488 109.147C537.132 110.358 535.423 111.324 533.359 112.045C531.295 112.724 528.876 113.076 526.103 113.099C524.985 113.108 523.846 113.034 522.686 112.878C521.526 112.722 520.406 112.525 519.328 112.285C518.292 112.087 517.358 111.867 516.529 111.625C515.699 111.384 515.076 111.161 514.66 110.958L516.036 104.613C516.909 105.02 518.154 105.465 519.773 105.948C521.432 106.39 523.441 106.601 525.801 106.581C527.415 106.568 528.8 106.391 529.956 106.05C531.112 105.668 532.039 105.164 532.738 104.537C533.478 103.91 534.01 103.202 534.335 102.413C534.659 101.582 534.817 100.712 534.81 99.8011Z" fill="#353541"/>
<path fill-rule="evenodd" clip-rule="evenodd" d="M567.025 109.794C557.454 142.777 526.705 167 490.11 167C472.472 167 456.191 161.372 442.985 151.848L429.343 152.296C445.25 167 466.617 176 490.11 176C534.185 176 570.777 144.322 577.868 102.737L567.025 109.794Z" fill="#3796F6"/>
<path d="M485.411 131.489C484.767 129.271 486.765 127.188 489.008 127.739L515.736 134.309C517.979 134.86 518.784 137.633 517.185 139.299L498.131 159.162C496.532 160.828 493.729 160.139 493.085 157.921L485.411 131.489Z" fill="#3796F6"/>
<path fill-rule="evenodd" clip-rule="evenodd" d="M399.11 85.5C399.11 85.7122 399.111 85.9242 399.113 86.1361C383.203 101.803 378.583 115.679 381.734 125.272C384.997 135.202 397.69 143.889 421.314 146.791C441.248 149.24 466.556 147.124 493.49 139.711L495.761 148.42C436.022 164.833 382.521 156.5 373.184 128.081C367.723 111.459 378.5 91.41 399.96 73.1841C399.4 77.2101 399.11 81.3216 399.11 85.5ZM519.61 140.5C578.856 118.446 616.554 80.0667 607.081 51.2349C601.715 34.8999 581.757 25.201 554.411 23.0229C557.508 26.1637 560.373 29.5287 562.979 33.091C584.026 36.4453 595.459 44.6932 598.531 54.044C601.794 63.975 596.726 78.4972 579.426 94.8446C564.794 108.671 543.095 122.007 516.93 132.02L520.023 132.871C522.249 133.483 522.977 136.277 521.333 137.899L519.61 140.5Z" fill="#3796F6"/>
</svg>
