<svg width="219" height="41" viewBox="0 0 219 41" fill="none" xmlns="http://www.w3.org/2000/svg">
<path d="M0 10C0 4.47715 4.47715 0 10 0H31C36.5228 0 41 4.47715 41 10V31C41 36.5228 36.5228 41 31 41H10C4.47715 41 0 36.5228 0 31V10Z" fill="#3796F6"/>
<path d="M60.257 27.5717C58.2282 27.5885 56.6749 27.0371 55.5972 25.9175C54.5314 24.7977 53.99 23.1994 53.9728 21.1226C53.9643 20.0902 54.1188 19.1705 54.4362 18.3635C54.7536 17.5445 55.1922 16.8565 55.7518 16.2996C56.3114 15.7307 56.9801 15.299 57.7581 15.0045C58.536 14.7099 59.3812 14.5588 60.2935 14.5513C60.8217 14.5469 61.3023 14.585 61.7351 14.6654C62.1679 14.7339 62.5468 14.8208 62.8718 14.9262C63.1968 15.0195 63.4677 15.1194 63.6847 15.2256C63.9017 15.3319 64.0584 15.4146 64.155 15.4738L63.3634 17.7495C62.9775 17.5485 62.5259 17.3782 62.0085 17.2384C61.5031 17.0985 60.9263 17.0312 60.278 17.0366C59.8459 17.0402 59.4203 17.1157 59.0013 17.2633C58.5943 17.4107 58.2301 17.6478 57.9087 17.9746C57.5991 18.2893 57.3504 18.6996 57.1625 19.2054C56.9746 19.7111 56.8836 20.3242 56.8895 21.0445C56.8943 21.6207 56.9588 22.1604 57.083 22.6636C57.2191 23.1548 57.4267 23.5792 57.7058 23.9371C57.9969 24.2949 58.3714 24.5799 58.8294 24.7922C59.2873 24.9925 59.8403 25.09 60.4886 25.0847C60.8968 25.0813 61.2627 25.0543 61.5865 25.0036C61.9102 24.9529 62.1979 24.8965 62.4495 24.8343C62.701 24.7602 62.9224 24.6804 63.1138 24.5947C63.3052 24.5091 63.4786 24.4297 63.6341 24.3563L64.427 26.6009C64.0328 26.8442 63.4764 27.0649 62.7577 27.263C62.039 27.461 61.2054 27.5639 60.257 27.5717Z" fill="#353541"/>
<path d="M70.2012 25.3646C70.4653 25.3624 70.7173 25.3543 70.9573 25.3403C71.1973 25.3263 71.3893 25.3067 71.5331 25.2815L71.5163 23.2467C71.4081 23.2236 71.2458 23.2009 71.0295 23.1787C70.8132 23.1565 70.615 23.1461 70.435 23.1476C70.1829 23.1497 69.9429 23.1697 69.7151 23.2076C69.4992 23.2334 69.3076 23.289 69.1402 23.3744C68.9729 23.4598 68.8417 23.575 68.7469 23.7198C68.652 23.8647 68.6055 24.0451 68.6073 24.2612C68.6108 24.6814 68.7513 24.9744 69.0288 25.1402C69.3182 25.2938 69.709 25.3686 70.2012 25.3646ZM69.9202 17.5152C70.7125 17.5086 71.3735 17.5932 71.9032 17.7689C72.4329 17.9446 72.8552 18.1993 73.1701 18.5328C73.4971 18.8663 73.7285 19.2726 73.8645 19.7517C74.0006 20.2308 74.071 20.7644 74.0759 21.3527L74.122 26.9349C73.7385 27.0221 73.2051 27.1226 72.5217 27.2363C71.8384 27.362 71.0106 27.4289 70.0382 27.4369C69.426 27.442 68.8673 27.3926 68.3622 27.2887C67.8691 27.1847 67.4415 27.0141 67.0794 26.777C66.7171 26.5279 66.4383 26.2061 66.243 25.8115C66.0476 25.4169 65.9476 24.9315 65.9428 24.3553C65.9383 23.803 66.0424 23.334 66.2553 22.948C66.4803 22.562 66.7779 22.2534 67.1481 22.0222C67.5184 21.791 67.9432 21.6255 68.4226 21.5255C68.9019 21.4134 69.3997 21.3553 69.9159 21.351C70.264 21.3482 70.5703 21.3636 70.8347 21.3975C71.111 21.4192 71.3334 21.4534 71.5019 21.5L71.4998 21.2479C71.496 20.7917 71.3549 20.4267 71.0765 20.1529C70.7981 19.8791 70.3168 19.745 69.6325 19.7506C69.1763 19.7544 68.7265 19.7941 68.2829 19.8698C67.8392 19.9335 67.4558 20.0267 67.1326 20.1495L66.7727 17.9914C66.9283 17.9421 67.12 17.8925 67.3477 17.8426C67.5873 17.7806 67.845 17.7304 68.1208 17.6921C68.3965 17.6418 68.6843 17.6034 68.9843 17.5769C69.2961 17.5384 69.6081 17.5178 69.9202 17.5152Z" fill="#353541"/>
<path d="M82.5602 20.04C82.3197 19.9819 82.037 19.9242 81.7124 19.8669C81.3877 19.7976 81.0393 19.7644 80.6671 19.7675C80.499 19.7689 80.2951 19.7886 80.0553 19.8266C79.8274 19.8525 79.6536 19.8839 79.5338 19.9209L79.5936 27.1598L76.9106 27.182L76.8365 18.2144C77.3153 18.0424 77.8782 17.8816 78.5253 17.7322C79.1843 17.5707 79.9159 17.4866 80.7202 17.48C80.8643 17.4788 81.0385 17.4893 81.2427 17.5117C81.4469 17.522 81.6512 17.5443 81.8556 17.5786C82.0599 17.601 82.2642 17.6353 82.4687 17.6816C82.6731 17.716 82.8476 17.7625 82.9921 17.8214L82.5602 20.04Z" fill="#353541"/>
<path d="M86.9369 22.0568C86.9493 23.5574 87.5618 24.3027 88.7743 24.2927C89.0504 24.2904 89.3082 24.2522 89.5477 24.1782C89.7872 24.1042 89.9906 24.0185 90.1579 23.9211L90.1224 19.6353C89.9902 19.6124 89.834 19.5957 89.6538 19.5852C89.4735 19.5627 89.2634 19.5524 89.0233 19.5544C88.315 19.5602 87.7887 19.7987 87.4444 20.2698C87.1001 20.7408 86.931 21.3365 86.9369 22.0568ZM92.8572 25.8617C92.87 27.4103 92.4833 28.56 91.6971 29.3109C90.923 30.0737 89.7137 30.4618 88.069 30.4754C87.4928 30.4802 86.9161 30.4309 86.339 30.3276C85.7619 30.2364 85.2266 30.1087 84.733 29.9447L85.1826 27.6899C85.6042 27.8545 86.0435 27.983 86.5004 28.0752C86.9694 28.1674 87.498 28.2111 88.0863 28.2062C88.8546 28.1998 89.3934 28.0273 89.7028 27.6886C90.0241 27.3498 90.1826 26.9163 90.1782 26.3881L90.1754 26.0459C89.8884 26.1804 89.5891 26.2849 89.2776 26.3595C88.978 26.422 88.6481 26.4547 88.2879 26.4577C86.9794 26.4685 85.9738 26.0926 85.2712 25.3301C84.5685 24.5555 84.2113 23.472 84.1998 22.0794C84.1941 21.3831 84.2969 20.752 84.5083 20.186C84.7197 19.6079 85.0277 19.1132 85.4325 18.7016C85.8493 18.29 86.3569 17.9736 86.9554 17.7526C87.5538 17.5195 88.2311 17.3999 88.9874 17.3936C89.3115 17.391 89.6418 17.4062 89.9782 17.4395C90.3266 17.4606 90.669 17.4938 91.0055 17.539C91.3421 17.5843 91.6607 17.6417 91.9614 17.7112C92.274 17.7687 92.5507 17.8324 92.7914 17.9025L92.8572 25.8617Z" fill="#353541"/>
<path d="M104.564 22.1993C104.57 22.9436 104.468 23.6287 104.257 24.2548C104.046 24.8688 103.738 25.3996 103.333 25.8472C102.929 26.2827 102.439 26.6229 101.865 26.8678C101.303 27.1125 100.668 27.2378 99.9594 27.2437C99.2631 27.2494 98.6259 27.1346 98.0477 26.8993C97.4815 26.6639 96.9925 26.3318 96.5808 25.903C96.1689 25.4621 95.8464 24.9366 95.6133 24.3262C95.38 23.7038 95.2603 23.0205 95.2542 22.2762C95.248 21.5319 95.3565 20.8527 95.5795 20.2385C95.8145 19.6243 96.1344 19.0994 96.5389 18.6639C96.9555 18.2282 97.445 17.888 98.0072 17.6433C98.5815 17.3984 99.2047 17.2732 99.877 17.2676C100.561 17.262 101.187 17.3769 101.753 17.6123C102.331 17.8477 102.826 18.1797 103.238 18.6085C103.649 19.0373 103.972 19.5569 104.205 20.1673C104.438 20.7776 104.558 21.455 104.564 22.1993ZM101.827 22.2219C101.82 21.3935 101.647 20.7467 101.307 20.2813C100.978 19.8037 100.508 19.5675 99.896 19.5726C99.2838 19.5776 98.8116 19.8217 98.4794 20.3046C98.1472 20.7756 97.9844 21.4252 97.9913 22.2536C97.9981 23.0819 98.1717 23.7408 98.5119 24.2302C98.852 24.7076 99.3281 24.9438 99.9404 24.9387C100.553 24.9337 101.019 24.6897 101.339 24.2069C101.671 23.7119 101.834 23.0502 101.827 22.2219Z" fill="#353541"/>
<path opacity="0.5" d="M19.0879 17.03C19.7783 16.5442 20.6993 16.5442 21.3897 17.03L32.1537 24.6037C33.2856 25.4001 33.286 27.0777 32.1544 27.8746L21.3904 35.4551C20.6997 35.9415 19.7779 35.9415 19.0872 35.4551L8.3231 27.8746C7.19158 27.0777 7.19194 25.4001 8.3238 24.6037L19.0879 17.03Z" fill="white"/>
<path opacity="0.5" d="M19.0879 6.02997C19.7783 5.54422 20.6993 5.54421 21.3897 6.02997L32.1537 13.6037C33.2856 14.4001 33.286 16.0777 32.1544 16.8746L21.3904 24.4551C20.6997 24.9415 19.7779 24.9415 19.0872 24.4551L8.3231 16.8746C7.19158 16.0777 7.19194 14.4001 8.3238 13.6037L19.0879 6.02997Z" fill="white"/>
<path opacity="0.1" fill-rule="evenodd" clip-rule="evenodd" d="M26.6641 20.7411L21.3904 24.4551C20.6997 24.9415 19.7779 24.9415 19.0872 24.4551L13.8135 20.7411L19.0879 17.03C19.7783 16.5442 20.6993 16.5442 21.3897 17.03L26.6641 20.7411Z" fill="white"/>
<path opacity="0.3" fill-rule="evenodd" clip-rule="evenodd" d="M7.48047 15H7.48886C7.48545 15.0287 7.48265 15.0575 7.48047 15.0863V15ZM7.48047 26.0863V15.3924C7.52331 15.9584 7.80418 16.5091 8.3231 16.8746L13.8134 20.7411L8.3238 24.6037C7.80446 24.9691 7.52333 25.52 7.48047 26.0863ZM32.998 26.3789L33 26.3789V26.3469C32.9994 26.3576 32.9988 26.3682 32.998 26.3789ZM33 26.1318V15.3469C32.9691 15.9288 32.6873 16.4993 32.1544 16.8746L26.6641 20.7411L32.1537 24.6037C32.687 24.9789 32.9691 25.5497 33 26.1318ZM33 15V15.1318C32.9977 15.0878 32.9939 15.0438 32.9887 15H33Z" fill="white"/>
<path d="M118.422 22.7259C118.407 20.9972 117.764 20.1381 116.491 20.1486C116.215 20.1509 115.939 20.1892 115.664 20.2635C115.4 20.3377 115.185 20.4295 115.018 20.539L115.058 25.4189C115.19 25.4418 115.359 25.4645 115.563 25.4868C115.767 25.4971 115.989 25.5013 116.229 25.4993C116.962 25.4932 117.512 25.2366 117.88 24.7293C118.248 24.222 118.428 23.5542 118.422 22.7259ZM121.159 22.7753C121.165 23.5316 121.057 24.2168 120.834 24.8309C120.623 25.445 120.309 25.9698 119.893 26.4055C119.476 26.8411 118.963 27.1815 118.352 27.4267C117.742 27.6598 117.047 27.7796 116.266 27.7861C115.942 27.7887 115.6 27.7736 115.239 27.7405C114.891 27.7194 114.543 27.6863 114.194 27.6411C113.858 27.5959 113.533 27.5445 113.22 27.4871C112.908 27.4176 112.631 27.3479 112.39 27.2778L112.281 14.0425L114.96 13.5882L114.999 18.3061C115.298 18.1715 115.61 18.0669 115.933 17.9922C116.257 17.9175 116.605 17.8786 116.977 17.8755C117.649 17.87 118.244 17.9851 118.762 18.2209C119.281 18.4448 119.715 18.7713 120.067 19.2006C120.419 19.6299 120.687 20.1499 120.872 20.7607C121.057 21.3595 121.153 22.031 121.159 22.7753Z" fill="#3796F6"/>
<path d="M132.441 22.6641C132.447 23.4084 132.345 24.0935 132.134 24.7196C131.923 25.3336 131.615 25.8644 131.21 26.3119C130.806 26.7475 130.316 27.0877 129.742 27.3326C129.18 27.5773 128.545 27.7026 127.836 27.7085C127.14 27.7142 126.503 27.5994 125.925 27.3641C125.358 27.1287 124.869 26.7965 124.458 26.3677C124.046 25.9269 123.723 25.4014 123.49 24.791C123.257 24.1686 123.137 23.4853 123.131 22.741C123.125 21.9967 123.233 21.3175 123.456 20.7033C123.692 20.0891 124.011 19.5642 124.416 19.1287C124.833 18.693 125.322 18.3528 125.884 18.1081C126.458 17.8632 127.082 17.738 127.754 17.7324C128.438 17.7268 129.064 17.8417 129.63 18.0771C130.208 18.3124 130.703 18.6445 131.115 19.0733C131.526 19.5021 131.849 20.0217 132.082 20.6321C132.315 21.2424 132.435 21.9198 132.441 22.6641ZM129.704 22.6867C129.697 21.8583 129.524 21.2115 129.184 20.7461C128.855 20.2685 128.385 20.0323 127.773 20.0374C127.161 20.0424 126.689 20.2864 126.356 20.7694C126.024 21.2404 125.861 21.89 125.868 22.7184C125.875 23.5467 126.049 24.2056 126.389 24.695C126.729 25.1724 127.205 25.4086 127.817 25.4035C128.43 25.3985 128.896 25.1545 129.216 24.6716C129.548 24.1767 129.711 23.515 129.704 22.6867Z" fill="#3796F6"/>
<path d="M143.739 22.5707C143.745 23.315 143.643 24.0002 143.432 24.6262C143.221 25.2402 142.913 25.771 142.509 26.2186C142.104 26.6541 141.615 26.9943 141.04 27.2392C140.478 27.484 139.843 27.6093 139.135 27.6151C138.438 27.6209 137.801 27.5061 137.223 27.2707C136.657 27.0353 136.168 26.7032 135.756 26.2744C135.344 25.8336 135.022 25.308 134.788 24.6976C134.555 24.0753 134.435 23.3919 134.429 22.6476C134.423 21.9033 134.532 21.2241 134.755 20.61C134.99 19.9957 135.31 19.4709 135.714 19.0353C136.131 18.5997 136.62 18.2595 137.182 18.0147C137.757 17.7698 138.38 17.6446 139.052 17.6391C139.736 17.6334 140.362 17.7483 140.928 17.9838C141.506 18.2191 142.001 18.5512 142.413 18.98C142.825 19.4088 143.147 19.9283 143.38 20.5387C143.613 21.1491 143.733 21.8264 143.739 22.5707ZM141.002 22.5933C140.995 21.765 140.822 21.1181 140.482 20.6527C140.154 20.1752 139.683 19.939 139.071 19.944C138.459 19.9491 137.987 20.1931 137.655 20.6761C137.322 21.147 137.16 21.7967 137.166 22.625C137.173 23.4533 137.347 24.1122 137.687 24.6016C138.027 25.0791 138.503 25.3152 139.116 25.3102C139.728 25.3051 140.194 25.0612 140.514 24.5783C140.846 24.0833 141.009 23.4217 141.002 22.5933Z" fill="#3796F6"/>
<path d="M148.85 21.2319C149.112 20.9416 149.379 20.6392 149.653 20.3248C149.938 20.0103 150.212 19.7019 150.474 19.3996C150.735 19.0853 150.979 18.7891 151.205 18.5111C151.442 18.233 151.645 17.9912 151.811 17.7858L154.998 17.7594C154.368 18.497 153.75 19.2044 153.143 19.8818C152.548 20.547 151.894 21.2367 151.179 21.951C151.542 22.2721 151.917 22.6592 152.305 23.1122C152.693 23.5532 153.069 24.0123 153.433 24.4895C153.797 24.9668 154.131 25.4442 154.435 25.9219C154.739 26.3997 154.995 26.8357 155.203 27.2302L152.123 27.2557C151.929 26.9451 151.704 26.6048 151.449 26.2348C151.205 25.8526 150.944 25.4766 150.665 25.1067C150.386 24.7248 150.088 24.3611 149.773 24.0155C149.47 23.6699 149.168 23.3782 148.866 23.1406L148.9 27.2823L146.217 27.3045L146.105 13.763L148.785 13.3087L148.85 21.2319Z" fill="#3796F6"/>
<path d="M159.688 27.1932L157.005 27.2153L156.927 17.7435L159.61 17.7213L159.688 27.1932ZM159.839 14.9821C159.844 15.4743 159.685 15.8658 159.363 16.1566C159.053 16.4353 158.682 16.5764 158.25 16.58C157.818 16.5836 157.438 16.4487 157.112 16.1752C156.797 15.8897 156.638 15.5008 156.634 15.0086C156.63 14.5164 156.783 14.131 157.093 13.8523C157.415 13.5615 157.792 13.4143 158.224 13.4107C158.656 13.4072 159.029 13.5482 159.344 13.8337C159.67 14.1071 159.835 14.4899 159.839 14.9821Z" fill="#3796F6"/>
<path d="M162.495 18.0216C162.95 17.8858 163.537 17.7609 164.257 17.6469C164.976 17.5209 165.732 17.4546 166.524 17.4481C167.328 17.4414 167.996 17.544 168.526 17.7557C169.067 17.9553 169.496 18.2459 169.811 18.6275C170.127 19.0091 170.353 19.4634 170.489 19.9905C170.625 20.5177 170.696 21.1054 170.702 21.7536L170.746 27.1018L168.063 27.124L168.021 22.0999C168.014 21.2356 167.895 20.6243 167.664 20.266C167.433 19.9077 167.005 19.7312 166.381 19.7364C166.189 19.7379 165.985 19.7516 165.769 19.7774C165.553 19.7912 165.361 19.8108 165.193 19.8362L165.254 27.1472L162.571 27.1693L162.495 18.0216Z" fill="#3796F6"/>
<path d="M175.78 22.0178C175.792 23.5184 176.405 24.2637 177.617 24.2537C177.893 24.2514 178.151 24.2133 178.391 24.1392C178.63 24.0652 178.833 23.9795 179.001 23.8821L178.965 19.5963C178.833 19.5734 178.677 19.5567 178.497 19.5462C178.316 19.5237 178.106 19.5134 177.866 19.5154C177.158 19.5212 176.632 19.7597 176.287 20.2308C175.943 20.7018 175.774 21.2975 175.78 22.0178ZM181.7 25.8227C181.713 27.3713 181.326 28.5211 180.54 29.2719C179.766 30.0347 178.557 30.4228 176.912 30.4364C176.336 30.4412 175.759 30.3919 175.182 30.2886C174.605 30.1974 174.07 30.0697 173.576 29.9057L174.026 27.651C174.447 27.8155 174.886 27.944 175.343 28.0362C175.812 28.1284 176.341 28.1721 176.929 28.1672C177.697 28.1609 178.236 27.9883 178.546 27.6496C178.867 27.3108 179.025 26.8773 179.021 26.3491L179.018 26.0069C178.731 26.1414 178.432 26.2459 178.12 26.3205C177.821 26.383 177.491 26.4157 177.131 26.4187C175.822 26.4295 174.817 26.0537 174.114 25.2911C173.411 24.5165 173.054 23.433 173.043 22.0404C173.037 21.3441 173.14 20.713 173.351 20.147C173.563 19.569 173.871 19.0742 174.275 18.6626C174.692 18.251 175.2 17.9347 175.798 17.7136C176.397 17.4806 177.074 17.3609 177.83 17.3547C178.154 17.352 178.485 17.3673 178.821 17.4005C179.169 17.4216 179.512 17.4548 179.848 17.5001C180.185 17.5453 180.504 17.6027 180.804 17.6723C181.117 17.7297 181.394 17.7934 181.634 17.8635L181.7 25.8227Z" fill="#3796F6"/>
<path d="M192.651 13.7896C193.251 13.7847 193.792 13.8672 194.274 14.0373C194.761 14.2014 195.177 14.4351 195.522 14.7384C195.867 15.0357 196.131 15.3876 196.314 15.7943C196.504 16.201 196.6 16.6414 196.604 17.1156C196.608 17.5297 196.563 17.8963 196.469 18.2152C196.382 18.5281 196.249 18.8023 196.071 19.0379C195.899 19.2734 195.684 19.4733 195.428 19.6375C195.177 19.8016 194.89 19.939 194.567 20.0498C195.349 20.2894 195.934 20.6598 196.323 21.1608C196.711 21.6618 196.908 22.2935 196.914 23.0558C196.92 23.7041 196.805 24.2783 196.569 24.7785C196.333 25.2787 196.012 25.7015 195.607 26.047C195.201 26.3865 194.729 26.6455 194.19 26.8241C193.658 27.0026 193.091 27.0943 192.491 27.0992C191.837 27.1047 191.266 27.0343 190.778 26.8883C190.291 26.7422 189.866 26.5237 189.503 26.2325C189.141 25.9414 188.832 25.5838 188.576 25.1597C188.32 24.7356 188.1 24.2452 187.915 23.6884L188.894 23.2751C189.061 23.2017 189.232 23.1643 189.406 23.1629C189.562 23.1616 189.7 23.1934 189.821 23.2585C189.947 23.3235 190.044 23.4187 190.111 23.5442C190.221 23.7534 190.34 23.9595 190.468 24.1626C190.601 24.3656 190.759 24.5473 190.94 24.7079C191.122 24.8625 191.333 24.9898 191.574 25.0899C191.821 25.1839 192.112 25.2295 192.448 25.2267C192.826 25.2236 193.156 25.1608 193.437 25.0385C193.718 24.9101 193.951 24.7461 194.135 24.5465C194.326 24.3468 194.465 24.1265 194.553 23.8857C194.647 23.6388 194.693 23.3923 194.691 23.1462C194.689 22.8341 194.653 22.5522 194.585 22.3007C194.517 22.0431 194.377 21.8252 194.166 21.6468C193.954 21.4685 193.65 21.3299 193.253 21.2312C192.862 21.1324 192.336 21.0857 191.676 21.0911L191.663 19.5065C192.209 19.496 192.662 19.4412 193.021 19.3422C193.38 19.2432 193.664 19.1088 193.873 18.939C194.088 18.7631 194.236 18.5548 194.318 18.314C194.4 18.0732 194.44 17.8088 194.438 17.5206C194.432 16.9024 194.261 16.4386 193.922 16.1292C193.583 15.8139 193.123 15.6586 192.54 15.6634C192.012 15.6678 191.575 15.8125 191.229 16.0975C190.883 16.3765 190.643 16.7356 190.509 17.1749C190.439 17.4036 190.341 17.5695 190.216 17.6726C190.091 17.7697 189.926 17.819 189.722 17.8207C189.626 17.8215 189.524 17.8134 189.415 17.7962L188.243 17.5988C188.328 16.9738 188.498 16.4262 188.752 15.9559C189.006 15.4795 189.324 15.0837 189.706 14.7684C190.093 14.4471 190.535 14.2063 191.032 14.0461C191.535 13.8799 192.075 13.7944 192.651 13.7896Z" fill="#353541"/>
<path d="M203.903 18.73C204.396 18.726 204.874 18.8031 205.337 18.9613C205.807 19.1195 206.22 19.3622 206.577 19.6894C206.933 20.0106 207.222 20.4134 207.442 20.8978C207.662 21.3822 207.775 21.9486 207.78 22.5968C207.785 23.2031 207.679 23.7742 207.461 24.3103C207.244 24.8403 206.935 25.3051 206.536 25.7046C206.137 26.1041 205.654 26.4202 205.085 26.653C204.523 26.8858 203.9 27.005 203.216 27.0106C202.519 27.0164 201.894 26.9105 201.34 26.693C200.786 26.4754 200.312 26.1702 199.919 25.7773C199.525 25.3783 199.221 24.9006 199.007 24.3441C198.798 23.7816 198.691 23.1582 198.685 22.4739C198.68 21.8617 198.798 21.2334 199.039 20.5891C199.285 19.9387 199.667 19.2633 200.183 18.5627L203.255 14.3683C203.362 14.2234 203.517 14.099 203.72 13.9953C203.93 13.8915 204.169 13.8385 204.439 13.8363L206.42 13.8199L202.597 18.5788C202.513 18.6815 202.433 18.7782 202.356 18.8689C202.285 18.9595 202.213 19.0531 202.142 19.1498C202.393 19.0216 202.662 18.9204 202.95 18.846C203.243 18.7715 203.561 18.7329 203.903 18.73ZM200.822 22.7984C200.825 23.1585 200.875 23.4883 200.974 23.7876C201.078 24.0809 201.227 24.3318 201.421 24.5403C201.621 24.7487 201.866 24.9118 202.155 25.0294C202.444 25.1411 202.777 25.1954 203.155 25.1923C203.51 25.1893 203.833 25.1266 204.126 25.0042C204.426 24.8816 204.679 24.7114 204.888 24.4936C205.102 24.2758 205.268 24.0223 205.385 23.7332C205.503 23.438 205.56 23.1194 205.558 22.7773C205.555 22.4051 205.495 22.0725 205.378 21.7793C205.262 21.4801 205.098 21.2293 204.886 21.027C204.674 20.8186 204.421 20.6617 204.126 20.5561C203.831 20.4504 203.506 20.3991 203.152 20.402C202.798 20.405 202.477 20.4676 202.19 20.5901C201.903 20.7125 201.655 20.8826 201.447 21.1004C201.245 21.3122 201.088 21.5656 200.976 21.8607C200.87 22.1497 200.819 22.4623 200.822 22.7984Z" fill="#353541"/>
<path d="M217.549 14.6734C217.551 14.9915 217.452 15.2505 217.249 15.4503C217.053 15.65 216.72 15.7518 216.252 15.7556L212.669 15.7852L212.223 18.5082C212.81 18.3833 213.347 18.3188 213.833 18.3148C214.517 18.3092 215.118 18.4062 215.636 18.6061C216.16 18.8058 216.601 19.0843 216.958 19.4415C217.315 19.7988 217.586 20.2197 217.77 20.7044C217.954 21.1831 218.048 21.7016 218.053 22.2598C218.058 22.9501 217.941 23.5814 217.699 24.1536C217.464 24.7259 217.132 25.2178 216.703 25.6296C216.274 26.0353 215.763 26.3517 215.171 26.5787C214.585 26.8056 213.943 26.922 213.247 26.9277C212.839 26.9311 212.451 26.8923 212.084 26.8113C211.718 26.7303 211.372 26.6221 211.046 26.4867C210.727 26.3453 210.429 26.1857 210.151 26.0079C209.879 25.824 209.635 25.631 209.417 25.4287L210.093 24.4776C210.236 24.2723 210.427 24.1687 210.667 24.1667C210.817 24.1655 210.967 24.2123 211.118 24.3071C211.275 24.4018 211.456 24.5054 211.661 24.6177C211.866 24.7301 212.104 24.8332 212.375 24.927C212.646 25.0208 212.973 25.0661 213.358 25.0629C213.766 25.0596 214.125 24.9906 214.436 24.8559C214.747 24.7213 215.004 24.5361 215.206 24.3003C215.414 24.0585 215.568 23.7751 215.667 23.4501C215.773 23.1191 215.824 22.7615 215.821 22.3773C215.815 21.669 215.603 21.1185 215.186 20.7258C214.774 20.327 214.169 20.1309 213.371 20.1375C212.741 20.1427 212.108 20.262 211.474 20.4953L210.084 20.1106L211.112 13.7811L217.541 13.728L217.549 14.6734Z" fill="#353541"/>
</svg>
