<svg xmlns="http://www.w3.org/2000/svg" width="1187" height="700" fill="none">
  <g clip-path="url(#clip0)">
    <g fill="#fff" opacity=".35">
      <path d="M1185.35 639.3c-4.89 2.9-7.29 8.08-10.87 12.17-2.09 2.4-3.3 3.3-7.08 3.3-1.1-2.4.6-3.7 1.59-4.5 2.47-3.99-2.29-5.49-1.79-8.78a7.78 7.78 0 014.78-3.79c-.49-3.4 1.9-6.29 1.4-9.68a37.3 37.3 0 00-2.47-9.28c.21-1.3 1.2-1.9 2.3-2.48 2.59.2 2.19 3 3.78 4.2-.1 1.37-.1 2.75 0 4.12.21 1.4-1.89 1.7-1.19 3.2.7 1.49 2.19.2 3.19.82.22.23.37.54.4.86.04.33-.03.66-.2.94 1.79 1.7 2.89 2.8 4.59 4.39.39.1.6-1.7 1.69-1.4-.09 1.9-.09 3.99-.09 5.99l-.03-.09zM578.31 245.7c1.59-1 3.68-1.3 4.94-3.4-3.69-3.99-4.28-9.58-6.38-14.06l-5.68 5.69c-2.6-.9-4 .9-5.99 1.1-1.5-.83-3.3-1-4.89-2.8.3-1.9-1.64-3.6-1.49-6.49.7-.4 1.7-1.1 2.7-1.8-1.2-1.2-2-2.1-2.9-2.99.7-2.7-.82-4.8-2.09-7.19 4.95-2.47 8.97-6.98 14.16-9.58.5-.3 1.2-.83 1.3-1.3.9-4.49 4.68-6.68 6.88-9.28 1.79-4.19.89-8.88 4.38-11.48 3.1-2.29 2-7.78 7.18-8.18-1.1-1.6-2.7-.2-3.5-1.2a1.51 1.51 0 010-1.69c1.31-1 3.1.3 4.4-.82 1-1.6-1.7-2.2-1-3.8 1.2-1.4 3 0 4.39-.82.3-.7.5-1.3.9-2.2 2.7-.2 5.77.6 7.88-2-.3-.4-.7-.82-1.2-1.49h5.39c2.8-2.6 4.88-5.59 8.67-6.3 1.5.9-.9 1.31-.2 2.11 2.3-.5 2.3-.5 5.09-3.2 1.6.6 1.7 2.4 2.6 3.5.39-.4.9-.83 1.64-1.5 1.5 2.2 4.89.6 6.3 3.8.19 2.2-2.3 2.2-3.6 3.29 2.8 1.8 4.98-.9 7.41-.7 1.5.7 2.8 1.5 2.4 3.09 2 1.7 3.2-.3 5-.1 3.93.63 7.7 2.06 11.05 4.2 2.48 1.59 4.95 3.48 8.19 3.68 2.59.2 1.99 3.2 3.68 4.13v6.3c-.9.82-2 1.7-3.3 2.89-2.47.4-5.48-.6-8.58.9-3.3-2.48-8.17-2.1-12.05-4.29 1.1 2.2 3.09 2.9 5.48 3.8.4 6.48 3.48 11.37 10.66 12.96l-3.93-3.9c-.7-.9-.2-1.9-.3-2.9l1.9-1.89 8.24 4c2.09-2.6-1.2-4.2-.83-5.59l7.29-7.29c1.1 1.1 2.99.4 4.68.6 1.1-2.47-1.2-2.89-2-4.4.1-1.69.1-3.38 0-5.08-.2-1.5-1.89-2.6-1.1-4.5 1.3-1.6 4 .61 5.6-2.19.3 2.4 1.65 3.6 2.78 4.69.3 2.3-2.29 2.47-2.29 3.2-.2 2.2 1.1 2.47 1.6 3.39h4.29c2.7-6.29 8.57-9.28 13.86-12.87 1.2-.83 2.69-.3 4-.2.69.4.49 1.1.49 1.59a1.52 1.52 0 001.52.8c.2-.03.4-.1.57-.2 2.6-2.47 6.78-1.5 9.17-4.4.83-.9 1.9-.1 2.7-.39 1.2.5.2 2.2 1.9 2.47 1.49-.6 2.88-1.4 2.19-4.59-1.4-3.8-8.24-3-9.58-8.29 4.19-.6 5.99.3 7.98 4 3.4-2.1 7.08-.4 10.47-1.1 4.79 3.19 10.57 3.99 14.84 7.59.9-1 1.1-1.7.4-2.4l-3.89-3.9c-2.2.21-4.19-.3-4.19-2.89 0-3.3-1.7-5.38-3.5-7.38-1.09-3.4 1.5-5.59 2.4-8.68-1.3-2.6-2.48-5.5.9-8.89 1.4-.27 2.75-.77 3.99-1.5 2.07.28 4 1.22 5.49 2.7.49 2.8 2.47 5.49 1.39 8.88 3.89 2.7 5.09 6.79 6.28 10.78 1.3 4.3 3.19 8.25 7.58 10.58.83 5.69-.82 10.78-4.12 15.77 1.8-.1 3.2.5 3.88-.82 1.3-2.3 2.48-4.6 3.7-6.79-.45-.52-.9-1.02-1.4-1.5 1.4-.9 1.3-2.3 1.2-3.7a32.8 32.8 0 00-3.3-2.99c.1-2.09 2.6-2.47 3.3-5.08-1.5.6-2.6 1-3.8 1.49-4.48-2.69-5.08-7.08-4.58-11.54l-5.77-5.77c-1.29-3 .6-5.1 1.9-7.89-.1-.6-2-1.2-.5-2.7.3 0 1.1-.2 1.4 0 .82.83 2.1 1.4 1.69 2.9-.5 2.1 1.1 3.6 1.7 5.4 1.49-1.31.2-3 .9-4.4 1.8-2.1 2.47 2 4.18.7.5-.3.4-.5.3-.9-.5-2-3.2-2.4-3.49-4.4 1.4-1.49 2.2-.39 3.1.5.39-.4.9-.82 1.19-1.09 5.28.5 9.27 5.39 14.96 4.39-3.3-1.1-5.38-4.19-8.98-4.8-1.1-.19-2.39-1.79-2.99-3.48-.6-1.69-1.7-3.3-2.7-5.2 4.7-4.18 11.38-3.48 16.26-7.42-1.59-.82-3.09-1.39-4.58-2.19-.5-1.1-1.1-2.2-1.6-3.5.6-1.78 3.4-2.47 2.47-4.94 1.9-4 4.58-7.08 9.47-8.48-.2-2 .83-3.8 2.6-5.2 1.59-1.3 4.12.4 4.78-1.89 2.1.1.5 2.7 2.6 2.4 3.58-1.4 4.58-5.49 7.18-7.99.3-1.8-1.7-2.1-2.48-4.59-.2-2.9-.1-6.88 2.7-10.18 2.6-1.1 4.6.6 6.88 1.3.1.9.2 1.9.3 3.1h5.28c4.12 1.29 2.7 4.11 3.3 5.98 2.1-.4.3-2.3 1.4-3 1.8-2.09 4.8-2.19 6.6-3.89 4.49.7 6.88 5.4 11.67 4.8 3.49 1.4 2.7 5.88 5.58 7.78a11.7 11.7 0 01-1.65 8.89c-1.8 2.99-1.7 5.88-1.9 9.48a10.18 10.18 0 00-3.4 5.08c.41.83 1.6.1 2.4.3 2.4-1.2 3.3-3.49 4.4-5.69-.7-.3-1.4-.5-2-.7-.7-1.69.7-2.2 1.3-3 1.89-1.39 3.58 1.6 5.48 0 .1.51.3 1.11.5 2.01 2-1.7 4.29-.9 6.48-1.2l2.4-2.4c3.18 1.2 6.08-1.6 9.46-1.19 1.6.7 1.9 2.3 2.7 3.69 4.19-.5 8.68 1.1 12.56-1.65 1.2-2.3-2-3.9-1-6.3l4.2-2.09c3.49 3.8 7.18-1.2 11.27.7 1.3 1.8 4.19 3.1 4.95 5.9.75 2.79 5.08 1.79 4.94 4.98-.4 1.4-2 .5-2.59 1.8 4.8 1.2 8.25 4.94 12.76 6.6 2-3.1-1.1-5.4-.5-8.4h7.68c.7-.9 1.3-1.7 1.8-2.29a6.92 6.92 0 016.18.7c1.4-1.5 2.7-2.9 4.5-4.7-.41-2.58-3.3-3.79-5.9-5.18a5.01 5.01 0 013.6-2.4c-.2-1.3-1.4-1.65-2.1-2.69.5-.5 1-1.1 1.6-1.7h19.25c4.12-3.2 7.98-3.69 11.76.4-.2.9-1.65 1.2-.82 2.7 0 0 .3.4.59.4 2.3-.4 4.5 1.1 6.98.1 1.7-.7 3.1 1.2 4.6 2 .99.49 1.39 2.19 3.18 1.59a45.24 45.24 0 0114.46-6.89c2.63.8 5.17 1.87 7.58 3.2 1.89 1.1 3.39 2.2 3.79 4.68.6 2.9 1.7 3 5.18 1.5.6.4 1.2.83 1.7 1.1 2-.4 2.59-1.8 2.99-3.39 4.29-.6 8.18-3.2 12.86-2.6V76.4c1.31-1.3 3.4-.9 6.19 1v3.79c2.48 1.2 4.95 1.8 6.78 4.5.7-.9 1.19-1.6 1.89-2.48-.6-2.2-2.69-3.3-4.18-4.8-1.49-1.48-2.29-3.49-3.3-5.48.82-2.1 3.78.3 4.29-2.1.41.35.81.71 1.19 1.1 1.39.5 1.8-.83 2.7-1.1 3.99-1.6 8.17-1.1 12.26-1.2 3.89-.1 7.78-.1 11.27 2a2.18 2.18 0 001.7.4c6.97-.9 13.76 1.9 19.14 1.3 4.69.7 5.59 3.8 7.48 5.89 2.2-1.7-.99-2.48-.5-3.9 1.1-2.09 3.3-2.6 5.19-3.3 2.59-.99 5.29.41 7.28 1.41 3.49 1.6 5.19 5.09 4.39 9.18-.82.24-1.62.54-2.4.9 1.3 1.2 2.47 2.3 3.79 3.4v4.11l2.29 1v4.13c-2.78 1.29-6.18-1.2-8.67 2.47-1-1.5-1.6-2.6-1.99-3.3h-4.29c-1.1 1.3-1.19 3.49-3.79 3.7-2.39.2-2.6-3.4-5.29-2.3 0 1.3 1.4 1.6 1.9 2.47.82 1.3 2.47.9 3.39 2.1.7.99.1 2.59 1.89 2.79-.5.6-.89 1-1.29 1.5.32.24.62.52.89.82.5 1.1-.89 1.4-1 2.4-.39 4.19-.49 4.19-4.58 5.09 1 2.9 3.59 1.6 5.48 2.1.31 2.69 4.49 2.3 4.19 5.58a15.9 15.9 0 018.18 5.77v5.19h-6.38c-3.1 4.5-6.78 8.58-7.88 13.88-1.4 6.88-1.2 7.68-.1 10.17-.6.6-1.2 1.3-1.59 1.7-2.2.1-2.6-1.6-3.89-2.4h-6.19a85.5 85.5 0 01-2.09 4.5c-1.5.9-2.8.2-3.99-.83-.7 2.1-1.7 3.8-4.39 3.9l1.3 1.3c-.3.59-.7 1.09-1.2 1.89 3.09 3.39-.7 8.88 3.49 12.18 1 .2 1.4-.5 2.19-1.3.83 1.1 1.7 2.2 2.9 3.69v2.6c.7 1.49 2.69 1 3.29 2.39.51 1.2 1.11 2.4 1.9 4-1.59 1.2-4.78 1.39-3.59 5.28 1.59 1.5 3.69 3.6 4.59 6.49.1 1.9-2.1.6-2.59 1.8-.41.9-1.4 1.49-2.19 2.29v3.7c.39 1.09 2.19 1.5 2.39 3.09-.3 2.1-2.39 2.2-3.7 3.3 2 2.89 1.1 6.08 1.31 9.67-1 .7-2.3 1.7-4.2 3 .21 0-.3-.2-.69-.7-.31-.3-.7-.5-.83-.9-2.99-7.28-8.24-13.2-12.46-19.8-1-1.6-4.69-10.37-4.79-12.57-.1-1.2-1.29-1.5-1.29-2.6 1.99-2.79.89-5.99 1.29-9.18 1.1-1.4 3.09-2.39 2.99-3.6.6-1.79-.2-1.89-.7-2.68 2-3.3 1.1-7.29 1.2-11.18.1-4.8.3-5.5 3.69-9.38-1.29-3.9-2.7-7.79-4.79-10.99-.3-1.39.83-1.59 1.1-2.29-1.65-1.6-2.39.3-3.49 1.1 3.99 5.2.82 10.18-.6 15.27h-2.39c-2.8-2.7-2.8-2.7-3.39-5.7-2.89-1.48-5.09 1.2-7.78 1.1-1.7 2.2-1.9 4.6-1.59 7.2.29 3.09-2.2 5.88-1.11 9.18 1.31.7 3 .83 3.5 2.69-2.39 3-4.19 3.89-10.17 5.1-1.5-.5 0-3.2-2.2-3.5h-6.68c-.7.9-.83 2.4-2 3.19-5.88.5-11.17 3.8-17.25 4-1.65.82-1.49 2.99-3.09 4.28 1.1 2.9-1.39 5.5-1.1 8.49.3 3-1.89 4.89-2.69 7.42-.3.9-.89 1.6-.99 2.6-.41 2.78-.9 5.68-3.2 7.78-.9.82-.7 2.2 0 3.2 1.2.6 1.9-.2 2.6-1 1.39 1.29 3.09 2.4 3.39 4.59 1.89 0 3.49 1 5.08 1.49 1.1-1.2.4-2.2.7-3.3 2.89-1.3 5.58-.3 8.18 1.1 2.29 1.2 5.18 2 5.08 5.59v-9.63c3.7 1.7 4.49 5.29 6.89 7.5.1.09.39.29.39.39-.49 5.39 3.8 8.58 6.09 12.67 1.6 2.8 3.29 5.49 4.88 8.19.1 1.8-1.59 2.29-2.39 3.4-.89 4.38 1 7.58 4.13 10.37 1.19 1.1 2.78 2 1.64 4.2-.39 1.19-1.49.6-2.39.7-.89.1-1.29 1.58-2.79 1.09-2.47-2.9-2-7.19-4.12-10.68a22.17 22.17 0 01-2.47-7.42c-.41-2.1-.71-4.3-1.9-5.88-1.2-1.6.1-3.6-2-4.8a5.6 5.6 0 01-2.89-4c-1 7-1.1 7 1.8 12.89 1.59 3.19 2.09 6.88.9 9.67-1.2 2.8.19 5.9-2 8.29-.4.4-.1 1.5-.2 2.3 0 1.89 0 3.79-1.2 5.58-3.3 5.2-4.58 11.68-8.97 15.67-2.69.82-3.99-2-6.29-1-1.69 1.79-3.48 3.69-5.38 5.48l.82.83c-1.29 1.9-.82 3.99-.89 6.49-1.6 1.39-3.39 2.9-4.8 4.12v2.7a28.3 28.3 0 0112.17 19.56c-2.29 3.59-7.18 2.2-9.97 4.89-.89-.82-1.39-1.4-2.2-2.1.2-3.9.1-7.98-1.99-11.88-1.59-1.49-4.28-.82-6.28-3.38v-5.4c-2.3-1.2-4.29-2.47-6.98-1.7-1.8 1.4-3.2 3.7-6.08 5.2-.83-3.5-.1-6.69-.5-9.79-2.2-1.3-3.89-.4-4.69 1.7-1 2.7-4.12 3.7-4.58 6.6-.2 1.5-2.4.3-2.8 2.2 1.2 2.3 3.7 3.68 5.29 5.88h3.27c.1-.7.3-1.2.5-2.2 3.69.1 7.48-1 10.77 2-.3 2.4-1.9 2.9-4.29 2.7-2.1 2.4-5.28 4.3-5.48 7.98.3 3.1 2.47 3 4.48 3.1 1.7 3.99 3.49 7.88 7.69 10.17-.07.5-.17 1-.3 1.5-.2.4-.49.73-.83 1-.6 1.7 1.4 1.8 1.1 3 .2.99-.9 1.19-1.1 1.89l2.2 2.2v7.18c-2.8 3.2-3.9 7.59-5.89 11.38-1 2-3.09 6.39-4.12 7.42-1.4 1.5-3.09 2.47-4.38 4.12-1.1 1.4-3.7 1.7-5.7 2.2-1.58.18-3.19.21-4.78.1-2 2.6-5.09 3.5-7.78 4.79-2.68 1.29-2.99 1.2-4.49 3.79-2.19-.3-2.99-2.48-4.68-3.59-6.78 0-10.07 3.2-10.38 10.18 3.3 3 6.09 6.79 10.17 8.98a6.35 6.35 0 013 4.8c.2 1.71.75 3.37 1.6 4.88 2.09 4.4.59 7.42-2.4 10.28l-3.2 3.2c-.59 0-1.39.1-2.58.1-2 1.99-4.19 4.19-6.6 6.48-1.99-1.49-1-3.19-1.29-4.69-1-1.3-2.1-2.39-4.19-1.8-1.8-2.39-4.28-4.19-6.08-6.98-1.4-2.1-5.58-1.2-7.48-4.5-.6 4.8-3.69 8.5-2.7 13.38 1.3 1.2 2.7 2.6 4.5 4.2.3 1.9.87 3.74 1.69 5.48 2.47 1.2 4.79 2.4 7.18 3.5 1.7 1.9 2.6 3.89 2.3 6.38-.3 2.9 1.89 4.9 2.98 7.29.6 1.2.5 2.2.7 3.3-1.39 1-2.39.82-3.89 0-1.5-.83-2.8-2.2-4.68-1.8-.5-1.9-2.3-2.7-3.5-4a10.53 10.53 0 01-2.68-5.59c-.83-5.39-1.4-5.88-6.6-11.17-1.1-1.1-1.9-2.8-3.3-4.4 1.9-1.99 1.4-4.58 1.4-7.18v-6.98c-3.3-4.8-3.3-10.68-6.38-15.37-1.9 1.2-4.12 1.59-5.09 3.48h-3.73l-1.65-1.7a11.54 11.54 0 00-4.94-10.97l1.49-1.5c-3.39-.1-4.12-3.99-7.18-4.38-.7-2.7-1-5.7-4.19-7.3-1.5 2.8-3.6 4.5-6.68 3.9-2.3-.4-4.13 1-5.99 1.5-.7 1.59-1.4 3.1-1.99 4.38-1.6 1.7-3.4 2.2-5.29 2.8a6.49 6.49 0 01-2.99 4.2c-4.58 3.3-7.58 8.48-13.19 10.77-.12 2.6-.08 5.2.1 7.79.4 3.6-2.1 6.78-1.3 10.38-1.39.9-1.1 2.8-2.47 3.89-2 1.7-3.69 3.6-5.68 5.59-2.3-.83-3.3-3-5.1-4.29-.19-4-2.09-7.42-4.28-10.28a29.4 29.4 0 01-3.69-6.39c-2.1-4.79-4.95-9.19-6.18-14.47-.2-.9-.1-2.47-1.8-3 1.1-4.29-1.89-8.18-.99-12.87-2.4.7-.4 2.3-1.6 3-1.1 1.3-3.39.09-4.38 1.89-3.5-.83-5.5-3.49-7.49-5.39-.4-2.6 2-1.3 2.3-2.6a21.63 21.63 0 01-12.82-10.23c-6.48-.9-12.77 1.9-19.35 1.2-2.1-.28-4.16-.72-6.18-1.3-2-.5-4.12-.5-6.18-1a5.77 5.77 0 01-4.5-3.8c-.2-.5-.82-.9-1.3-1.29-2.58-.4-4.38 1.1-6.37 2.4-1.5.3-2.3-2-4.19-1.3-2.2.82-2.8-1.9-4.4-2.4-1.6-.5-2.58-1.9-4.28-1.2-1.9-2.89-3.3-6.08-6.28-8.48h-3.7c-.49.5-1.19 1.1-1.78 1.7a14.9 14.9 0 003.68 6.08c2.4 2.2 4.95 4.4 5.19 7.69 1.9.82 2.47-1.9 4.59-.6-.1 2.2.1 4.7 1.7 6.7 3.19.99 5.87-2 8.67-1.1 2-2.2 2.47-5 5.38-6.1.5 0 1.3.1 1.9.1 1 1.4.1 2.9.7 4.4 2.29 2.6 4.94 4.69 8.78 3.99 2.09 1.6 2.19 4.39 4.38 5.49-.6 3.99-3.79 5.98-6.08 8.58v3.3c-3.1 2.3-6.28 4.3-8.78 6.78-2.88 2.9-6.88 2-10.27 4.3.1 2.47-2.47 3.6-4.49 3.99-4.18.82-7.58 3.2-11.46 4.7a22.26 22.26 0 01-8.18 1.69c-2 2.3-5.08 1.9-7.28 3.5-.83-.83-1.8-1.3-2.8-.5-1.6-5.6-3.58-10.59-4.11-15.88-5.3-4.79-7.88-12.07-14.36-15.17 0-2-.11-3.49 0-4.89.1-1.9-.9-3.9-2-4.49-3.89-2.4-5.77-6.38-8.17-9.89a64.69 64.69 0 00-5.4-6.39c-1.2 1.1-2.89-.6-4.12 1.3 1.5 2.9 2.6 6.19 4.6 8.78 1.99 2.6 3.09 5.2 2.89 8.3 3.19.39 4.12 2.98 5.68 4.38 2.39 3.5.7 8.09 3.19 11.28 5.18 2 6.28 6.48 7.48 11.47 5.68 1.7 9.18 6.6 14.36 11.18a1.99 1.99 0 01.2 1.8l5.58 5.6c1.8-.61 4.5-1.41 7.18-2.1 4.99-1.3 10.48-.2 14.84-3.8.82.7 1.39 1.2 2 1.8 1.29 4.39-1.8 8.08-2.4 12.57-2.4 1.8-3.6 4.9-5.3 7.6-2.78 4.28-5.37 8.67-10.05 11.67-6.09 3.89-11.48 8.88-16.76 14.01-4.8 4.7-9.48 9.28-11.37 16.67.1.6 1.3 1.1 2.1 2 1.19 3.29-1.8 6.59.1 9.88l3.68 3.4v5.29c0 1.8.7 4.12-.2 5.39-1.3 1.89.7 3.19.1 4.58a18.93 18.93 0 00-1.5 5.1c-7.57 4.38-15.45 8.58-21.14 14.67-1.49 3.19 1.1 5.18.83 7.88-.2 2.4 0 4.79 0 6.78-2.2 4-6.38 4-9.78 6.2.9 3.09-1.89 5.68-1.2 8.78-5.67 5.49-10.07 12.08-15.85 17.26-4.49 4-9.48 6.5-15.56 6.5-2.2 0-4.78-.71-6.6.19-3.48 1.7-7.68.6-10.87 3.2-7.67-5.77-7.87-6-5.68-10.58-.7-2.6-1.8-5-2.6-7.49a32.1 32.1 0 00-5.18-9.38c-1.85-2.43-3-5.34-3.3-8.38-.3-3.3-1.6-6.5-1.19-9.78a1.9 1.9 0 00-.2-1.1 965.7 965.7 0 00-8.18-15.48 5.2 5.2 0 00-1.3-1.29c-.1-4.29 0-8.48 1.5-12.67 1.5-4.2 3.59-7.69 7.18-10.48-1.4-3.6-2.99-7.1-2.7-11.18.2-3.1-1.29-5.89-2.79-8.49a8.56 8.56 0 01-.82-3.3c-4.29-4.79-9.97-8.48-12.06-15.37.89-2.1 2.59-4.19 2.47-7.18-.1-2.7 1.8-5.2.9-8.1l-2.9-2.89h-12.13c-1.2-2.89-2.1-6.28-5.99-6.98-4.94-.9-9.67 1-14.16 3.1-4.12 1.8-8.08 2.4-12.27.5a3.6 3.6 0 00-2.89 0c-.5.2-1 1-1.4.9-3.75-.35-7.5.68-10.56 2.89-3.7-2.2-7.49-4.12-10.77-6.6a41.51 41.51 0 00-4.8-3.3 14.02 14.02 0 01-6.08-7.18c-1.9-4.3-5.38-7.68-9.57-10.18-1.39-.82-2.29-2.2-3.5-3.19v-5.4L479.8 412a30.32 30.32 0 004.78-10.98c.83-4.19-.82-8.28-3.59-11.98.86-3.63 2.5-7.03 4.79-9.97 3.19-3.9 5.58-8.3 8.57-12.28 1-1.4 2.6-1.6 3.6-2.6 2.29-2.2 5.18-3 8.07-4.58.2-1.5 1.65-2.6 2.8-3.7.82-2.6-1.1-5.39 1.4-7.58-.3-3.7 2.38-5.4 4.94-6.6 3.99-1.8 6.6-4.4 7.47-8.99 5.39 2.4 10.78 1.4 15.96 1.6 2.9-2.7 7.08-2.19 9.98-4.98 3.88 1.2 7.47-1.5 11.46-1.2 3.82.41 7.67.38 11.47-.1 2.47-.4 4.79-1.3 7.08-1 1.2 1.1 2.2 2.1 3.3 2.99-.3 2.1-.2 4 1.5 5.59-.94 1.02-1.87 2.06-2.8 3.1.07.44.17.87.3 1.3a9.13 9.13 0 007.48 3.79c3.2.1 5.99 1.6 8.48 1.5 2.2 1.3 1.7 3.78 4.69 4.68h3.58c2.4 1.8 4.4 4.12 7.79 3.8.49-.5 1-1.1 1.9-2v-5c1.37-.88 2.77-1.75 4.18-2.59 3.22-.41 6.5.18 9.37 1.7 3.3 1.6 7.18 2.1 10.87 3 1.32.18 2.62.45 3.9.82 2.61.98 5.5.9 8.07-.2a9.54 9.54 0 018.07-.1c2.1 1 3.9.3 5.6.83 2.59-1.3 3.18-3.9 4.11-6.2.93-2.3 2.1-4.38 2.9-6.68.9-2.6-1.3-4.8-1.3-7.42-1.3-.9-2.7-.2-4.12-.4-.7.7-1.4 1.4-2.2 2.3h-5.18l-2.2-2.2h-3.69c-1.1.4-1.5 2.2-3.49 2.4-4.98-1.8-10.17-4-13.19-10.18-.2-.6 1.5-.83 1.4-2.48-1.3-1.49-3.49-3.3-2.09-6.49h-7.42c-.2.3-.9 1.1-1.49 1.9-1.1.82-2.6-.3-3.6.4 1.8 2.58 3.55 5.18 5.3 7.79-2.1 2.7-3.4 5.49-5.78 7.58-2.3-.9-3.4-3.19-4.19-5.18a18.7 18.7 0 00-4.79-7.1 7.84 7.84 0 01-2.7-5.58c-.29-4.13-2.68-6.79-6.07-8.69-2.6-1.5-5.39-2.7-8.08-3.99-.1-2.4-3.3-3.2-3.4-5.69-1.29-.5-1.79.6-2.46 1.1-1.6-.7-1.6-2.47-2.7-3.7-2.6.1-1.4 3-2.9 3.8a8.12 8.12 0 004.9 4c-.4 2.3 2.99 2.69 2.58 4.99 1.7.69 3.2 2.1 5.6 1.79 1.89 3.79 7.07 4 9.46 7.48-1.9 1.7-3.79.4-5.08 1.4-1.1 1.5.7 2 1 3.1-1 2-1.9 3.99-2.9 6.08l-2.78.3c-.83 1.4-.21 2.8-.4 4.13-.3.2-.7.6-1 .5-4.4-.7-7.88-2.6-10.18-5.59 4-1.1 8.48.83 11.97-2.2.83-1 .3-2.4.4-3.8-2.4-2.29-4.99-4.48-7.48-6.59-1.59-1.4-3.49-.5-4.79-1.9-2-2.3-5.28-2.89-6.48-6.29-.82-2.09-3.19-3.6-4.58-5.08h-3.9a8.5 8.5 0 01-4.78 3.39c-1.9.7-3.9 2.8-6.28.3-.83-.83-3.1-.1-4.7-.1-1.09 2.1-2.38 4.12-1.68 6.48-2.9 4.3-9.58 4.2-10.78 10.38 1.9 3.6 1.9 3.6-5.68 11.08h-8.58c-.6.83-1.23 1.65-1.9 2.4h-4.11c-1.1-1.1-2.2-2.3-3.5-3.6h-6.77c.4-3.19-.3-5.89-2.48-8.08 2.89-5.89 3.69-11.77 1.4-17.97.82-1.9 3.09-1.7 4.12-2.99 7.47-1.1 14.55 2.2 22.25.83.83-3.1 2.48-6.3 1.1-10.58a10.92 10.92 0 00-4.29-3.2l1.1-1.1c-1.9-2.6-6.49-1.7-7.28-5.59.1-1.1 1.2-1.49 1.89-2.47h7.58c.1-1.2.2-2.1.3-3 .82-1 2.7.3 2.6-1.9.82.7 1.2 1 1.59 1.4 1.8-.6 3.47-1.51 4.94-2.7 1.1-1 1.1-2.99 2.1-3.3 1.6-.3 2.29-1.5 3.3-2.3a7.59 7.59 0 002.59-3.79c.73-1.99 2.06-3.72 3.8-4.94 3.98-.1 7.07-3.3 10.96-2.4 1.1-2.47.4-4.49-.82-6.28a6.08 6.08 0 01-.6-5.99c1-2.6 1.5-5.2 4.69-6.1.5-.1.9-.69 1.49-1.09.5.5 1 1 1.7 1.6-.3.4-.6.83-1.2 1.5.5 2.76 1.26 5.47 2.3 8.08-.7.2-1.6-.4-2.3.4.1.9 1.5 1.3 1 2.47-.3 1.3-1.9.3-2.4 1.3l3.1 3.1c2.45.33 4.96-.09 7.17-1.2 2.3.09 2.48 2.59 5.09 2.39 2.6-.9 5.77-2.1 7.98-4.6h5.77c.5.7 1 1.5 1.59 2.3 1.9-1.8 3.3-3.7 5.69-4.29v-8.83c1.6-1.2 1.2-3.99 4.18-4.2l3.6 3.6c2.29-1.7 2-3.7 1.65-5.69a5.68 5.68 0 01-3.3-1.9v-4.28c4.19-1.2 7.98-4.7 12.46-1.3 1.2-1.9 5.09-1.3 4.19-4.9h-9.93a10.65 10.65 0 01-8.77 2.2c-1.7-2.3-4.29-2.69-6.79-4.29 1.7-3.99-1.2-7.88-.9-11.77 4.07-4.58 7.83-9.42 11.28-14.48-2.6-2.3-5.49-2.3-8.08-2-1.2 1.1-2.3 2-3.3 2.9v7.68c-5.87 4-11.66 8.39-10.76 17.28 1.9 1.78 3.99 3.68 6.08 5.68-.7 3.1-1.3 6.19-4.79 6.99-1.1 3.8-2.59 7.58-.4 11.47-2.09 1.5-3.98 2.8-7.41 2.6l-3.04 3.1-3.58-1.8a3.7 3.7 0 01-2.19 3.4c-.5-1.4-2.3-.6-2.89-1.7.08-.6.12-1.2.1-1.8l-.03.03zM274.85 115.62c2-1.65 1.79-4.29 2.99-7.49.5-.89 2.3-2 3.39-4.12 1.7-3.39 6.67-4.12 10.17-1.5 1.6 1.2 3 2.48 5.28 2.2.1 1 .1 1.8.2 2.7-3.68 2-6.08 5.38-9.17 8.18-1.65-.1-3.59.7-4.9-1.1-2.18 4-2.28 4.12-6.58 5.59-.2.9.39 1.4.9 2.1.59.7 1 1.56 1.19 2.47-.3 4.69-.3 9.58-2.47 13.97-.31.6-1.6 0-2 .9a5.58 5.58 0 003.59 2.2v5.49c1.9 0 2.19-2.48 4.38-2.2.6 1.2 1.3 2.7 1.9 3.89-.6 3.4-4.19 5.77-1.9 9.58 5.3-2.2 6.6-8.25 11.28-11.27-.2-2.8.89-4.8 4.68-5.3-4.99-1.1-7.88-3.99-11.27-5.49-.82-1.59-.4-3-.4-4.38l2.6-2.6c-1.1-.4-2.3-.9-3-1.1 4.7-9.61 10.22-17.03 20.05-19.9 1.7-.4 2.6 1.5 4.29 1.5.6.89.3 1.89.2 2.79-.4 1-2 0-2.3 1.7 4.19.6 7.48-3.3 11.47-2.3.82.5.5 1.1.6 1.9 1.6.3 3.1-1.7 4.95-.1 1.39 1.1 3.48 1.3 5.28 1.9 1 2 2.47 3.99 1.6 6.78-.6.6-1.4 1.5-2.4 2.47 3.99 0 3.5 3.6 4.79 5.9-1.2 2.69-1.3 2.69.7 5.28 1.4-1.39 3.19-1 4.89-1.1.89 1.8 2.29 3.5 2.1 5.7 2.09 1 4.38 1.6 5.87 3.39-.4.4-.82.9-1.2 1.3-.5 2.2 2.7 2.39 2.4 4.6-.1 1.48-2.47.09-2.4 1.89-.59 2.1 3.4.82 2.4 3.19-1.2 1.6-3.5-.4-4.79 1.2.4.4.83.9 1.3 1.4-.83.3-1.5.5-2.7 1 3.1 2.38 4.8 5.76 8.48 7.08.9 4.2 5.19 4.94 7.78 7.88-2.48 4.69-7.88 6.8-10.47 11.38-1.2-1.5-3.49-1.4-4.29-3.2v-3.59c-1-1-2-2-2.7-2.59-1.19.9-2.47 1.9-3.98 3 2.1 5.38 6.6 9.38 5.98 16.06-.7.7-2.29 2-3.78 3.4-3.3-.7-4.99-4.7-8.58-5.7 1.9 2 2.29 4.9 4.48 6.5-.1 1.39.4 2.79-.5 4.39-5.88-2.1-10.66-5.9-14.95-10.19 0-3.09-2.2-5.19-2.9-7.68-4.19-3.9-8.57 0-12.17-.5-2.88-1.65-1.88-3.8-2.19-5.39 1.3-1.8 3.3-1.9 4.7-3.3 2.89 2.3 6.27 1.1 9.77 1.5v-3.79c2.3-3.89 6.38-4.79 8.67-7.88-.1-1.3.5-2.8-1.59-3.6 1.2-.5 1.89-.7 2.59-1-.7-3.1-3.3-4.68-5.09-6.78-1-.1-2-.2-2.8-.2-1.09-1.6.31-2.3 1-3.1-1.29-2.89-3.68-5.28-2.47-8.48-2.9-1.4-2.29 1-2.99 1.8-4.29.5-8.47.4-12.97-1.7 1.1 3.1 2.1 5 3.9 6.1-1.1 3.58-3.4 5.48-6.38 7.07.82 2 2.09 3.9 1.1 6.6-3.3 4-8.5 5.99-14.77 5.2-.44-.43-.9-.84-1.4-1.2-.3-.2-.82 0-1.2 0-.81 1.09-.89 2.47-.09 3.2 1.1 1.09.6 2.18.9 3.38 4.78 2.6 6.38 4.79 7.57 10.08.7.2 1.4.5 2.1.7v2.8c-1.9.7-3.8.3-5.69.3-.5-1.7-1-3.2-3.1-3.7-1.28 1.2-2.58 2.9-4.28 3.6-1 .4-1.69 1.9-3.48 1.1 0-1.8-2.2-2.9-2.9-4.9-.6-2.47 2.48-2.89 2.7-5.1.2-1.68 1.65-3.29 2.2-5.18-2.8 3.4-6 6.19-8.99 9.29-1.8.59-2.99-.5-4.38-1.2-1.7.5-2.2 2.89-4.3 2.59-.59 1.4-1.29 2.8-2 4.5h-4.11c-6.98 6.78-14.84 11.87-17.25 21.35 5.29 5.89 5.48 6.29 3.49 13.08 4.29-.83 8.08.6 11.66 2.7.5 2.28 2.4 4.11 4.3 5.18 2.2 1.1 3.49 2.99 4.88 3.89 3.4.9 6.08 2 8.78 1.5 2.29 2.3-2.6 4.5.6 6.69-1.3 1.5-3.5 2.8-2 5.49.4-.3.83-.7 1.3-1.1.5.5 1.1 1 1.59 1.5-.2.99-1 1.4-1.69 1.99-.5-.4-.9-1.2-1.8-.83.2 3.1 4.19 3.6 3.3 6 1.5 1.4 2.6.82 3.5 1 1.78-.83 1.59-3.1 3.09-4.2v-12.44c4.18-3.1 10.07-3.6 13.36-8.39v-8.18c-1.4-1.8-1.7-4.12-4.8-5.39 2.4-1.4 4.2-2.2 5.2-3.8 1-1.6 1.6-3.08 3.08-4.18a3.98 3.98 0 01-.9-4.8 14.02 14.02 0 002.4-8.78c0-.6 1.1-1.1 1.6-1.69 2.79-.3 5.49-.3 7.78 1.6a3.3 3.3 0 002.8.7c1.99-.2 3.78.29 5.98 2.69.2.5 1.78 1.9 1.2 4.12 1.89 1.3 4.38 1.5 5.88 3.5.89 1.8-2.1 2.8-1.1 4.88.7 1.5-.3 3-1.5 4.7 2.3 1.3 2.47 4.19 4.89 5.88 4.19-1.9 7.98-4.28 10.07-8.88.5-1.2 1.3-2.6 3.59-2-.4 3.6 1.5 6.7 2.6 9.99l-1.1 1.1c-.3.3-.2.5.3.89.28.26.51.56.7.9 2.68 5.49 2.68 5.49 1.19 11.28.2 1.3 1.4 1.8 2.2 2.7.8.9 1.7 1.6 1.7 2.99 1.38.6 3.18.82 4.11 1.8 1.2 1.5 3.1.39 4.19 1.6-.4.49-.82.9-1.3 1.49.7 2.47 2.7 3.6 4.95 4.49v7.42c-.7 1.3-2.2 1.9-3.58 2.47.5 1.1 2.09.1 2.47 1.7-.4 1.9-2.47 2.7-3.59 4.3.83 1.4 2.69 2.2 2.69 4.38h5.49v7.2c.82.49 1.8 1.19 2.47 1.58.3 3.4-1 4.7-3.78 4.4-2.1-.3-1.7-2.8-3-3.6-2.4-.59-.99 3.3-3.39 2.4-1.4-.82-.2-2.3-1.2-3.69h-12.08c3.4-6.29 7.58-11.28 11.37-16.56-1.2-1-2.69-.21-4-.5-5.08 4.98-6.27 5.98-17.04 3.88-3.89-.7-7.98-.1-12.47-.1-1.69.7-1.5 3.7-3.98 4.3 2.3.3 4.38.5 6.38-.2a5.25 5.25 0 014.48 2.47c.1 2.39-1.9 2.6-3.48 3.3-.4.82-.2 1.5.82 2.3-.4 1.2-1.5 2.39-.9 4.12.5.4 1.1 1 1.65 1.5 1.9-1.7 3.7-1.5 5.3.6-.11 1.5-1.8.1-2.2 1.3 1.09 1.3 2.46.4 3.98.69 1-1.3 2.2-2.69 3-3.7h3.3c.6 1.3 1.3 2.6 1.89 3.9-.4.4-.6.9-.9.9-1.6.1-3.2 0-4.39 0-3.48 2.7-6.67 5.29-11.66 4.8l-2.9 3.58h-4.12c-1.29-2.1-.1-3.99.3-6.28-2.99 1.59-6.08 2.39-9.07 3.39-3.79 1.2-7.47 3.2-8.67 7.68-.4 1.3 1.7 1.7.9 3.8-.4 1.2-2.7 1-3.7 2.2-4.28-2.1-6.59 2.8-10.26 2.8-.2 3.29-1.6 5.57-4.99 6.37.2 2.2-1.3 3.8-1.7 5.5-1.59.6-2-.7-3.09-1v10.21c-2.2 1.3-3.39 3.2-5.58 4.5-3.1 1.9-5.77 4.98-8.78 6.78a48.45 48.45 0 00-8.98 6.98c.7 7.09 3.4 14.28 2.3 21.96a3.51 3.51 0 01-4.12 1.6c-2.8-1.7-2.3-6.1-5.49-7.58v-7.5c-1-.89-2.09-1.79-3.38-2.99a10.48 10.48 0 01-8.68-2.7c-.9.61-1.5 1.1-2.3 1.7-2.09-1.5-4.48-1.79-7.28-1.09-.9 1.3-1.8 2.8-2.99 4.7-2.47-.41-4.98.29-7.78-1.01a11.4 11.4 0 00-7.42-.4c-3.99 1-7.18 3.2-10.66 4.99-2.3 1.3-.9 4.2-2.9 5.49-.3 7.59-4.18 14.84-1.7 23.75 2 3.5 5.19 7.5 11.27 9.19.4-.1 1.5-1.3 2.8-.82 1.59.59 2.29-1.5 3.89-1.2.4.3.82.7 1.4 1.2 2.98-2.9 4.28-7 6.47-10.19 1.8-1.6 3.99-.1 5.77-1.7 1.2-1 3.9-.2 4.99-.2 1.4.9 2.19 1.5 2.99 2-3.39 4.89-3.7 5.6-3.9 9.68l-3.38 3.4c-.7 2 .9 4.5-1.6 6.39 6.6 1.3 13.67-1.3 19.25 2.9 2.2 5.58-2.4 9.89-2 14.96 2.4 2.1 2.9 6.09 5.29 6.39 6.08 1.5 10.27-1.9 15.36-1.1l3.99 3.99c3.59-1.8 5.18-5.59 6.98-9.68 5.39.7 9.48-3.3 14.36-3.8.82 1.9-.2 2.48-.9 3.2 1.5 1 2.99.6 4.49.4 1.1-1-.3-2.47.9-3.3 2.47-1 1.59 1.7 2.59 2.3h2.47c1.1 1.2 2.2 2.3 3.19 3.4 3.59 1.09 7.38-1 10.67 1.6 1.5-.83 2.99-1.6 4.79-2.48h4.48c1 1 .83 3 2.7 3.5.3-.7.5-1.4.82-2.1a1.5 1.5 0 011.7.1c1 1 .2 1.7-.6 2.4-.2 1.2 1.49 1.69 1 3.1 6.18.19 8.67 5.47 11.46 7.68 4.89 2.7 8.68 1.65 12.27 2.39a19.21 19.21 0 0113.76 9.68c1.4 2.4 2.59 5 3.69 7.09.1 3.89-3.1 4.69-5.77 7.88a19.33 19.33 0 0110.07-1.7c.6.6 1.3 1.4 2.1 2.2 3.08-2.7 5.57.2 8.17 1 3.05.8 5.73 2.63 7.58 5.19a4.13 4.13 0 014.78-1 8.35 8.35 0 005.7 1c4.58-.3 8.24 1.7 11.46 4.69 1.59 1.5 2.9 3.3 5.08 3.89h3.8c2.39 3.4 4.78 6.88 3.98 11.68-2.89 2.9-3.3 7.88-8.08 9.28-.4 2.47-3.78 3.7-2.79 6.6-1.5.6-2.8.9-3.69 2.4v6.48c0 2 .3 4.12-.1 6.09a20.38 20.38 0 01-2 5.18c-.82 1.7 0 3.6-.49 5.4-3.3 2.19-3.2 6.19-5.2 9.67-1.38.7-3.18 1.7-5.47 2.8h-5.48c-1.9 1.7-3.7 3.6-6.5 3.7a3 3 0 00-1.99 1c-1.69 1.19-2.78 3.08-4.98 4.11-2.6 1.2-2.48 4.5-.83 8.2-1.4 5.28-5.18 9.18-6.68 14-4.39 1.3-4.59 1.3-5.89 5.59-1.2 4.12-3.68 7.49-5.77 10.78-3.09.83-6.29-.9-8.98 1.3-.82-.3-.4-1.3-.82-1.9a3.18 3.18 0 00-3.59.2c3.2 1.3 2 5.3 4.79 7 .2 7.27-1.9 8.67-8.58 10.47-1.5.4-3.09.2-4.28 1.4-1.4-.6-2.6-1.9-4.7-1.1-.9 2.47-.39 5.09 1.2 7.68l-4.12 3.1a4.85 4.85 0 01-5.09-1.8c-1 4.3-.9 4.69 2.3 5.39 1.4.3 1.99 1.1 2.89 1.9-3.9 3.89-5.19 3.09-4.68 10.57-1 .56-1.94 1.23-2.8 2-1 1.1-2.47 1.1-3.39 2.1v2.2c1.9 2.79 4.78 4.18 7.28 6.08v3.68c-1.6 1.5-3.09 3.1-4.79 4.69v3.99c-1.32 1-2.62 2.03-3.89 3.1 2.6 4.29 2.6 4.29 2.6 8.48 3.78 5.49 8.18 10.28 15.95 12.07-5.68 3.5-10.57 4.13-15.46 4.95-.3-.89-.59-1.6-.82-2.4-1-.29-1.3 1.4-3 .71-1.19-1.7-4.18-2.8-4.28-5.77-2.1-.4-2.9 2.1-4.38 1.3-1.7-1.8-3.1-3.3-4.49-4.7.3-.1 1-.4 2.1-.9-2.48-1.2-2-4.28-3.6-5.59-2.1-1.8-1-4.12-1.7-5.98-1.49.5-.5 2-1.59 2.47h-1.3c-1.2-1.6 0-3.5-.89-5.77-2.7-1.9-2.8-5.77-4.6-9.18.89-.88 1.71-1.81 2.48-2.8.4-3.88-2-4.58-5.49-4.12 1.6-3.2 2.8-5.29 5.99-4.9 1.5-.69-.1-3.08 1.8-2.99.29-1.39-.6-1.8-1.1-2.39.2-.3.5-.6.69-.9-1.2-3.3-1.4-6.6.7-10.18-.7-.4-1.5-1-2.4-1.5-.99 1.5.3 3.6-.6 5.5l-1.68 1.7c-.3-.71-.5-1.4-.83-2.2-.6-1.7-1.6-4.13.4-6.2-1.6-3.19-2.2-6.59.2-10.17-4.69-4.5-2.48-9.98-1.2-15.07 2.4-9.68 2.6-9.58 1.1-18.57-.4-2.2-.83-4.89.1-6.6 1.4-2.38 1-4.58 1-6.88.1-11.97 0-23.85.1-35.82-.6-1.2-2.4-.3-2.9-1.7-.49-1.4-3.08-.9-3.08-2.2 0-2.1-1.9-1.1-2.4-2-1.4-2.39-3.69-2-5.58-2-2.4-1.89-3.9-4.12-6.6-5.38-2.19-1.1-3.48-3.5-3.89-6.19a6.87 6.87 0 00-2.19-4.5c-2.69-2.19-3.59-5.38-5.09-8.24a41.19 41.19 0 00-8.17-11.18c-.83-.82-1.8-.6-2.48-1.1-.82-1.8 1-4.3-1.8-5.29a31.1 31.1 0 002.3-4.38c.5-1.6 3.09-.21 2.9-2.6-.6-1.3-2.9-.83-3.5-2.8v-3.34c3.3-2.19 2.4-6.98 5.68-9.58 3.3-2.6 5.77-5.69 8.68-8.48-1.8-2.47-1.1-4.99-.4-8.08-.7-1.3-2.2-3.1-2.79-5.3-.59-2.2-1-4.18-3.59-5.28-2.39.9-2.59 4.19-4.79 5.77-2.88.1-4.94-1.6-7.28-3.7h-4.98c-.4-2.28-2.1-3.49-3.5-4.78-3.68-.4-3.68-.5-4.18-4.3-2.2-2.39-4.99-4.38-6.18-7.78-4.89.1-8.98-2.47-13.67-2.7-1.49-.1-2.99-1.59-4.28-2.8-2-1.68-3.8-3.68-5.89-5.76-4.29.6-8.57 2.3-13.56 1-3.8-1.8-7.98-3.8-12.27-5.7-2.39-1.1-5.38-1.39-7.17-3.09-2.8-2.6-6.6-3.79-8.69-7.68 0-.6-.4-1.7.7-2.8a3.7 3.7 0 00.4-3.99c-2.3-3.09-2.78-7.08-5.88-9.77-2.7-2.4-5.08-5.1-7.28-7.2-.3-1.59.7-1.9 1-2.39-6.39-5.29-9.38-12.47-12.16-19.78-1.1-.5-2.1-1-3.1-1.4-.1.3-.4.6-.4 1-.9 4.39 1.8 7.88 3.8 11.17 2.79 4.6 5.47 8.99 6.47 14.37a9 9 0 003.4 5.9 1.75 1.75 0 01.82 2.1c-.69.99-1.79.39-2.47.59l-7.18-7.19v-4.3c-2.4-2.88-6.28-4.11-8.38-7.37 1.1-1.2 2.89-2.2 2.3-4.7-4.7-4.39-6.38-10.37-7.09-16.76-.2-1.9-1.6-3-1.9-4.9-2.59-1.3-5.27-2.69-8.17-4.19-1.4-2.59-2.8-5.48-4.48-8.68V315c-4.95-3.99-3.6-9.48-3.5-14.77 1.7-1.2 1-2.9 1-4.4 0-3.08.82-6.12 2.4-8.78 1.99-3.39 3.08-7.18 4.58-10.78a15.77 15.77 0 001.6-7.88c-.3-3.3-.6-6.69 1.4-9.68-2.9-4.6-8.78-6.9-8.88-12.88 3.3-2.7 4.28 2.2 7.37 1.7-.89-1.9-2.68-2.8-3.58-4.3-.83-3.3 3.19-6.08.5-9.57.3-1.3-1.3-.2-1.66-1.2-.5-1.2.6-1.8 1.1-2.47-.9-1.2-2.3 0-3.7-1.2.61-2.6 1.3-5.5 2.1-8.79-.6-1.3-1.49-3.1-2.39-4.99a1.56 1.56 0 00-1.7.2c-.59.6.6.7.7 1.7-.6.6-1.2 1.8-2.8 1.6-.48-3.5-.48-3.5 1-5.78 1-.3 1.2 1.7 2.6.6.83-1.4 2.48-2.9 1.65-5.3-2.1.9-4.58.83-6.28 2.2-1.5-1.09-.2-2.59-1.2-3.49-.6-.1-1.1-.3-1.9-.5-.7-2.3.71-5.09-1.58-6.88.7-1.4 1.3-2.6 1.89-3.7.9-.3 2 .4 2.89-.4-.5-1.09-1.1-2.09-1.6-3.18-1.09.49 0 2.19-1.99 2.39-4.12-2.1-4.12-7.09-6.38-10.58-1.8-2.6-5.68-2.3-7.18-5.29h-3.98c-3.09-3.1-6.28-6.39-9.57-9.78a2.53 2.53 0 00-2.7 2.47c-.1 2.1-.99 2.9-2.99 3.7-4.38 1.7-8.67 3.98-14.26 3.48 2.8-2.9 2.8-6.98 6.19-9.18-2.7.5-2.7.5-6.28 4.13-1.2.7-2.7.1-3.5.9-.89.5-1.69 1-2.09 1.2-.6 1.79 1.4 1.89.83 3.88a33.72 33.72 0 01-12.76 6.9c-1.1 1.31-2.2 2.65-3.3 3.99-4.99.82-7.98 3.79-11.67 5.18-3.7 1.4-7.42 3.6-11.47 2.6l-2.39 2.4H.5c-.9-1-.3-2-.4-3 3.89-3 3.89-3 9.07-3a22.37 22.37 0 018.48-5.88c5.58-2.4 8.37-5.99 11.54-10.68-.6-.6-1.3-1.2-1.7-1.6a2.18 2.18 0 00-2.46 1c-1.02-1.2-2.05-2.4-3.1-3.6h-4.37c-.9-.9-1-3.69.2-4.89 1.2-1.2 1.99-2.39 1.49-4.69a6.38 6.38 0 01-5.39 1c-1.39-2.8-2.89-5.38-.9-8.98 1-1.8.2-4.69.2-7.29 2.3-1.8 4.3-3.89 6.79-5.38 2.7-1.6 3.79-4.6 6.18-6.2 2.2-.29 2.4 2.3 4.12 2.4 2.6-.4 4.6-4.12 7.98-1.4 3.2-1.9 3.8-5.68 6.28-9.28-3.58.83-6.48 1.8-9.27.4-2.59-1.3-5.99.4-8.57-2.7-.3-2.18 1.49-4.39 2.09-7.58-.1-.3-2-.82-.7-2.47.5-1.5 1.7-3.19 3.3-3.49 4.28-.9 8.37-3.1 12.36-2 .9.5 1.7 1 2.2 1.3.3 1.5-.7 1.8-1.1 2.48l1.6 1.59h4.98c2.4-1.3 1.8-3.3 1.9-5.29-1.2-1-2.6-2.2-4.19-3.5 4.12-4.88-.1-9.57.5-14.17l5.08-4.79h.1c5.69 1.5 5.69 1.4 10.72-1.2 1.7-.9 2.7-2.79 4.79-3.09 1.88-.2 2.99-1.7 4.28-3H82c1-1.2 2.1-2.39 3.3-3.68 2.3.3 4.79-.9 6.6 1.3 2.47-.7 4.28-2.8 7.07-2.48 1.8 1.3 2.48 3.3 3.3 5.59 1.3.6 2.8 1.3 4.59 2.1v5.09c1.89 1.1 3.69.2 5.68.82 4.49 4 8.88 8.88 15.75 9.68 1.6 5.09 7.79 5.7 10.18 10.88v1.7c1.6 1.7 3.3 3.3 4.79 4.79 1.9-1.5.2-1.6.5-2.8 1.69-1.9 4.68-1.8 6.87-2.7 1.8.31.7 2 1.9 2.48 2.4-.83 4.89-2.1 7.38-2.3 2.49-.2 4.98-2.79 7.68-.9.5 1.3-.6 1.9-1.1 2.6a1.65 1.65 0 001.6.6c2.3-.1 3.98-1.3 5.48-2.9 1-1.1 2.2-.7 3.59-.7-1.69 3.1-.82 6.3-1.2 10.19 1.7-2 2.8-3.3 4.13-4.7.9 1.4 2 1.7 2.2 3.1.1.7-.83 1.1-1.2 1.7.3.2.7.7.9.6a10.38 10.38 0 017.07-1c1.8 1.4 2.2 3.29 3 5.28 2.99 1 4.59 4.4 8.97 5.5h3c.6 1.9 2.28 3.38 2.47 5.59-1.1.69-1.5 2.1-3.1 1.8-1.6-.3-2.19.9-2.99 1.89 4 3.69 7.78 3.8 13.97 1.69 1.49 2.1 2.99 4.2 4.38 6.2-.5 1.39-2.29 1.89-1 3.38 2-1.9 2-1.9 2.1-4.89 1.4-2.47 3.6-3.49 6.78-3.8-1.8-1.19-3.3-.19-4.28-1.19v-3.19h9.57c-.5 2.6 1.3 4.7 1.7 7.28 2.29 1.3 4.78 2.6 6.18 5.2 3.3-1.7 6.28-1.7 9.06-.3 1.8-.6 1.3-2.48 2.48-3.3 1.18-.83 2.4 0 3.4-.7 0-1.2-1.1-1.5-1.6-2.2a17.56 17.56 0 00-2-2c2.2-2.7 2.2-2.7 5.98-4.29.83-.5-.4-2.2 1.2-2.2 2-.1 2.2 2.4 3.89 2.4.3 1.9-.83 4 1 5.39-.83 1.5-1.2 3.4-2.9 4.3-.9.4-2-.4-3.19.9 1.8.2 1 1.68 1.7 2.58.12.09.26.13.4.11.82-1.7 2.47-.7 2.9-2.1l4.98-3.2c-1.1-.9-1.6-1.4-1.4-2.47.7-.82 1.5-1.59 2.4-2.47-.9-.7-1.4-1.8-2.9-1.9-1.2 0 0-2.47-1.9-2.4.2-.82-.49-1-.69-1.2-.2-.19-.34-.45-.5-.7 2.8-2.69 3.1-6.88 5.89-9.57a9.62 9.62 0 013.78-2.48v-1.88c2.47-.2.3-2.8 1.7-3.5.3-1.39 1.5-.99 1.5-2.47l-.14-.02zm119.87-64.37h6.97c2.8-2.9 2.8-2.9 3.4-5.9 1.59-2.09 4.58-1.99 6.48-3.98 4.48 1.5 8.68-1.7 13.26-1 1.2.82-.1 2.4.9 3.4.5-.3 1.1-.5 2.1-1v7.08c2.79.6 3.18-1.9 4.78-2.7-.4-.52-.84-1.02-1.3-1.49.4-1.9 1.6-3.6 2.9-5.3a12.42 12.42 0 014.49 5.4v5.09c1.9.1 3.09 1.7 5.28 3.79-1.1-5.48-2-9.68-2.9-14.17h5.49l1.9-1.9c-.4-.9-1.4-.4-2.1-.9a1.47 1.47 0 01.2-2.1c.4.4.84.77 1.3 1.1 1.1-1.8 2-2.39 5.38-3.69 1.4.82 3.1 1.6 5.19 2.7 1.3-1.7 3.3-2.7 4.98-4.49 2.6-2.7 6.79-2.47 9.98-1.5 3.58 1.1 7.28 1.7 10.76 3.3 2.6 1.2 2.8.9 2.9 4.99h-4.59c2.3 1.3 4.59 1.8 6.6.2.7.6 1.3 1.1 1.7 1.39.3 1.4-.4 2-1.9 3h6.08c.72.81 1.48 1.58 2.3 2.3.67.32 1.37.6 2.09.82v3.99a41.5 41.5 0 01-15.85 2.89c.9 2.1 2.88.2 3.58 1.5.7 1.3-.1 1.79-.9 2.47.83 1.7 2.2 0 3 1.1.5-2.59 2.19-3.8 3.69-5.28.9 1.1 1.8 2.09 2.9 3.38v3.2c-1.2 2.48-4.2 3.1-6.4 5.19 3.6-.3 6.2-1.5 9.9-4.5 1-.2 1.4.7 2 1.21 1.99-4.7 6.17-3.4 9.67-3.6 4.68 2.9 4.68 2.9 5.58 6.3-2 3.79-6.38 5.08-9.18 8.18-1.99 2.2-4.28 4.39-5.38 7.42a3.3 3.3 0 01-1.4 1.8c-3.09 2.19-3.88 5.88-4.58 8.97-.7 3.1-1.5 5.89-3.9 7.9l2.3 2.28c-.2 1.4-1.9.2-2.2 1.4.9 2 3.9 1.6 4.8 3.89.2 1.7-2.2 2.2-.9 4.9-2.9-1.7-4.9-2.6-7.08-2-.5.82-1.7 1.1-1.7 2.79 1.1 1.2 4.59 1.4 3.6 4.6 1.89 1.99 1.19 4.39 1.09 6.59-1 1.2-2.6-.2-3.39 1-.9 3.2 3.1 2.4 3.78 4.78a9.7 9.7 0 01-7.37 2c-.1 1.8 1 1.1 1.6 1.3.59 3.5.4 4-2 4.8-.7.2-1.5-.1-2.2.59-.8.56-1.67 1.03-2.59 1.4.9.3 1.6.6 2.3.82 1.19 2.4-1 3.9-1.5 5.78-.6.2-1.3-.31-1.7.59 2.3 3 2.2 6.99 3.5 9.98-.1 1.7-1.3 2-1.8 2.8h-4.82c-2.2-1.4-3.39-3.4-3.59-6.5-1.3 1.9-.7 3.3-.82 4.7 1.59 1.7 3 3.8 5.98 3.1.1 1.09.1 1.89.2 3.2-3.09 0-3.8 3.88-6.98 4.28-2.47 3.6-6.78 3.89-10.27 4.4-3.8.49-7.48 2.89-10.77 1.39-2.48.7-1.9 2.9-3.4 3.7-4.48 2.28-6.88 7.41-12.06 8.97-2.1.6-3.59 1.1-5.77-.3-2.3 2.48-6.08 2.7-8.87 5.09-.1.82-.2 1.8-.3 2.9-.6.1-1.1.2-2 .4.3 1.3 1.6 2.47.9 4.19-1.9 1.9-4 3.79-4.95 4.88-2.88 6.3-3.88 12.08-8.77 16.17h-2.7c-.7-1.2-.59-3.19-2.89-2.47V213h-6.18c-1.59-1.79-3-3.19-4.58-4.99-.1-4.48-2.3-8.98-4-13.77.9-1 1.8-2 3-3.3-1.5-.1-2.4-.2-3.7-.2V182a71.82 71.82 0 00-2.69-2.8l2.4-2.38c-.11-1.5-.08-3 .1-4.5a7.1 7.1 0 012.9-4.89c2.28-1.7 4.11-4.12 6.88-5.29 2.76-1.17 1.59-4.29 3.98-6.39-2.2.6-2.89-2.2-4.95-1.3-.6 1.1.9 1.1.9 1.4 0 2.48-1.3 3.1-5.49 3.2l-3-3v-3.79c2.2-1.1 2.3-3.99 4.3-5.39 2.3.1 3.69 2.7 6.18 2.4a16.09 16.09 0 00-1.9-5.6c.3-.42.64-.82 1-1.2-1-1-2.1-.2-2.89-.59l-2 2c-.99-1.1-2.09-2.1-3.39-3.5 2.3-2.1 1.6-6.48 4.8-8.88v-9.07c0-2.2-.1-4.19-1.2-6.18-1.5-2.7-1.4-5.6-1.2-8.98-2.47-2.1-4.29-5.4-7.98-6.49-3-.6-6.18.7-9.07-1.4a2.27 2.27 0 00-1.8 0c-.49.2-.9.82-1.29 1.2-1.6.5-2.19-1.8-3.69-1.3-.6-1.2-1.1-2.4-1.69-3.5-.3-1.2 1.6-1.29 1.2-2.58-.6-1.8-3.4-2.48-2.3-5.3 1.1-.6 2.4-1.2 3.59-1.9 1.2.2 1.7 2.1 3.7.7-3.2-2.29-4.2-6.28-7.29-8.38-.82-3 1.6-3.99 3-5.59 3.38.1 6.28-1.5 9.47-2.1 3.19-.6 6.38-.1 9.76-.1 1.9-2.28 4.6-3.69 5.3-7.68-.4-1.9-3.2-.5-4.6-1.7.41-.7 1.3-1 1.2-1.99a4.11 4.11 0 013.7-4.6c2.58.2 3.3-1.79 5.58-3.3h-.07zm685.7 467.78c1.4-.2 2.79-.1 3.79 1.6.22.23.36.51.4.83 0 3.09 0 6.08 2 8.97.99 1.4.49 3.9.69 6.3a38.42 38.42 0 003.99 3.3 12.03 12.03 0 015.59 7.88c.39 2.3 1.19 5 4.48 5.39.4 2.6 1 5.29 3.3 6.98 2.79 2.2 2.99 5.69 4.19 8.58a4.73 4.73 0 01-.6 3.9c-1.09 2-.82 2.4.9 5.7-2.4 1.68-.82 4.78-2.47 7.17a21.96 21.96 0 00-2.79 7.42c-.7 3.3-3.3 6.4-6.19 8.18-2.19 1.4-3.09 3.5-4.48 5.4-1.1 1.6-2 3.3-2.99 4.88-2.48 3.8-5.29 7.42-5.58 12.28 0 .7-.9 1.3-1.41 2h-4.22c-4.59 1.9-7.68 4.59-11.97 5.2-.7-1.6-1.4-3.1-2.1-4.7-2.47.1-3.89 2.59-6.08 3.6-3.89-2.2-7.67-4.3-11.54-6.5v-10.04l-2.47-2.48c-.1-1.4-.3-2.9-.4-4.5-1.19.61-.82 1.6-1.19 2.2-.9.7-1.9.2-3.39.4 1.65-2.89 2.29-5.89 4.88-7.88-1.2-1.1-1.9-.6-2.69.2-2.09 2.2-4.29 4.29-6.49 6.48-.59-.6-1.09-1.2-1.79-1.8V601c-.82-.65-1.64-1.3-2.47-2v-2.8c-2.69-1.39-5.38-2.69-8.47-4.18-.83 0-2 .1-3.19 0-4.45-.2-8.9.5-13.07 2.1-1.79.7-3.99.29-6.08.39-2.1 1.6-5.09 2.2-6.88 4.69-.83 1.1-2.48 1.5-4.29 1.4-3.6-.2-7.28-.1-10.97-.1-1.5 2.8-4.89 2.8-7.08 4.7-4.7.68-8.78-.21-11.54-4.4.2-1-.3-1.9.4-2.47 2.99-2.48 3.29-5.9 3.29-9.59a67.6 67.6 0 00-2.39-17.26c-.6-2.3-.82-5.09 1.2-7.49-2.2-2.29-1-5.18-1.4-7.78a5.3 5.3 0 002.3-3.9c0-2.89 1.79-3.39 3.69-4.58 5.87-3.8 12.46-5.29 19.04-6.7 5.59-1.19 9.89-2.89 10.48-9.37.1-.7 1.1-1.5 1.1-2.48 1.28-.82 2.79-.2 3.38-.3 2.87-1.2 5.29-3.3 6.88-5.99 1.9-3.19 5.68-4.29 9.57-5.28 1.1 1.49 2.1 2.89 2.8 3.79h4.88a13 13 0 015.77-9.38c2.1-.6 4.29-1.2 6.48-1.9.4-.6 0-1.6 1.2-2.2 4.37 2.1 9.23 2.99 14.06 2.6.9.82 1.49 1.29 2.29 2-.99 1.4-1.09 3.19-3.09 4.19-1.49.82-.82 3.48-2.39 4.94 2.47 2 4.49 4.3 6.98 5.5a21.73 21.73 0 017.28 5.08c1.8.3 3.39 0 3.89-1.4.89-2.69 2.79-4.79 2.99-7.88a69.36 69.36 0 012.79-13.37c.2-.7.1-2.48 2.19-2.9 3.6 3 2.8 8.09 5.09 12.37h-.08z" opacity=".20"/>
      <path d="M393.82 51.05c-6.69.7-11.54 5.29-17.66 7.79a8.45 8.45 0 01-3.79 4.59c-1.59.4-2.59-.6-3.88-1.3-2.4 2-5.5 1-8.58 1.4.82 2.2 2.8.2 3.7 1.9.19 2.09-1.4 2.68-3.2 3.09-1 1 .1 2.39-.6 3.5-2.69 3.38-2.69 3.38-5.89 4.11.4.5.7.9 1.2 1.5-2.3 1-4.68 0-6.98.7-.7 4.2-5.58 4.4-7.48 7.68 0 .1 0 .3.1.3.7.3 1.4.5 2.1.83v2.6c-3 1.43-5.72 3.43-10.17 3.43a6.06 6.06 0 01-1.1-3c-3.5 1.3-6.78-3.3-10.47.3-3.3-2.29-7.48-2.9-10.57-6.39-.6 1.4-.9 3-2.3 3.7a6.67 6.67 0 00-1.3-1.1c-.49.4-.9 1.1-.59 1.5a15.36 15.36 0 007.18 5.68h13.86c2.3 1.5 3.5 3.7 4.49 6.3-1.4 2.3-2.4 4.78-5.49 6.08-2 .9-3.49 1.3-5.38.5-3.1-1.3-6.19-2.3-9.57-1.9-2.4.3-4.3-2.29-6.49-1.1-1.2-.4-.9-1.4-1.2-1.99-1.29-1.2-2.79 0-4.78-1.1-.3-.4-1.3-1.4-2.4-2.6v-4.78l3.5-3.2V84.5c-4.5-.5-4.4-4.7-5.98-7.59 0-1.2 1.39-1.4 1.59-2.3h3.89c1.39 1.9 3.99 3 4.48 5.89 1.9-.3 3.3.9 4.89 1.4.5-.4.9-.83 1.4-1.2.4.4.82.7 1.2 1.1 2.68-3.1 6.38-2.3 10.07-2.4V72.9c.82-.69 1.4-1.3 2-1.79 3.18 1.1 2.38 5.39 4.98 7.09.2-.4.36-.8.5-1.2.2-1-.9-1.2-1.1-1.9.5-.6 1.3-1 1.1-2.2-.7-1.2-2.8-.82-3.4-2.47-.6-1.5.1-2.8 1-4.2-2.6.7-2.6.7-4.12 2.1-3.5.5-6.68.1-9.06-2.79-.5-3.2-.21-6.2 2.29-8.68.82-1.2 2.29-.11 3.3-.83.4-.3.4-.82-.1-.82-2.4-.1-2.9-2.47-4.95-3.4 2.8-2.59 2.2-7.18 6.69-7.98-.42-.57-.8-1.16-1.13-1.78.6-3.6 3.4-2.47 5.49-2.7 1.1-1.39.1-2.8 1-4.69.82-.9 2.59.4 4.12-.4.9-1.19-2.6-1.4-.5-2.99.5-.9 1.6-.2 2.1-.3 1.49 1.1 2.68 2.1 4.18 3.3-2.4 2.09-1.6 4.59-1.8 6.88 1.5 1.2 2.3 3.4 4.95 3.2-.4 2.47-2.7 4.49-.6 7.08.9-.82.2-3.2 2.1-3.4h3.69a9.23 9.23 0 013.79 4.8c1.49-2.8 1.49-2.8 4.28-4.3-.6-.6-1.2-1.09-1.9-1.79h-4.48c-1.4-.7-1.9-2.6-3.4-2.4-1.68.2-2.58-.82-3.68-2 .6-2.29-1.1-4.98 1.2-7.27.6-.6-.3-3.6-1.2-5.5.5-3.19 4.29-1.4 5.48-3.5.41.42.85.8 1.3 1.14 1.6.4 2.2-1.9 4.6-.9.82.4 2.59.6 4.19 2.47-.1-3.09 1.29-4.98 3.48-6.49 1.3-.3 1.7.83 2.48 1.4.77.58-.2 2.2 1.99 2.3 2-1.4 3.9-4.29 7.08-4.9.6.3 1.2.71 1.79 1 1-.39-.1-1.7 2-2.29 1.5-.2 3.4 1 5.29 2.48.82-.4.3-1.4.9-2.2H386l2.3 2.3c4.94-1 9.47 1.2 13.96 3.5 1.4.7.7 3.39 3 2.69.59 1.5 2.68.7 3.48 2.1 1.1 1.99.1 5.08 3.7 5.48-3.7 8.08-10.68 8.59-17.26 9.78-.3 1.9 2.59-.2 2.39 1.2-.2 2.6-4.12 1.4-3.78 3.89l.02.03zm-190.68 79.16c.5-2-1.1-2.8-2.29-4.13V121l1.3-1.3c5.28-1.7 10.07 1.2 14.83 2.2l.7-.7c-1-1-2-2-3.1-3-5.77-.1-6.97-.3-11.06-2.7a7.17 7.17 0 01-.1-4.59h5.39c.39-2.1-2.1-.82-2-1.9.2-1.59-1.2-2.79-1.8-2.79-1.49.1-1.9-1.5-2.99-1.5-1.4.2-1.9 1.5-2.8 2.2-.82.4-.82-.7-1.29-.82-2.1.3-4.19 2.2-6.88.4.36-2.77-.3-5.58-1.89-7.89 2.89-2.1 4.12-5.09 7.18-5.99 1.7-3.6 6.09-4.94 7.78-8.68.5-1 .1-2 .4-3 1.3-1.4 3.39.3 4.88-1.09 1.49-1.4 3.5-.4 5.29-.6 2.4 2.7 5.09 5.3 8.67 5.09 2.3 2.1 2.1 4.79 3.2 6.49 1.3 2-3.3 4.4.9 4.89-.1 2-1.9 2.4-2.4 3.69 1.6 1.9 2.3-.9 3.59-.7 1.1.5 2.3 1.1 3.5 1.66.19 1.4.39 2.8-1 3.69.49 1.3 2.47.2 2.79 1.9 1.09-1.4 1.2-3.8 3.98-3.6 1 2.2-.1 4.6.7 7.2 2.8-2.7 1.9-7.2 5.19-9.49 1.29-.2 2.69-.4 3.59 1.1 1.1-.7.5-1.8.7-2.8.5-1.3 2.46-.7 3.18-2.1 1.7.3 3 1.8 4.89 1.4.9 1.4.3 2.8.4 4.12-1.4 2-4.3 2-5.39 4.29-.5-.4-.89-.82-1.79-1.6.9 4.96-3.99 8.39-2.3 13.48-1 .7-2 1.4-2.78 2 .4 3.5 2 6.08 3.78 8.48 1.79 2.4 2 4.19-.2 6.38-1.2.83-1.49-1.69-2.89-.89-.7.4-1.89.1-3.1.83 1.1.5 2.1 1.1 3.4 1.8-1.99 1.09-1.9 2.47-2.47 3.4-4.19.58-8.08.09-11.66-2.31.5-1.65-.6-2.59-1.6-3.39a38.28 38.28 0 01-21.02 3.22c-2.7-1.7-1.2-4.39-1.7-6.5-.7-.49-1-1.48-2-1.48-.7.2-.9.9-1.7.7zm882.57 350.47c.9 1.2 3.3 2.3 3.99 5.09 1.79 1.8 5.48.7 6.97 3.5.31 2.1-1.89 2.1-2.19 4.4l11.87 11.86c-1.8-.2-3.3.5-5.18-.7-1.3-.82-3.4-.4-5.29-.6-3.69-3.59-7.08-7.78-11.97-9.68-3.49.83-3.89 4-5.69 6h-7.45c-1.5-1-3.89-1.2-4.69-3.3-2.78-1-5.98 1.3-7.87-1.8l3.88-3.59c-2.09-1.1-1.79-2.7-1.79-3.6-4.69-4.49-11.54-4.11-16.25-8.08-4.3 2-5.19 1.4-5.29-3.39.7-.2 1.4-.5 2.1-.7-2.8-.3-4.59-1.9-5.99-3.9v-2.39c6.09-2.4 4.19-2.4 10.37-.4 1.1 1.1-.5 3.4 1.65 4.13-.39.4-.82.9-1.09 1.2.99 1.1 1.99 2.1 2.89 3h2.47c1.4-2.9 4.59-3.8 6.09-6.2 9.89 1.9 18.64 5.89 28.42 9.19l.04-.04zm-106.8-2c-1.2 3.7-4.4 1.6-5.2 3.9-1.69-1.5-4.11-1.7-4.68-3.4-2.3-1.1-3.3.9-4.79 1-2.9.1-4.49-3.2-7.58-2.3-1.8-2.79-2.09-6.08-4.28-8.57-2-2.3-1.1-5.3-1.2-7.89l2.99-2.99c1.3 1.2 2.19 3 4.94 2.3.7-2.6 2.9-4.3 5.5-5.5.3-.18.64-.3.99-.4 3.1-.82 3.19-4.39 5.38-5.88 2.2-1.5 4.9-1.5 5.99-4.7.5-1.5 2.19-3.59 4.48-2.79 2.4 2.4 4.6 4.7 6.98 6.99-1.3 1.2-2.89 2.7-4.48 4.3a12.69 12.69 0 003.78 10.47c-5.08 4.29-9.17 9.18-8.87 15.47h.04zm-273.75 79.16l-2.85-2.88c-.7-2.47.4-5.3-1.3-7.98-1.2-1.9.6-4.12 1.5-5.9.59-1.19 1.9-1.99 3.09-3.19 0-2.09.3-4.2-1-6.6-1-1.89 1.3-3.78 1.5-5.98.1-.7.82-1.7.89-2.47 2.8.2 4.79-1.6 7.49-1.7a6.83 6.83 0 005.48-3.99c.7-1.6 1.8-2.47 2.7-3.8.9-1.31 1.64-2.47 2.58-3.78.2-.3.7-.3 1.4-.6 3.78 3.49 3.2 8.25 3.3 12.87-.4.9-1.4.5-2 .9-1.5 7.2-3.19 14.37-7.18 20.76a19.78 19.78 0 00-2.47 7.42c-.7 5.5-4.88 5.77-8.67 6.9-1.2.4-2.7.1-4.38.1l-.08-.08zm-4.3-439.04c1 3.8-.39 7.48-1.39 10.88-1.59 5.2-.9 9.28 2.7 13.37 1.59 1.8 3.58 3.2 4.89 4.6.3 1.8-.9 2.09-1.4 3.09h-6.29c-2.47-1-4.48-3.9-8.07-3.8.48-.52.92-1.09 1.29-1.7-1.4-.9-2.9-.3-4.19-.5-.6-1.19-1.2-2.3-1.8-3.59.11-1.6 1.8-2 2.6-3.5-2.99-3.08-.7-5.68 1.2-8.67a6 6 0 01-1.1-5.77 25 25 0 012-1.4v-6c-.83-.19-1.3-.29-2.6-.69 1.8-1.2 2.3-3.3 4.4-3.3 1.79-2.99 3.58-5.88 5.38-8.77 1.1-1.7 2.99-2.6 4.69-3.3 5.48-2 5.48-1.8 9.06-5.7l2.89-2.88c1.7-.5 2.2 1.78 3.79 1.29.3 1.7 2.1 2.8 1.7 4.79a3.9 3.9 0 01-.4 1c-2.3 3.09-5.98 4.5-8.58 7.19-3.19 3.39-6.28 6.88-7.88 11.27-.82 1.6-1.9 1-2.9 2.1h.02zm332.2 200.9c1.3-2.47 2.09-4.68 1.7-6.68 1.79-1.4 2.29.4 3.3.7 3.99-1 4.48-4.69 4.94-7.69.5-2.7 1.1-5.77-.7-8.68-.82-1.3-.1-3.4-.1-5.39h4.29c.39.4 1.19 1.3 2.09 2.1 3.7 3.49 3.99 7.78 2.6 12.37-.29.49-.49 1.03-.6 1.59.2 2.1 1.7 3.89 1.29 6.19-.3 1.9-.39 3.89 1.1 5.59.2.2 0 .82 0 1.2.11 1.5-1.59 1.6-1.79 2.4-1.4.29-1.8-.5-2.4-1-1.19 1.2-3.19 1.2-4.29 2.8-1.09 1.59-2.99.29-4.48.88-.7 2.7-3.09 4-4.69 5.9-1.39-.83-2-2.2-2.59-3.6-.5 3.9-4.89 3.6-5.98 5.99-1.6.3-1.8-.7-2.6-1-1.49 1.4.6 4-1.59 5.3 1.65 1.68-.31 2.79-.6 4.28h-3.7c-1.19-.6-2.47-4.6-1.99-6.78-.82-.6-1.69-1.2-2.47-1.8 1.6-2.7 2.79-5.09 4.48-7.08 1.8-2.2 3.99-4.13 6.08-6.2 3.1.83 5.69-1.59 8.68-1.39h.02zM925.55 459.45c1.3 3 4.69 4.2 6.48 6.9.63 1.05.94 2.26.9 3.49 1.4 1.3 2.89 2.6 4.29 4 .82-1.21 2.2-1 3.58-1 .63 1.34 1.3 2.68 2 3.99-1.1 3.48-3.1 6.78-2.59 10.57h-7.88c-.9-.5-.3-1.7-.9-2-5.88-3.49-9.89-8.57-13.19-14.46-3.38-6.1-6.98-11.98-12.06-16.87-1.9-1.8-4.59-2.3-5.99-5.1a3.82 3.82 0 01.4-2.78c5.49.4 9.57 4.68 14.84 6.38.3.7.6 1.9 1.2 2.3 2.99 1.4 5.39 4 8.88 4.58h.04zm-397.6-208.98l-1.7-1.7 1.2-1.8c-1.5-1.2-2.8-2.39-3.7-3v-7.27c1.1-1.8 1.9-4.12 4.3-5.5h3.88v3.9c1.1 1.4 2.48.4 3.4.9 1.69 2.9-1.1 4.94-.83 7.78 3.2 2.6 4.59 7.08 8.25 9.48.1 1.1.2 2 .3 2.9 1.5 1.9 3.69 2.19 5.58 3.19.7 1.3.3 2.7.3 4.12l-2.2 2.2c.34.61.7 1.21 1.1 1.8.2 1.19-1.1 1.6-1.39 2.18-6.29 1.7-12.77 1-18.75 3.9-.4-.4-.9-1-1.5-1.6.6-2.4 3.2-3.2 4.79-5-1.6-.99-3.89 0-4.88-2.58.82-.5 1.69-1.1 2.39-1.5v-4.3c1.39-.6 2.89-1.2 3.58-2.59.83-2-1.3-3.2-1.39-4.88-.74-1.03-1.84-.34-2.74-.63zM243.02 65.02s.4.4.9.82l.89-.92c.3-.3.5 0 .9.2 1.5.82.9 3.6 3.3 3.4.2 1.49 1.7 2.47 1.6 4.18-.1 1.72 0 3.2 0 4.7.9 1.1 2.09.3 2.79.7 1.49-.9.3-2.3 1-3.3.59-.3 1.29-.5 1.99-.83.6-1.2-.2-1.8-1.1-2.6 1.5-1.3 2.99-2.59 4.69-4.19a3.36 3.36 0 012.6.4c.19 2.9-2.4 5.7-1 8.79 1.69 1.9 2.19-1.3 3.58-.83 1.2 0 1 .9 1.1 1.7.1.5.7.9.9 1.1-.3 3.5-3.5 4.69-5.29 6.78-1.7 1.9-4.99 2.3-7.57.83a7.16 7.16 0 00-6.3-.5c-3.88 1.9-7.77.4-11.46 1.1-.82-1.1-.6-2.48-1.6-3 .7-3.3 4-1.1 6.3-2.79-3.5-.9-6.9.6-8.59-1.1-2.2-1.1-.82-3.2-2.8-3.1 1.2-2.99 3.7-2 5.4-2.19 1.2-1.1-.4-1-.2-1.6a14.84 14.84 0 017.97-7.75zm348.68 27.55a4.28 4.28 0 00-2.29 4.12c0 3-1 5.59-2.2 8.19-.82 1.8-.1 3.5-.82 4.89-.5.9-1 1.7-1.2 2.09a2.19 2.19 0 01-2.59-1c-1.2-2.2-2.2-4.48-5.38-5.08-.7-2.48.82-5.5-1.7-7.3.7-.82 1.1-1.19 1.5-1.64-.82-1-1.9-.4-3.19-.6-.82-1-2.1-2-2.8-3.4-1.29-2.47-1.99-5.19-3.59-7.59-.5-.69-.1-2-.1-2.8 1.1-2.58 4.13-1.39 5.6-2.98.68.6 1.48 1.4 2.38 2.2.7-1 1.4-1.5 2.2-.1 1.8-.4 1.7-2.3 2.47-3.4 1.79-.7 2.99.6 4.38 1.1a2.96 2.96 0 012.4 2.4 14.15 14.15 0 004.49 6.28c1.1.9 2 1.9 1.59 3.4.1.9-.3 1.3-1.2 1.3l.05-.08zm543.8 591.84c-3.09-2.2-7.18-3.2-7.28-8.19 2.4-2.3 4.69-4.89 7.42-6.98a88.28 88.28 0 0110.46-6.79c2.3-1.3 4.29-2.2 5.99-4.69 2.09-3.1 5.18-5.77 7.42-9.07 2.39.6 3.09 4.12 7.08 1.8-1.6 2.7-2.29 4.4-1.7 6.1-3.09 3.88-7.28 6.37-9.47 10.87-.7 1.4-2.09.9-3.49 1-2.09 2.29-4.79 4.29-6.29 7.48-1.88 4.19-5.87 6.09-10.06 8.48l-.08-.01zM481.58 187.16c2.58.9 4.12-1.59 6.48-1.2 1.99.3 4.39.83 6.18-1.19 1.5.7 2.99 1.6 5.08 1.5-.1 2.1.3 4 2.4 4.99-.82 1.2-1.4 2.39-1.1 3.7-2.79 4.38-8.18 4.98-11.37 7.78-5.38 1.49-10.06-1-14.66-1-.82-.6-1.39-1.1-2-1.6l2.4-2.4c-1.4-1.5-2.59-3.2-4.88-3.69a16.1 16.1 0 012.39-1.8c.82-.4 1.9.5 2.6-.9-1.9-.9-4.7.83-5.77-2.19 1.39-2.9 4.68-3.1 7.28-4.2 2.47.83 1.7 3.3 2.6 4.8 2.08.5 1.98-1 2.38-2.6h-.01zm298.4-136.12c1.99 0 2.79 1.1 3.59 2.19 0 1.9-1.9 2.4-2.8 3.7-4.18 1.49-7.98-2.2-12.46-.7a27.59 27.59 0 00-1.7-2.48c-1.6-.2-2.6-.2-3.5-.3-.88-2.39.41-4.89-.82-7.19-1.5 1.3-.1 3.1-1 4.7h-5.28c-1-1.4-.7-2.8 1-4.3a486.1 486.1 0 00-3.9-3.3c-.09-1.68.6-3.29-1.4-3.69l3.2-8.37c4.94 3.09 10.47 4.95 11.67 10.68 3.19.1 5.98 1.39 8.68.49 2.69 2.4 4.68 4.7 4.68 8.58l.03-.01zm-505.13 64.58c.1 1.5-1.2 1.1-2 1.3-1.4.83.83 3.3-1.7 3.49-2.79.5-5.68.9-7.68 3.5-.82-1-1.59-2-3.09-3.8a6.24 6.24 0 00-1.49-4.69c-1.1-1.3-2.3-2.6-3.39-3.99 1.7-1.7.3-6.39 4.95-5.59 1.7.5 1.8 2.3 2.8 3.9.99-2.3.1-4.4.82-7.3.5-.3 1.6-1.1 2.8-1.9 1.68-1.39 3.68-.59 5.57.41 1.1 0 1.3-1.7 3-.9.5.9 1.09 2.1 1.6 3l-4.95 4.94c1.7 2.9 3.19 4.9 2.8 7.59l-.04.04zm622.82-64.5c.6-1.1 1.2-2.3 1.8-3.5h4.88c.82.7 1.6 1.5 2.47 2.4 1.2-.9.1-2.3.9-3.5H913c1.1.83-.2 2.3 1 3.5 1-.9.4-2 .7-3.4 1.98-.1 4.12-.2 6.68-.3.6 1 1.39 2.2 2.19 3.5-.5.7-.1 2.4-.3 3.79-.3 2.3-4.89.1-2.47 3.6h-3.6a25.23 25.23 0 00-3.19 3.79c-1 1.6-3.3.5-3.59 2.47-8.18-3.9-8.18-3.9-12.76-12.37v.02zm105.71 432.15c-1.8.9-3.6-.4-4.3 1.7-2.47-2.1-2.68-4.9-3.98-7.29 1 2.8-3.7 4.99-.4 7.88-1 1.3-2.1 2.4-4.49 1.7-.46-.4-.89-.84-1.3-1.3-.6-1.9.83-2.2 1-3.2 0-1.59-1.65-1.99-2.4-3.29-.39-4.5 2.6-8.19 3.4-12.37.5-2.6 1.8-3.4 3.59-4.59 1.4-.9 3.1-1.1 3.9-.6 2.78 1.8 5.76.82 8.56 1.2 1.4-1 3.19-1.1 4.12-2.48.9.7.83 1.5.61 1.8-1.2 1.4-2.48 2.59-3.89 3.99-4.29 1.6-8.18-2.47-12.97-.4-.1.1-.7.7-1.3 1.2v2.47l1.8 1.8c2.69-2.8 6.68-1.9 9.67-3.7 1.1 1.1.83 1.9-.1 2.7-1.49 1.5-4.12 1.6-4.94 4.8-.1 2.47 3.59 4.39 3.49 7.98h-.07zM237.75 65.72c-1.2-.9 0-2.3-1-3.4-.2-.2-.4-.1-.83.3-1.98 2.9-5.28 3.7-7.97 5.4-.9-2.7-4.49-3.1-5.58-6.2a8.67 8.67 0 016.18-3.39c1.6-.2 5.77-2.2 7.28-2.9 2.89-1.38 5.68-4.28 8.87-2.98 1.9.82 3.8.5 5.49 1.29.6.9.2 1.9.2 2.47-4.16 3.62-6.76 8.83-12.64 9.41zm807.96 221.86c-.82 1.8-3.09 1.6-4.28 3.2-.3-2-1.7-3-2.9-4.3v-4.11c1.1-.9 2.48-2 3.5-2.9.4-3.9-1.4-6.8-2.4-9.98.5-.5 1-1.1 1.7-1.9.1-.2.3.3.7.4 2.99.4 3.89 3.5 6.59 4.59 1.9.7 3.09 2.7 5.69 2.4 1.1-.1 2.29 1 3.49 1.59 0 1.1.6 2.7-.69 3.2-3 1-3.8 4.12-5.99 6.08-2.89-.3-5.77-2.19-9.27-.82 1.57.76 3.07 1.16 3.86 2.56z" opacity=".20"/>
      <path d="M586.78 81.63a2.96 2.96 0 00-2.39-2.4c-.6-2.8 3.1-3.5 2.9-5.99 2.58-.4 4.28 1.2 6.28 2.3.7-1.1.9-2.6 1.9-3.2 3.68.83 7.07 1.5 10.66 2.3v4.29c-1.3 4.7-4 6.6-7.87 7.08-1.1-1.1-2.8-.82-4.5-.7-1.7.12-2.68-1.4-4.18-1.59-.4-.6 0-1.6-.9-2.1h-1.9zm-75.88 184.6l-2.48-2.48 2.8-2.8c1-3.89-2.1-5.98-.2-9.28.5-.5 2 .3 3.59 0 .6-2 2-3.5 4.12-5.09 1.3 2.1 4.4.7 6.18 3.5.82 3.39-2.47 6.88-1 10.78-3.99 2.79-7.57 5.77-12.96 5.38l-.05-.02zm430.6 221.16c3.42.04 6.7 1.35 9.18 3.7 1.6-.5 3.49.3 5.77-.9 3.1-1.6 8.77.5 11.54 3.7.51.5 1.18.82 1.9.9a9.72 9.72 0 015.77 3.48c-4.8-.2-9.19 1-13.67-.9-2.2-.9-5.09.5-7.28-1.4-3.99 1-7.58-2.09-11.47-1.09-1.4-1.2-2.4-2.8-4.29-3.1-.2-1.59-.4-3.19 2.47-4.38h.09zM299.88 49.75c.9 2.3-.69 4.5 2.2 5.77-1.7 1.3-3.1 2.4-4.39 3.5.9 2.39-1.4 3.39-1.2 5.18-1.5.7-2.89.3-4.59.3-.49-2.1.4-4.68-1.69-6.59a17.39 17.39 0 01-5.98-2.8c-.1-.19.2-1.2.3-2.47 2-.6 4.94.83 5.98-2.39.2-1.9-2.39-2.1-2.39-3.5-.1-1.6 1.3-1.79 1.5-2.69h5.18c2.4 1.7 1.7 5.5 5.08 5.69zm692.5 367.68c.9-.83 1.29-1.2 1-2.48-.83-.82-2.2-1.7-2.9-2.99-1.3-2.2-3.1-4.5-1-7.42 1.1-1.6.2-3.5.5-5.3.5-.49 1.1-1.09 1.65-1.58h4.97c2.89 1.39.82 4.79 3.69 5.88a14.25 14.25 0 00-4.3 6.09c-.2 1.5 2.7 1.6 1.3 3.3 1.6.82 2.3-.11 2.9-.83 5.28 3.2 5.28 3.2 5.18 7.18-2.69.2-3.29-2.59-5.59-3.58-.82 0-2.19-.4-3.48.3-1.2 1.6 1.3 2.29.9 3.88-.4.4-.9 1-1.4 1.5-.7.4-.7.4-3.4-4l-.02.05zM277.34 75.7c1.7 1.2 2.19 1.6 2.9 2.1.99-1 .89-3.2 3.29-3.6 2.1 1.1 5.38.5 7.08 3.4-.2 6.38-7.18 8.18-8.48 13.57h-5.58c-1.7-1-2-2.47-1.6-4.3.6-.19 1.3-.49 2-.7.1-2.29-2.7-1.58-3.4-3.09.6-2.79 4.29-3.28 3.79-7.38zm-4.8 316.19c-.82.82-1.19 1.49-1.58 1.59-3.39.3-6.6 2.4-10.17 1.5-1.1-1.1.4-3.7-1.7-4-2.1-.3-2-3.2-4.12-3.1-1.8.1-3-2.09-5-1.29-.39.2-1.09-.1-1.68-.3-4.5-1.4-5.77-1.5-10.68-.9-.9.1-1.99.4-2.99-.6 3.9-3.5 7.98-5.69 13.36-3.09 1.5.7 3.4-.3 5.09.83 6.12 3.46 13.3 5.06 19.48 9.36zm785.34 262.57c.5-4.48-1.1-9.38 1.6-13.96 3.79.1 7.48 3.09 11.27.1.39.49.9 1.19 1.6 1.99a47.22 47.22 0 01-1.5 4.95c-1.49 3.7-3.79 6.6-7.88 8.18-2.39.83-3.59.4-5.09-1.3v.04zM790.42 64.72c-3.3-2.8-5.09-5.77-4.49-9.9.3-2.28-2.19-4.18-.82-6.97 3.9-1.5 7.18 2.19 11.37 2.3.82.82 1.7 1.88 2.8 3.09v3.49c-2.47 3.1-6.97 4.2-8.86 8zm216.4 377.56v-1.6l-1.69-1.7c-1.89-.6-3.19 2.7-5.29.83.83-2.3.83-2.3 2.7-4.4h4.89c1.99-1.99 3.58-3.98 6.47-4.68.61.7 1.5 1.8 2.7 3.2.3 1.9-.82 4.59 1.39 6.38-.9 1.9-2.39.6-3.89 1.9-.69.7.7 2.47-.39 4h-3.99a37.77 37.77 0 00-2.9-3.93zm-713.43-43.41c-1.1 1.4-2.19 1-3.09 1.1-.9.1-2.09-.2-2.99.1-2.4.6-4.69 3.49-6.78 2.19-2.6-1.7-5.09-.4-7.68-1.2l-1.6-1.6c.5-.6 1.1-1.1 1.3-1.4 1.6.3 3 .61 4.59.9.1-1.79.2-3.18.3-4.78h11.67c1.2 1.39 3.19 2.8 4.28 4.69zM268.76 52.25c-.4 1.4 1.6 1.5 1.2 2.59-.3 1.8-2.3 1.2-3.1 2.4-.8 1.2.1 3.19-2.39 3.39-1.89-.2-4.39 1.4-6.48-1.4v-4.5c-.7-1.58-2.2-.68-2.7-1.79 0-1.5 0-1.5 2.9-3 .9.41.6 1.41 1 2.21 3.19.1 6.38.1 9.57.1zm580.32 383.14c.1 1.8-.3 3.1 1.1 3.8-1.5 1.4-1 3.2-1.1 4.88-.83 1.9-3.5-.59-3.8 1.8-3.58-1.4-4.18-4.79-4.38-7.48a7.7 7.7 0 013.09-7.09c2.18.74 3.08 3.1 5.04 4.1h.05zM591.67 92.57a1.06 1.06 0 001.2-1.2h4.69c-.2 1.4-1.7 2-.7 3.39.9.6.9-.9 1.9-.7a10.16 10.16 0 004.94 4.8c-.83 1.8-1.2 3.58-2.9 4.69-1.39.5-2-1.1-2.99-1.5-.82.6-1.4 1-2 1.5l-1.7-1.7v-5.89c-.61-1.4-2.14-1.9-2.44-3.4zM305.86 54.34c.82 3.4 3.5 5.7 2.9 9.9-.9.5-2.3 1.4-3.6 2.2l.6.6h-3.59l-1.7-1.66c-.7-4.59.7-8.24 5.39-10.98v-.06zM1108.25 485c1.09-.9 1.99-1.9 2.09-3.3 1.99-.99 3.39 0 4.58 1.5-2.59 4.12-2.59 4.12-6.67 6.69-3.1-.1-6.49.7-9.38-2.4 2.59-3.19 6.09-2.4 9.38-2.47V485zM990.57 382.9h-2.3c-3.98-4.58-1.29-8.87.9-13.27h2.7c.2.2.5.3.5.5-.12 2.23-.09 4.46.1 6.68.1 2.29-1 4.12-1.9 6.08v.02zM939.8 46.57c.7.82 1.2 1.4 1.6 1.9-.3 2-2 2.58-2.9 3.79-3.6-2.2-8.68.4-11.54-4.12-.1-.6.9-.83 1.3-1.6l11.54.03zm-282.92 12.8c3.39 3.1 3.5 3.4 1.6 5.78-1.4 1.6-2 3.5-2.9 5.49h-3.89c-1-1.1-.6-6.3.83-7.09.82-.5 2.39.4 2.47-1.6 0-.81 1-1.51 1.89-2.58zM285.2 92.86c1.65-1.75 3.31-3.48 4.99-5.18 1.2-.3 1.69.82 2.59 1.5v6.46c-.9.9-1.7 2.6-4.49 1.1-.62-.68-1.79-2.28-3.09-3.88zm669.55 302.71c-.2.17-.37.38-.5.6l-2.6 2.6h-3.78c-.83-.9-1.7-2-2.69-3.1.2-.6 1.5-1 1-2.2 2.29-2.39 5.18-1.99 7.97-1.89 1 1.3.1 2.8.6 3.99zM924.34 72.51c.2-1.9-.82-4.13 2.6-5.5a9.19 9.19 0 017.08 1.9v2.4c-4.48 2.07-4.48 2.07-9.67 1.2zM268.76 52.25c-.6-2-3.4-2.6-3.69-5.2 1.2-1.39 2.9-.59 4.29-.69 1.7-.1 3.4-.1 5.08 0 .7 1.8.3 3.8.3 5.89h-5.98zm735.67 449.12a46.38 46.38 0 0111.37-4.6c.6.83 1.1 1.4 1.9 2.4-.51.1-1.3.3-2.1.5.2.3.5.6.69.9h-3.09c-1.39 1.5-2.58 2.9-3.38 3.7h-4.89c-.9-.9-.3-1.9-.5-2.9zm-685.9-337.34h-5.69c-1.4-2.4 1-3.7 1.1-5.5 2.39-.69 4.79-3.58 7.18.7-.8 1.3-1.7 3-2.6 4.8zM572.4 311.24a7.34 7.34 0 012.6.1c.7.2 1.2.9 2 1.5v6.48c-1 1.6-2.4 2-4.2 1.7-1.2-1.1.3-3.3-1.69-4.12 1.8-1.4.9-3.4 1.3-5.7v.04zm111.5-256.7c.4 2.2-.82 4.4 1.3 5.89l-1.7 1.7c-2.19.2-4.38.7-5.67-2.3 1.59-1.5 1.49-3.79 1.29-5.69 2.39-1.5 2.8 2.6 4.79.4zM43.29 185.6c-2 3.99-5.88 4.38-9.06 5.59-1.5-.83-.6-2.6-2.1-3.1.7-2.1 5.99-3.4 11.17-2.48v-.01zm55.15 46.6c-1.9.3-2.2-.82-3.19-1.4v-6.6c1-1.19 2.3-2.38 4.39-1.38 1.5 3.3-.9 6.18-1.2 9.38zM4.39 126.9c2.6-.89 3.59 1.2 5.19 1 .7 1.7 2.1 3.2 1.8 5.3-3.5.7-3.5.7-5.3-2.8-1-.2-1.88-.3-2.88-.5-.1 0-.2-.3-.3-.5 0-.4-.1-.9.1-1.09a8.8 8.8 0 011.4-1.4zM303.17 72.9c-.9-1.2-3.2-1-4.12-2.9.6-.49 1.2-.99 1.89-1.64a9.89 9.89 0 017.68 1.6v2.98l-5.45-.04zm681.61 422.88c1.5.82 2.7 1.4 3.9 2v1.2c-.3.19-.6.6-.9.6H977.1c-1.3-1.7 0-2.3.9-3.4 2.09.9 4.48 1.9 6.77-.4zM666.76 59.36c-.7.7-.5.4 0 0 .4-.9-1-.9-1-1.49-.4-1.6 1.2-1.9 1.6-2.8 1.88.9 3.75 1.83 5.59 2.8v2.69c-1.7.9-3 .4-4.29-.83-.3.83-.5 1.5-1.1 3-.4-1.4-.6-2.4-.82-3.4l.02.03zm323 438.25c1.7-.5 2.9-1 3.8-2.2 2.7 1.8 5.38 1.9 8.08 1.7.49 1.6-1.3 1.4-1.2 2.29h-8.97c-.5-.63-1-1.03-1.7-1.82v.03zM685.52 159.34a3.04 3.04 0 11-.84 5.9 2.86 2.86 0 01-1.85-2.7 2.91 2.91 0 012.69-3.2z" opacity=".20"/>
      <path d="M683.92 54.84c.6-1.6-1.1-2.4-1.2-3.69 2.47-2.7 3.39-3 4.94-1.7.6.5 1.2 1 1.1 1.9-.11.9-.1 1.2-1.9 3.39-.95.1-1.95.1-2.94.1zm348.33 423.27v2.9c-3.09-1.6-6.88-.2-9.47-2.8l1.65-1.7c3.89 0 3.89 0 7.78 1.6h.04zM671.85 63.92c2.3-.6 4.48-3.69 7.08-.1-.9 2.48-3.5 2.9-5.39 4.3a3.7 3.7 0 01-1.69-4.2zm-18.96-.5c-3.3-.4-4.12 1.6-4.48 3.6h-2.7c-.5-.6-1.1-1.1-1.5-1.6 1.3-1.3 2.7-2.7 4.9-4.79 1.1-.4 2.3 1 3.79 2.8zm373.28 399.12c-1.39 1.4-2.79 2.9-4.12 4.3-.56-.58-1.13-1.14-1.7-1.7-.1-1.9-.59-4 1.5-5.3 1.39.5 2.99.9 4.29 2.7h.03zm-23.34-35.73h2.29c.21.4.51.82.41 1.1-.6 1.5-2 2.8-1.1 4.5-2.69.81-4.18.19-4.94-1.9-.1-1.8 1.29-1.2 1.99-1.6 1.06-.5-.04-1.7 1.35-2.1zM849.16 89.87c-2.3.2-4.29.7-5.77-1.3.4-1 .9-1.99 1.3-3.09 3.9.2 3.9.2 4.48 4.4h-.01zM276.04 79.09c-2.29.3-3.09-1.5-4.98-1.5 2.47-1.49.5-4.18 1.9-5.69 1.68-.3 2.19 1 3.08 1.7-.2.3-.5.6-1.1 1.3-.4.7 1.6.82 1.2 1.9a6.02 6.02 0 00-.1 2.3z" opacity=".20"/>
    </g>
    <g fill="#565559" opacity=".20">
      <path d="M1185.35 639.3c-3.9 1.26-17.02 23.52-17.94 12.62 3.19-2.47 2.16-5.9-.14-9.12.38-4.3 6.48-5.77 6.1-12.8-5.97-21.77 6.94-13.41 2.48-3.46-1.77 2.94 4.73.71 3.29 3.77 3.14 4.85 7.42 1.43 6.19 8.98h.02zM578.31 245.7c9.07-2.08-.5-10.94-1.4-17.46-9.89 13.83-23.4 1.78-15.35-4.3-3.23-1.87-2.33-6.1-4.95-10.18 28.28-15.26 21.55-33.68 33.9-39.82-7.99-3.54-.18-.15 1.27-8.13 1.33-1.23 14.22-2.1 10.6-5.84 4.95 2.91 15.53-10.94 13.86-4.2 2.73.32 5.38-6.38 7.68.3.4-.4.9-.82 1.65-1.5 2.6 1.9 10.66 3.59 2.7 7.1 51.93 5.3 45.29 33.9 13.76 20.06 7.1 3.66 5.7 14.73 16.15 16.76-10.52-8.94-.32-9.43 5.89-4.68-1.16-7.81 3.44-9.62 6.49-12.88 12.67 4.53-6.74-12.76 7.18-15.57-.4 2.16 5.3 5.23.9 7.42-3.01 2.1 5.1 7.13 6.37 2.07 18.22-21.87 13.65-2.9 28.72-13.48 15.08 2.94 2.34-4.88-2.8-10.78 4.2-.6 6 .3 7.99 4 8.61-6.64 33.4 13.86 23.79 2.15-12.68-4.22-12.3-37.55 1.49-29.9 14.71 32.29 21.33 36.11 12.82 47.31 3.1.92 9.17-5.12 6.18-9.07 5.02-4.95-6.2-4.16 1.2-11.77-10.32 5-5.44-10.67-13.46-15.2-2.47-2.93 1.14-21.44 5.45-3.02 1.65-9.44 3.18-1.27 5.38-4.6-10.16-11.06 9.9-.19 15.76-.6-27.29-14.84-8.1-15.46 1.6-20.86-13.92-3.04 3.61-21.58 11.1-24.92 4.95-2.3 4.64 4.94 10.65-5.55 2.52-3.2-6.6-16.81 4.94-16.16 4.33 0 2.12 3.97 5 4.42 10-2.01 5.18 8.01 8.24 5.2 1-7.2 10.4-6.37 15.38-1.7 21.9 2.4-8.97 48 8.6 26.24-4.68-1.65 0-4.95 4.8-3.7.09.5.29 1.1.49 2 20.88-9.26 20.4 1.66 31.62-1.73 6.19-1.22-2.9-6.73 2.93-8.32 3.49-.06 11.11-1.8 14.46.6 2.85 4.63 12.99 9.66 6.44 11.65 7.85 2.02 16.19 13.53 12.26-1.8 6.54.3 30.1-3.95 14.26-11.47a5.01 5.01 0 013.59-2.4c-6.96-6.34 8.93-3.97 16.92-4.39 2.47.74 5.54-3.78 10.32-2.03 8.25 10.54 5.72 1.65 17.84 9.21 17.36-11.75 17.94-5.65 29.19 3.2 6.96-.09 10.35-6.35 19.37-5.59-.47-14.89 6.96.48 12.97 3.9 6.59-4.96-13.19-11.35-1.3-14.85 15.8-1.6 45.73-.39 56.52 7.26-5.26-13.02 25.17-2.64 13.19 5.41 13.14 17.42 2.36 10.4-2.58 15.08-4.95-8.35-6.25.56-11.29.13-9.28-5.9.45 2.47 3.11 5.36-.5.6-.9 1-1.3 1.5 1.8.96-.45 8.81-4.69 8.24 5.16 3.7 20.46 11.35 17.86 18.67-20.26-1.81-10.15 31.93-18.76 24.35-10.65-6.3-5.3 6.6-13.36 2.7-.7 2.1-1.7 3.78-4.38 3.88 2.33-.14-.6 19.8 5.77 14.08 2.41 5.77 11.24 10.9 4.23 16.3-.98 3.04 7.2 6.19 3.77 9.31-6.91 2.66-2.16 6.16-1.84 10.96-6.95 3.21 3.54 10.64-6.06 14.73-8.11-14.84-27.21-32.45-15.56-50.63-2.39-8.17 4.19-17.5 2.35-26.55-3.3-3.1-1.09-12.27-5.54-7.56 6.08 37.48-14.84-11.37-16.33 21.5-3.98 7.65 6.94 6.03.28 10.86-11.46 6.42-5.32-2.56-14.24-1.02-5.52 2.57-12.56 6.54-21.37 7.19-1.16 1.59-15.96 41.14-8.47 32.74 7.71 13.62 13.46-7.27 22.44 9.48v-9.62c8.93 7.35 10.33 18.84 18.25 28.75-2.4 3.3-3.96 8.13.26 12.36 5.49 2.93 2.56 10.04-3.08 5.87-4.46-10.71-5.26-21.33-12.37-31.19 2.7 22.46 4.71 33.7-8.31 52.99-3.94 4.88-5.55-4.55-13.03 5.9 2.39 4.44-2.88 8.14-4.89 13.37 5.62 7.33 21.51 21.67 3.51 24.23-6.73 3.15.82-12.37-11.78-16.84 1.1-10.45-7.85-7-13.07-1.5 1.72-20.18-10.28-4.45-11.46 2.28 7.42 9.55 6.29-.26 15.1 2.29 11.66 2.9-11.83 6.77-5.2 14.9 17.04 9.44 14.1 34.4-.82 49.06-4.78 5.24-18.74 4.12-24.14 12.32-6.7-6.32-14.65-3.06-15.06 6.6 4.07 5.41 13.18 8.36 14.1 17.24 6.14 9.34-8.79 19.05-15.26 19.94.74-4.7-13.38-12.84-17.88-16.42-11.35 21.1 21 26.26 14.74 44.19-13.93-2.92-11.61-17.64-22.72-27.62 3.96-7.76-1.18-36.65-11.41-26.06-7.22.88-2.48-9.77-9.14-12.67l1.5-1.5c-6.69-1.51-6.69-7.26-11.37-11.67-12.51 5.85-22.04 15.8-34.33 26.68-2.84 9.8-7.3 46.86-19.25 15.74-7.55-11.71-13.63-24.1-13.9-38.56-5.84 9.45-13.52 1.93-12.98-3.72-6.9-1.28-6.96-8.49-13.38-9.74-13.32 1.83-26.04 2.47-36.88-5.99-4.34 2.48-8.8 2.8-13.19-1.31-6.54.77-8.39-15.27-16.05-7.99 2.55 6.95 9.8 12.73 13.46 14.84.67 11.05 11.96 2.4 15.75-2.18 3.07-.99.83 3.9 5.59 7.22 4.42 1.54 7.28 1.73 10.18 6.75-8.97 21.66-39.26 32.48-59.35 36.33-2.58-11.66-7.37-24.25-18.46-31.03 1.27-9.9-9.94-17.09-15.55-25.66-9.72.97 4.62 11.35 3.38 18.37 8.88 1.65 4.48 12.1 10.64 16.53 7.27 11.54 14.38 15.47 24.42 27.73 9.23 5.3 36.32-17.22 21.78 11.15-9.6 23.8-56.88 36.55-36.27 63.95-.25 4.13.52 6.52-.2 10.68 3.53 16.07-25.95 16.08-22.33 29.22 4.8 17.05-8.64 11.09-9.07 17.8-7.34 25-29.54 33.43-52.13 32.68-11.44-8.33 3.07-6.8-12.85-27.97a141.23 141.23 0 00-12.89-36.63c.08-7.5 1.95-14.94 8.72-20.6-1.75-14.5-9.15-25.88-18.36-38.33 2.47-4.26 6.67-19.39-1.93-18.14-6.01-.82-9.8 1.89-10.42-1.47-5.47-13.73-18.96 1.02-29.33-1.07-7.7-4.02-14.15 6-21.8.4-10.08-5.02-15.4-11.23-21.84-21-20.67-14.91.1-20.27-9.07-39.88 9.31-20.22 14.28-19.57 27.2-30.99-1.02-15.67 12.3-13.44 13.86-23.16 14.08 6.15 24.83-5.64 39.7-4.43 11.67.72 24.3-6.24 18.55 11.72a9.7 9.7 0 002.63 2.47c11.8 1.77 17.9 7.59 29.38 11.31 4.46-20.05 20.55-1.87 36.27-3.63 6.15-3.88 10.98 2.12 17.3-1.16 2.82-3.83 10.65-20.56 0-19.46-3.64 4.94-7.5.89-11.41.1-12.14 5.32-19.41-5.49-19.2-16.77-8.51-.35-15.46 1.3-7.18 10.08-9.58 19.71-14.2-11.54-21.93-17.95-8.16-2.6-19.34-18.53-21.16-9.5 5.72 7.85 13.7 11.55 22.54 18.26-7.6 0-6.67 25.38-21.34 9.9 31 .2-5.38-17.8-12.36-25.86-6.3.08-7.55 7.38-14.84 3.3-6.73-1.15-2.91 5.77-7.28 8.9-12.02 6.6-6.51 7.05-8.4 13.07-7.75 10.78-11.27 3.3-17.85 8.65-4.6.27-6.8-5.4-12.92-3.6-.73-6.33-2.53-28.55 2.04-28.28 10.78-1.74 36.49 4.56 20-13.73 3.1-2.38-4.23-3.08-5.63-5.28-3.37-5.87 8.71-.96 11.81-8.78 6.8 5.9 16.25-21.21 29.32-18.07-3.56-10.39 3.43-31.21 7.58-8.28-8.24 8.75 3.25 6.48 13.28 7.9 4.16-1.5 10.34-7.89 13.75-1.72 10.03-5.29 2.26-15.99 10.13-16.9 2.68 1.54 2.42 5.18 4.6 2 2.95-3.71-12.24-15.44 9.6-11.85 2.67-1.73 7.93-5.77-.16-4.89-17.66 2.91-20.8 3.5-22.18-13.87 2.06-4.04 18.5-16.5 5.18-16.6-5.22-1.14-5.82 6.76-5.28 10.72-5.43 3.56-11.54 8.59-10.77 17.27 12.95 9.79 0 8.43-.23 19.52 2.34 8.05-1.94 4.9-7.35 8.32-2.39 3.5-3.03 1.03-5.58.2a3.7 3.7 0 01-2.07 3.42c-.71-2.04-3.37.33-2.79-3.5l-.03.04zM274.85 115.62c5.63-11.4 6.55-18.8 21.83-10.88.83 3.06-9.89 14.21-13.86 9.78-12.05 12.77-2.23-.52-5.43 19.63.62 3.24-4.12 4.56-2.62 6.44 3.14.4 2.84 3.94 2.67 6.67 8.17-5.88 5.48 3.93 3.69 9.49 3.08 6.6 12.48-15.77 16.65-14.78-5.55-1.9-17-5.77-9.07-12.47-1.1-.4-2.29-.9-2.99-1.1 11.46-25.63 31.4-21.4 22.26-13.98 6.9-2.96 31.97-1.69 21.54 10.68 6.73 1.2 2.41 7 5.49 11.18 4.69-5.2 12.42 10.2 14.06 13.88-4.4 6.68-4.8 6.28-3.5 7.68-3.46-3.98 9.9-3.12 0 0-.82.3-1.49.5-2.7 1 21.25 20.22 17.83 11.85 5.78 26.34-4.56-.69-6.28-17.19-10.2-4.63 8.09 11.62 6.74 23.78-7.15 12.02 14.27 22.32-11.7 2.78-15.67-8.25-20.24 2.1-14.72-10.05 1.9-6.45-2.66-8.16 13.33-8.97 7.09-15.27 6.6-2.14-3.2-7.08-5.67-9.32 2.55-2.39-.83-4.47-1.44-8.42 1.71-4.62-10.2 3.3-15.67-1.73.5 4.38 6.21 4.95 2.04 9.68-.68 2.38-5.62 1.82-3.88 5 4.03 17.7-23.27 3.46-16.25 13.93 4.24 5.2 18.52 24.16 1.04 11.92-9.73 10.4-13.03-.18-5.77-10.48-7.16 8.13-6.29 8.13-15.36 9.68-7.33 6.86-20.66 12.83-25.03 24.88-.4 6.47 7.1 7.17 2.9 15.04 12.26-2.66 14.91 12.79 27.58 13.37 4.95-.82.41 3.84 2.63 6.6-1.3 1.5-3.5 2.8-2 5.49.58-1.58 5.35-.43-.22 2.94 8.58 14.66 10.25-1.74 9.5-10.85 10.25-5.33 20.68-11.54 8.57-22.14 4.03-1.76 5.11-4.12 8.25-7.98-5.82-30.54 35.03-7.42 24.13 6.89 10.2 17.92 16.61-17.9 19.64 1.09 4.03 7.74.17 14.76 5.94 22.08 3.85 3.87 20.77 14.37 8.93 20.94 6.54 3.48-4.41 3.12 1.59 10.38h5.49c-.6 7.42 6.81 18.96-5.34 9.69-3.08 4.79-2.67 1.01-3.75-1.4h-11.9c6.95-13.12 20.65-23.25-.73-12.18-9.6.25-19.72-5.14-25.4 3.19 25.72 0-7.08 7.42 16.05 16.07.66-.83 5.41-7.42 7.23-1.75 4.33 2.24-12.47 7.42-16 7.64-1.76 3.8-10.4 7.01-6.69-2.7-29.32 9.81-10.9 12.6-19.23 16.23-17.08.14-15.15 19.2-21.36 14.51.18 10.2 1.04 10.08-5.58 14.77-4.42 5.5-16.69 8.2-17.46 16.14 2.72 7.79 3.9 32.25-5.35 15.86-5.17-4.46.67-7.92-3.8-11.12-9.12-4.5-16.98-6.02-24.92.82-9.35-2.08-22.9-2.28-26.85 9.23-4.25 18.14-3.77 38.32 19.02 30.6 3.81-7.71 9.75-14.71 18.87-8.55-4.56 7.83-5.7 11.47-8.87 19.47 44.45-2.6-6.77 30.09 37.91 23.15 3.44 2.53 2.95 6.16 7 1.6 1.13-7.43 23.46-14.9 17.43-7.89 6.75 3.51 2.13-6.08 9.82-.6 11.77 10.52 27.16-4.65 29.37 9.49 8.45.63 7.7 7.75 16.03 9.34 14.84-1.18 33.67 15.67 19.38 25.39 8.13-3.79 22.68.35 27.92 6.68 8.7-3.57 20.18 2.98 27.41 8.59 18.45 4.42-2.6 24.52-7.17 30.3-.95 39.92-12.64 31.7-27.2 39.96-9.69 4.8-4.31 15.77-11.7 24.24-14.44 12.46-4.62 22.09-25.79 17.98 11.4 11.75.37 20.12-12.77 17.76-.12 4.37 2.24 14.84-7.98 8.99-1.69 6.23 1.21 3.64 5.19 7.28-6.6 4.52-2.53 5.41-5.93 11.35-12.5 6.76 2.53 7.56 2.34 14.02-10.57 13.51-9.75 27.15 9.9 33.67-9.33 5.07-18.84 7.55-23.54-2.47-4.7 1.95-4.95.95-8.87-3.4.3-.1 1-.4 2.1-.9-3.53-1.33-4.38-11.54-6.13-10.81.09 7.42-9.23-12.37-6.22-14.64 2.94-2.47.13-6.72-4.31-5.48 13.7-12.3 3.3-6.96 8.07-21.36-4.64-3.91-.95 3.17-4.68 5.68-4.94-17.82 1.57-37.26-.65-57.34 3.7-60.48 5.77-36.44-21.61-59.92-4.7-13.35-14.41-23.25-21.09-33.96 10.87-14.14-5.05-2.24 6.2-21.52 10.06-6.11 13.67-23.23 1.87-27.6-3.42 9.67-14.79.98-19.34-3.48-14.27-14.75-9.06-10.72-26.97-16.32-6.02-7.52-9.26-6.95-18.36-5.62a87.51 87.51 0 01-28.02-13.73c-6.09-4.36 2.47-6.08-4.95-16.68-11.28-10.16-13.92-23.54-23.9-33.8-.33 11.44 10.14 23.08 14.06 34.54-9.13.61-9.5-14.14-18.05-18.27 6.02-5.15-6.3-13.19-4.78-21.43-2.23-8.84-17.1-8.51-14.56-24.84-12.1-17.57 9.89-38.42 6.41-58.76-6.55-5.77-13.19-16.25-.44-9.72-8.77-10.6 3.22-5.77-6.9-20.77 1.78-2.74 1.7-13.85-2.38-10.87 1.98.47-2.35 5.02-2.41.88-1.26-6.3 6.3-1 5.51-8.77-7 4.4-11.45-2.47-9.98-10.63 0-3.06 5.98-.13 2.21-5.33-1.43 3.06-3.3 2.68-5.5-1.55-1.93-9.07-8.93-10.25-15.8-13.49-16.45-18.75-2.64 1.73-27.99 1.45 2.8-2.9 2.8-6.99 6.19-9.18-3.66.58-5.39 4.2-11.87 6.18 1.6 4.13-.92 5.77-5.67 8.25-5.95 5.13-53.2 26.16-33.66 10.9 4.5 1.82 34.8-20.18 20.38-17.4-5.14-7.86-11.26 2.19-5.77-13.18-16.28 4.3-2.02-22.64 6.89-26.84 6.69 3.76 15.07 1.1 18.36-8.24-25 6.21-21.13-18.4-2.8-18.14 4.85-.1 3.07 1.88 4.29 5.27 6.9 3.38 10.82-4.23 3.1-8.37 5.03-5.72-5.06-18.03 7.8-18.42 9.07 2.75 13.04-9.56 24.73-7.83 3.42-3.55 12.07-4.72 18.42-3.8 1.29 5.21 8.1 5.31 6.72 11.7 8.91 1.81 19.9 10.85 26.92 16.35 5.35 1.87 4.46 11.54 10.39 10.36.51-6.55 5.88-2.4 10.79-2.77 2.47-.57 16.03-5.9 11.54.3 3.3 2.55 5.85-3.6 10.67-3-1.7 3.1-.83 6.3-1.2 10.19 1.7-2 2.8-3.3 4.12-4.7 4.27 10.93 2.35-3.61 17.31 13.49 21 8.69-1.31 7.82 4.5 12.19 7.71 5.05 17.2-4.42 15.86 10.05 2.77-2.84 2.05-8.68 8.88-8.68-2.22-.93-5.3-.42-4.28-4.38h9.57c-.57 12.94 17.83 15.56 22.25 6.89-4.12-2.47-2.67-5.2 3-7.2 2.15-7.58 11.87 9.07 0 10.78 3.15 4.37 4.22.36 9.98-2.6-1.36-1.18-2.3-2.37 1-4.94a20.42 20.42 0 01-4.8-4.3c-1.8-7.78 9.58-13.6 11.58-21.81zm119.87-64.37c14.73 2.4 7.19-16.77 33.1-8.48 0 5.88-1.16 10.24 4.8 4.38-3.8-6.37 6.75-9.67 6.07 2.38-.32 3.03 2.53 1.02 5.29 5.1-1.1-5.47-2-9.67-2.9-14.16 7.58-.25 7.1.82 5.49-4.9.4.4.84.77 1.3 1.1 5.77-8.14 6.8 1.32 12.06-2.47 5.12-8.72 28.13-3.95 27.13 3.82h-4.59c1.55 1.74 12.32-1.08 6.38 4.59 19.92 1.23 7.74 11.65-5.38 9.98 7.94 2.55-.82 3.95 5.68 5.08.5-2.59 2.2-3.79 3.7-5.28 4.86 3.8 2.98 8.75-3.5 11.77 3.37 1.4 8.55-6.36 11.87-3.3 2.72-7.78 21-1.7 13.06 5.44-12.37 7.35-15.9 19.42-22.26 31.5 1.65 1.77 3.67 2.47.1 3.68 4.56 4.04 5 1.65 3.89 8.79-19.65-7.17 4.43 8.12-7.56 14.26 6.13 4.56 2.92 4.95-3.51 5.5 4.12 5.07 1 5.27-5.19 8.08 7.3 2.76-3.3 5.66.95 11.13 5.94 11.97-7.9 11.83-8.52 2.34-2.2 3.38-.13 7.93 5.18 7.79.1 1.1.1 1.9.2 3.2-18.13 14.5-27.4 6.47-30.6 12.95-16.04 17.26-17.32 3.82-29.84 17.88 3.3 6.01-3.99 5.77-5.77 13.2-3.35 7.64-5.28 15.66-12.65 9.57v-3.2c-9.18 3.6-17.91-16.75-11.76-22.06-1.5-.1-2.4-.2-3.7-.2-.58-5.1 1.9-8.03-2.7-11.47 4.5-14.53 10.02-12.48 16.26-23.46-.82.82-5.28-3-4.75-.3 3.3 1.94-4.6 6.21-7.5.91a6.36 6.36 0 0110.16-7.09c-1.13-2.33-.64-11.49-5.77-5.4-1-1.09-2.1-2.09-3.4-3.49 10.3-15.52 4.71-46.43-19.08-40.04-3.7-1.03-9.77-17.1 2.14-13.65-28.15-22.47 36-11.54 15.66-25.56 1.69-6.8 5.18-5.47 10.46-9.9zm685.7 467.78c4.83-1.04 4.94 8.39 6.83 15.28 8.38 15.1 22.26 24.63 21.89 44.1-8.8 27.05-8.87 15.58-21.43 36.82-3.85 3.23-.14 10.72-7.2 10.5-10.63 1.52-8.89 8.91-17.23.95-4.29 5.9-13.19-1.15-15.96-4.22.97-14.76-1.51-4.75-2.89-16.1-1.65.92-.11 3.24-4.59 2.6 1.65-2.9 2.3-5.9 4.88-7.9-3.08-1.64-5.56 3.98-9.17 6.7-4.3-22.27-28.13-17.73-44.51-7.26-7.33-.23-13.2-.52-19.79 4.67-16.55-.59-10.09-5.03-7.9-14.65.93-14.58-7.76-29.75 2.04-42.05 53.99-20.86 10.24-4.6 48.04-29.85 5.36-3.5 5.24 4.45 11.48 2.68.26-15.19 41-18.04 24.33.3 32.74 35.7 16.86-42.73 31.18-2.57z" opacity=".20"/>
      <path d="M393.82 51.05c-14.23 2.48-18.59 14.56-33.91 12.48 6.42 1.08-.44 10.72-5.99 12.57.4.5.7.9 1.2 1.5-4.85.18-16.99 5.56-12.26 11.4.1 2.12-11.58 7.23-11.28 1.18-7.04-.52-14.3.56-21.03-6.1-14.7 15.73 28.93 3.11 19.7 18.83-3.02 8.67-45.74.6-30.18-14.28 1.31-6.93-7.91-6.23-5.26-12.99 9.26-4.58 4.76 6.77 16.74 6.15 1.48-2.88 8.33-1.96 10.07-2.75-.63-13.01 3.87-6.67 6.98-.83 2.79-5.01-5.15-5.84-1.9-11.98-12.28 7.15-18.9-5.66-7.7-10.99-1.54-.12-2.9-1.76-4.94-3.4 2.8-2.58 2.2-7.18 6.69-7.98-3.42-4.7 3.8-3.24 4.94-5.9.42-1.5-.6-4.43 3-3.42 3.95 1.46-3.35-8.99 7.33-.26-2.84 2.98-2.84 9.28 3.19 10.08-.4 2.47-2.7 4.5-.6 7.09 1.36-5.23 7.25-4.7 9.58 1.4 1.49-2.8 1.49-2.8 4.28-4.3-3.67-3.8-14.41-1.1-13.5-9.82 2.96-8.31-3.5-9.6 5.52-12.63 2.1 2.34 5.93-2 10.08 2.7 3.3-12.6 3.98-2.57 9.17-3.78 12.72-10.82 39.57-2.76 48.77 11.16-8.4 12.75-15.45 5.96-18.69 14.87zm-190.68 79.16c-11.24-22.52 20.97-2.3 13.06-10.49-3.73-3.97-16.49.06-12.37-8.78 7.86 0 4.4.48 1.97-4.32-7.6-5.35-13.35 8.67-16.62-7.96 7.64-4.65 12.28-14.78 18.6-18.14 10.55-4 24.48 10.4 17.3 18.96 11.54-1.36 3.22 3.5 8.88 6.6 3.35-5.68 4.87-3.97 4.69 3.6 2.58-1.97 2.98-13.1 8.77-8.39 1.65-9.21 17.25-3.04 3.79 4.89-.5-.4-.9-.83-1.8-1.6 0 6.45-3.33 11.5-4.7 17.47 2.53 8 10.49 12.62-2.78 12.77 1.1.5 2.1 1.1 3.4 1.8-10.28 11.38-12.01-5.37-20.31-.57-29.59 7.63-11.19-7.7-21.88-5.85zm882.57 350.47c1.27 4.13 9.41 5.7 10.8 9.83-5.16 5.04 6.06 9.4 9.84 15.02-9.46 2.48-14.91-9.52-23.95-10.4-4.48 6.6-10.94 7.86-16.34 2.12-4.06-.4-11.62.06-3.99-5.39-1.99-10.03-31.72-10.33-21.24-15.77-15.02-4.47 2.67-14.23 6.08-2.6-1.9 6.95 7.42 2.95 10.38-2 8.81 1.7 19.06 5.99 28.42 9.2zm-106.8-2c-1.2 3.7-4.4 1.6-5.2 3.9-10.15-6.73-22.44 1.09-22.25-21.44 6.12-7.02 3.15 5.82 11.3-4.88 11.7-4.84 14.7-23.46 25.69-7.78-5.34 2.71-5.71 10-.7 14.77-5.09 4.3-9.18 9.18-8.87 15.47l.02-.03zm-273.75 79.16c-6.76-7.32-4.32-13.56.43-22.06-1.18-4.43-1.28-7.85 1.37-12.97 12.8 2.2 24.3-29.39 22-.37-7.8 11.55-6.28 38.19-23.8 35.4zm-4.3-439.04c1.65 6.73-5.3 15.45-.06 22.5 13.73 13.24-.12 10.14-9.5 5.64 4.37-4.4-5.5 1.24-4.13-7.06.83-2.12 7.09-26.32 1.55-24.74 7.13-4.12 7.66-14.62 18.8-17.02 3.9-.97 6.08-9.54 11.42-5.64 5.63 5.38-14.44 19.87-18.07 26.34v-.02zm332.2 200.9c2.65-14.55 13.19 3.5 9.18-27.74 12.24-2.25 9.8 20.62 9.55 30.8-10.47-.69-16.79 14.35-19.03 5.63-2.9 7.42-9.38 2.87-10.17 10.28-.42 16.08-21.31-14.51 10.47-18.96zM925.55 459.45c4.49 4.27 6.6 9.16 11.67 14.38 7.86-4.42 3.68 8.25 3 13.57-14.37 1.76-20.17-15.4-28.04-26.29-28.04-28.53 1.03-8.37 13.37-1.66zm-397.6-208.98c-3.39-4.03-8.81-19.79 3.98-19.26.62 1.6-1.4 3.7 1.17 4.63 7.01.2-2.08 7.01 3.82 10.54 14.45 17.25 18.84 22.97-6.9 26.22-5.25 2.78-3.44-3.5 1.01-5.67-12.66-1.02 9.62-14.18-3.09-16.46zM243.02 65.02c7.12.34 5.47 6.43 9.07 12.99.67.82 6-4.46 3.21-6.6 7.42-7.12 7.25-4.72 6.28 4.95 9.6-2.2 4.45 7.58-2.35 10.31-6.36-1.02-36.97.97-17.98-5.92-5.2-.29-8.84-.06-11.38-4.2 6.63-3.1 5.75-7.7 13.15-11.53zm348.68 27.55c-6.73 9.54-3.06 34.8-16.16 5.88 3.01 1.22-20.1-23.39-.2-16.86 4.37.3 3.73-5.9 9.07-2.4.65.83 11.29 11.36 7.28 13.38h.01zm543.8 591.84c-21.53-10.88 15.67-19.88 20.99-32 4.56-7.54 3.72.36 10.02-1.94-3.98 11.93-23.44 28.58-31.01 33.94zM481.58 187.16c5.94 0 10.71-3.16 17.74-.9-.1 2.1.3 4 2.4 5-2.76 10.92-20.17 15.16-29.12 8.88 4.12-2.74 1.2-4.12-2.47-6.09 1.13-1 2.02-1.65 4.98-2.7-10.48.25-3.03-7.9 2.82-5.5.76 2.3 2.25 6.78 3.66 1.31h-.01zm298.4-136.12c14.15 6.31-20.54 10.71-17.65-4.8-.4 6.9-10.44 6.36-5.29.4-2-.68-3.7-4.44-5.29-6.99 1.1-2.9 2.1-5.48 3.19-8.38 9.41 3.52 7.86 8.36 14.01 10.93 5.48-.15 10.62 1.42 11 8.85l.02-.01zm-505.13 64.58c-2.2 4.12-5.99 4.63-11.38 8.29-4.78-2.02-11.54-27.75-.2-14.18-1.64-8.98 9.63-13.8 13.56-6.47-8.43 6.51-1.82 5.73-1.98 12.36zm622.82-64.5c2.52-8.53 9.07 1.01 9.77-2.73-.33-3.16 7.42-3.18 6.6 1.65.24-5.77 14.83-6.5 6.78 7.19-4.85-1.1-6.1 4-10.38 6.29-7.53-3.49-8.52-4.16-12.77-12.4zm105.71 432.15c-1.8.9-3.6-.4-4.3 1.7-2.47-2.1-2.68-4.9-3.98-7.29-3.06 27.36-13.96-9.73.83-15.84 4.67-.36 10.05 3.8 15.1-1.22 3.05 11.76-24.73-1.18-15.75 10.87 22.38-8.95-1.39.77 8.06 11.81l.04-.03zM237.75 65.72c-1.03-6.54-4.74.95-9.77 2.3-21.32-13.17 51.46-24.46 9.77-2.3zm807.96 221.86c-.82 1.8-3.09 1.6-4.28 3.2-7.01-12.45 1.16-2.48-.1-23.16 4.52 3.9 11.86 5.68 16.56 10.19-5.71 10.57-8.94 6.52-16.06 7.28 1.59.7 3.09 1.1 3.88 2.5z" opacity=".20"/>
      <path d="M586.78 81.63c-9.06-9.4 14.33-9.9 19.35-6.55.63 14.44-12.4 11.42-19.35 6.55zm-75.88 184.6c-5.5-4.95.74-1.8.5-7.1-2.48-11.54.66-3.83 7.27-12.56 12.26 3.45 4.57 20.75-7.77 19.65zm430.6 221.16c10.44 4.13 23.91.91 34.21 10.88-6.48.29-46.98-2.33-34.2-10.88zM299.88 49.75c.9 2.3-.69 4.5 2.2 5.77-5.77 3.18-7.22 18.14-11.87 2.4-.91-.97-7.36-.7-5.68-5.3 7.64-.97 5.77-.98 3.89-7.1 6.53-5.82 7.52 2.79 11.46 4.23zm692.5 367.68c3.21-2.67-4.23-5.77-3.8-10.81.51-9.33 6.89-13.7 11.68-3.06-2.98 2.37-4.95 5.85-3 9.38 3.39-2.08 12.12 5.12 6.69 6.19-2.28-1.1-5.12-6.13-7.99-2.04 2.15 2.39.4 8.16-3.59.34zM277.34 75.7c3.67 3.42 2.52.82 6.18-1.5 8.32 1.42 8.7 5.46 2.73 11.08-3.98 7.42-14.96 9.16-9.7-.34-6.6-2.86.84-3.77.79-9.24zm-4.8 316.18c-20.91 10.43-1.16-7.06-37.91-7.09 10.49-9.8 26.13 1.56 37.92 7.1zm785.34 262.58c-1.41-15.66 3.22-15.3 14.47-11.87-.54 4.82-7.42 17.9-14.47 11.87zM790.42 64.72c-3.68-2.03-9.54-19.78-1.54-16.96 18.04 4.6 9.16 9.41 1.54 16.96zm216.4 377.56c1.9-6.44-13.13 2.13-3.92-6.89 6.75 2.32 7.78-7.42 12.13-3.35 5.97 4.61-2.71 21.71-8.21 10.24zm-713.43-43.41c-2.52 5.15-34.94.43-16.25.1-1.91-7.27 13.46-6.7 16.25-.1zM268.76 52.25c4.09 5.46-12.6 14.53-10.75 2.49-7.96-6.7 4.42-1.75 10.75-2.5zm580.32 383.14c.1 1.8-.3 3.1 1.1 3.8-2.05 2.99.45 5.1-4.9 6.68-7.71-3.11-4.49-21.25 3.75-10.48h.05zM591.67 92.57a1.05 1.05 0 001.2-1.2h4.69c-4.06 3.97 16.48 9.33-1.7 12.18-3.5-2.86.02-7.75-4.19-10.98zM305.86 54.34c.6 4.03 6.75 9.18-.7 12.08l.6.6c-8.78 1.55-5.77-9.54.1-12.68zM1108.25 485c4.83-8.04 10.5-.27 0 4.88-11.35.68-11.54-5.67 0-4.88zM990.57 382.9c-13.35-2.4 8.64-29.46 0 0zM939.8 46.56c7.85 9.73-21.3 2.7-10 0h10zm-282.92 12.8c5.4 3.7.28 7.34-1.7 11.28-9.13 0-1.68-7.78 1.7-11.28zM285.2 92.86c1.53-.38 4.34-8.06 7.58-3.69.85 7.43-1.63 11.95-7.58 3.7zm669.55 302.71c-16.93 12.76-4.05-15.44 0 0zM924.34 72.51c-.88-5.04 4.13-7.42 9.68-3.6.69 4.53-5.15 4.39-9.67 3.6zM268.76 52.25c-10.33-7.98 9.07-9.52 5.99 0h-5.99zm735.67 449.12c2.93-.45 10.17-7.74 13.27-2.2-.51.1-1.3.3-2.1.5.2.3.5.6.69.9-3.29-1.5-11.61 9.38-11.86.8zm-685.9-337.34c-7.1 1.15-7.9-2.1-3.4-5.98 4.75-2.67 7.45.64 3.4 5.98zM572.4 311.24c9.07-1.86 3.2 18.51-1.29 5.69 1.14-.95 1.31-2.88 1.3-5.69zm111.5-256.7c.4 2.2-.82 4.4 1.3 5.89-7.08 7.44-10.4-8.83-1.3-5.89zM43.29 185.6c-10.02 12.8-17.9-2.48 0 0zm55.15 46.6c-4.12.99-3.16-5.41-3.19-7.98 5.92-5.23 5.13 3.29 3.19 7.98zM4.39 126.9c7.97-1.64 10.04 12.73.25 3.25-.82-.2-3.66-.41-.25-3.24zM303.17 72.9c-11.54-5.13 7.42-7.25 5.48 0h-5.48zm681.61 422.88c8.5 3.57.29 4.3-6.88 3.8-5.22-3.44 3.2-1.92 6.88-3.8zM666.76 59.36c.24.54-2.2-2.8.6-4.28 3.7 0 10.04 8.62 1.3 4.69-.3.82-.5 1.49-1.1 3-.4-1.41-.6-2.4-.82-3.4h.02zm323 438.25c1.07-1.86 15.49-1.86 10.72 1.79-2.65-.53-9.24 1.43-10.71-1.82v.03zM685.52 159.33c5.18-.3 3.45 9.48-2.3 4.7-.94-2.05-.62-3.53 2.3-4.7z" opacity=".20"/>
      <path d="M683.92 54.84c-1.2-2.72-.59-7.5 3.79-5.39 1.8 1.1 1.2 6.24-3.8 5.39zm348.33 423.27v2.9c-9.42-.52-14.22-6.85 0-2.9zM671.85 63.92c.57-.82 8.92-3.24 6.13 1.43-2.38 2.26-6.37 4.45-6.13-1.43zm-18.96-.5c-3.24-.9-3.55 2.98-5.18 3.6-7.35 1.74 1.48-11.1 5.19-3.6zm373.28 399.12c-1.39 1.4-2.79 2.9-4.12 4.3-2.96-1.46-1.87-11.19 4.12-4.3zm-23.34-35.73c4.87-.64 1.18 1.85 1.6 5.6-5.92.39-5.9-1.68-1.6-5.6zM849.16 89.87c-1.13.06-7.24.76-5.14-2.8.6-3.02 5.57-1.68 5.14 2.8zM276.04 79.09c-2.29.3-3.09-1.5-4.98-1.5 2.72-7.27 4.32-8.27 4.98 1.5z" opacity=".20"/>
    </g>
  </g>
  <defs>
    <clipPath id="clip0">
      <path fill="#fff" d="M0 0h1187v700H0z"/>
    </clipPath>
  </defs>
</svg>
